NotoSansOriya-CondensedExtraBlack.ufo
<glyph name="slash" format="2">
  <advance width="439"/>
  <unicode hex="002F"/>
  <outline>
    <contour>
      <point x="261" y="832" type="line"/>
      <point x="31" y="-165" type="line"/>
      <point x="178" y="-165" type="line"/>
      <point x="408" y="832" type="line"/>
    </contour>
  </outline>
</glyph>
<glyph name="colon" format="2">
  <advance width="326"/>
  <unicode hex="003A"/>
  <outline>
    <contour>
      <point x="165" y="374" type="curve" smooth="yes"/>
      <point x="221" y="374"/>
      <point x="254" y="408"/>
      <point x="254" y="467" type="curve" smooth="yes"/>
      <point x="254" y="527"/>
      <point x="223" y="561"/>
      <point x="165" y="561" type="curve" smooth="yes"/>
      <point x="104" y="561"/>
      <point x="72" y="527"/>
      <point x="72" y="467" type="curve" smooth="yes"/>
      <point x="72" y="408"/>
      <point x="107" y="374"/>
    </contour>
    <contour>
      <point x="165" y="-12" type="curve" smooth="yes"/>
      <point x="221" y="-12"/>
      <point x="254" y="22"/>
      <point x="254" y="81" type="curve" smooth="yes"/>
      <point x="254" y="141"/>
      <point x="223" y="175"/>
      <point x="165" y="175" type="curve" smooth="yes"/>
      <point x="104" y="175"/>
      <point x="72" y="141"/>
      <point x="72" y="81" type="curve" smooth="yes"/>
      <point x="72" y="22"/>
      <point x="107" y="-12"/>
    </contour>
  </outline>
</glyph>
<glyph name="equal" format="2">
  <advance width="490"/>
  <unicode hex="003D"/>
  <outline>
    <contour>
      <point x="38" y="479" type="line"/>
      <point x="38" y="353" type="line"/>
      <point x="452" y="353" type="line"/>
      <point x="452" y="479" type="line"/>
    </contour>
    <contour>
      <point x="38" y="291" type="line"/>
      <point x="38" y="165" type="line"/>
      <point x="452" y="165" type="line"/>
      <point x="452" y="291" type="line"/>
    </contour>
  </outline>
</glyph>
<glyph name="greater" format="2">
  <advance width="490"/>
  <unicode hex="003E"/>
  <outline>
    <contour>
      <point x="33" y="193" type="line"/>
      <point x="33" y="49" type="line"/>
      <point x="457" y="280" type="line"/>
      <point x="457" y="364" type="line"/>
      <point x="33" y="595" type="line"/>
      <point x="33" y="451" type="line"/>
      <point x="287" y="322" type="line"/>
    </contour>
  </outline>
</glyph>
<glyph name="question" format="2">
  <advance width="487"/>
  <unicode hex="003F"/>
  <outline>
    <contour>
      <point x="149" y="252" type="line"/>
      <point x="285" y="252" type="line"/>
      <point x="285" y="266" type="line" smooth="yes"/>
      <point x="285" y="300"/>
      <point x="294" y="317"/>
      <point x="331" y="355" type="curve" smooth="yes"/>
      <point x="389" y="416"/>
      <point x="430" y="460"/>
      <point x="430" y="550" type="curve" smooth="yes"/>
      <point x="430" y="655"/>
      <point x="357" y="724"/>
      <point x="234" y="724" type="curve" smooth="yes"/>
      <point x="168" y="724"/>
      <point x="111" y="707"/>
      <point x="56" y="680" type="curve"/>
      <point x="112" y="552" type="line"/>
      <point x="145" y="569"/>
      <point x="175" y="580"/>
      <point x="215" y="580" type="curve" smooth="yes"/>
      <point x="254" y="580"/>
      <point x="272" y="563"/>
      <point x="272" y="531" type="curve" smooth="yes"/>
      <point x="272" y="497"/>
      <point x="255" y="477"/>
      <point x="217" y="440" type="curve" smooth="yes"/>
      <point x="170" y="394"/>
      <point x="149" y="355"/>
      <point x="149" y="290" type="curve" smooth="yes"/>
    </contour>
    <contour>
      <point x="125" y="81" type="curve" smooth="yes"/>
      <point x="125" y="22"/>
      <point x="161" y="-12"/>
      <point x="218" y="-12" type="curve" smooth="yes"/>
      <point x="275" y="-12"/>
      <point x="308" y="22"/>
      <point x="308" y="81" type="curve" smooth="yes"/>
      <point x="308" y="141"/>
      <point x="276" y="175"/>
      <point x="218" y="175" type="curve" smooth="yes"/>
      <point x="158" y="175"/>
      <point x="125" y="141"/>
    </contour>
  </outline>
</glyph>
<glyph name="bracketright" format="2">
  <advance width="355"/>
  <unicode hex="005D"/>
  <outline>
    <contour>
      <point x="48" y="-43" type="line"/>
      <point x="48" y="-165" type="line"/>
      <point x="270" y="-165" type="line"/>
      <point x="270" y="832" type="line"/>
      <point x="48" y="832" type="line"/>
      <point x="48" y="710" type="line"/>
      <point x="128" y="710" type="line"/>
      <point x="128" y="-43" type="line"/>
    </contour>
  </outline>
</glyph>
<glyph name="asciicircum" format="2">
  <advance width="490"/>
  <unicode hex="005E"/>
  <outline>
    <contour>
      <point x="199" y="718" type="line"/>
      <point x="8" y="304" type="line"/>
      <point x="150" y="304" type="line"/>
      <point x="244" y="537" type="line"/>
      <point x="339" y="304" type="line"/>
      <point x="481" y="304" type="line"/>
      <point x="289" y="718" type="line"/>
    </contour>
  </outline>
</glyph>
<glyph name="danda" format="2">
  <advance width="283"/>
  <unicode hex="0964"/>
  <note>
danda.orya
</note>
  <outline>
    <contour>
      <point x="68" y="658" type="line"/>
      <point x="68" y="0" type="line"/>
      <point x="215" y="0" type="line"/>
      <point x="215" y="658" type="line"/>
    </contour>
  </outline>
</glyph>
<glyph name="candraBindu-oriya" format="2">
  <unicode hex="0B01"/>
  <note>
candrabinduorya
</note>
  <anchor x="300" y="658" name="_topright"/>
  <outline>
    <contour>
      <point x="300" y="678" type="curve" smooth="yes"/>
      <point x="413" y="678"/>
      <point x="483" y="768"/>
      <point x="490" y="924" type="curve"/>
      <point x="395" y="933" type="line"/>
      <point x="391" y="824"/>
      <point x="354" y="778"/>
      <point x="300" y="778" type="curve" smooth="yes"/>
      <point x="246" y="778"/>
      <point x="208" y="824"/>
      <point x="204" y="933" type="curve"/>
      <point x="109" y="924" type="line"/>
      <point x="116" y="768"/>
      <point x="186" y="678"/>
    </contour>
    <contour>
      <point x="300" y="824" type="curve" smooth="yes"/>
      <point x="331" y="824"/>
      <point x="352" y="849"/>
      <point x="352" y="887" type="curve" smooth="yes"/>
      <point x="352" y="925"/>
      <point x="331" y="950"/>
      <point x="300" y="950" type="curve" smooth="yes"/>
      <point x="269" y="950"/>
      <point x="248" y="925"/>
      <point x="248" y="887" type="curve" smooth="yes"/>
      <point x="248" y="849"/>
      <point x="269" y="824"/>
    </contour>
  </outline>
</glyph>
<glyph name="anusvara-oriya" format="2">
  <advance width="271"/>
  <unicode hex="0B02"/>
  <note>
anusvaraorya
</note>
  <outline>
    <contour>
      <point x="136" y="364" type="curve" smooth="yes"/>
      <point x="217" y="364"/>
      <point x="271" y="424"/>
      <point x="271" y="515" type="curve" smooth="yes"/>
      <point x="271" y="606"/>
      <point x="217" y="666"/>
      <point x="136" y="666" type="curve" smooth="yes"/>
      <point x="54" y="666"/>
      <point x="0" y="606"/>
      <point x="0" y="515" type="curve" smooth="yes"/>
      <point x="0" y="424"/>
      <point x="54" y="364"/>
    </contour>
    <contour>
      <point x="136" y="568" type="curve" smooth="yes"/>
      <point x="156" y="568"/>
      <point x="166" y="550"/>
      <point x="166" y="515" type="curve" smooth="yes"/>
      <point x="166" y="480"/>
      <point x="156" y="462"/>
      <point x="136" y="462" type="curve" smooth="yes"/>
      <point x="115" y="462"/>
      <point x="105" y="480"/>
      <point x="105" y="515" type="curve" smooth="yes"/>
      <point x="105" y="550"/>
      <point x="115" y="568"/>
    </contour>
  </outline>
</glyph>
<glyph name="e-oriya" format="2">
  <advance width="589"/>
  <unicode hex="0B0F"/>
  <note>
eorya
</note>
  <anchor x="482" y="658" name="topright"/>
  <outline>
    <contour>
      <point x="252" y="490" type="curve"/>
      <point x="323" y="424" type="line"/>
      <point x="323" y="490"/>
      <point x="363" y="518"/>
      <point x="440" y="518" type="curve"/>
      <point x="408" y="571" type="line"/>
      <point x="408" y="115" type="line"/>
      <point x="457" y="124" type="line"/>
      <point x="323" y="223"/>
      <point x="185" y="387"/>
      <point x="57" y="554" type="curve"/>
      <point x="133" y="529" type="line"/>
      <point x="-46" y="373" type="line"/>
      <point x="-47" y="429" type="line"/>
      <point x="83" y="271"/>
      <point x="222" y="115"/>
      <point x="380" y="0" type="curve"/>
      <point x="555" y="0" type="line"/>
      <point x="555" y="658" type="line"/>
      <point x="490" y="658" type="line" smooth="yes"/>
      <point x="299" y="658"/>
      <point x="216" y="534"/>
      <point x="216" y="436" type="curve" smooth="yes"/>
      <point x="216" y="363"/>
      <point x="263" y="325"/>
      <point x="310" y="325" type="curve" smooth="yes"/>
      <point x="362" y="325"/>
      <point x="389" y="370"/>
      <point x="389" y="415" type="curve" smooth="yes"/>
      <point x="389" y="461"/>
      <point x="361" y="508"/>
      <point x="304" y="508" type="curve" smooth="yes"/>
      <point x="286" y="508"/>
      <point x="268" y="502"/>
    </contour>
  </outline>
</glyph>
<glyph name="ca-oriya" format="2">
  <advance width="590"/>
  <unicode hex="0B1A"/>
  <note>
caorya
</note>
  <guideline x="391" y="225" angle="0"/>
  <anchor x="221" y="0" name="bottom"/>
  <anchor x="570" y="0" name="bottom_ra"/>
  <anchor x="291" y="658" name="top"/>
  <anchor x="444" y="658" name="topright"/>
  <outline>
    <contour>
      <point x="141" y="196" type="curve"/>
      <point x="202" y="290" type="line"/>
      <point x="176" y="316"/>
      <point x="163" y="349"/>
      <point x="163" y="388" type="curve" smooth="yes"/>
      <point x="163" y="466"/>
      <point x="215" y="520"/>
      <point x="292" y="520" type="curve" smooth="yes"/>
      <point x="370" y="520"/>
      <point x="422" y="465"/>
      <point x="422" y="385" type="curve" smooth="yes"/>
      <point x="422" y="360"/>
      <point x="417" y="334"/>
      <point x="406" y="307" type="curve"/>
      <point x="391" y="323" type="line"/>
      <point x="576" y="253" type="line"/>
      <point x="547" y="256" type="line"/>
      <point x="563" y="290"/>
      <point x="574" y="340"/>
      <point x="574" y="391" type="curve" smooth="yes"/>
      <point x="574" y="555"/>
      <point x="462" y="666"/>
      <point x="291" y="666" type="curve" smooth="yes"/>
      <point x="126" y="666"/>
      <point x="16" y="561"/>
      <point x="16" y="408" type="curve" smooth="yes"/>
      <point x="16" y="318"/>
      <point x="54" y="244"/>
    </contour>
    <contour>
      <point x="266" y="-8" type="curve" smooth="yes"/>
      <point x="368" y="-8"/>
      <point x="430" y="64"/>
      <point x="430" y="180" type="curve" smooth="yes"/>
      <point x="430" y="297"/>
      <point x="368" y="368"/>
      <point x="268" y="368" type="curve" smooth="yes"/>
      <point x="165" y="368"/>
      <point x="101" y="297"/>
      <point x="101" y="180" type="curve" smooth="yes"/>
      <point x="101" y="64"/>
      <point x="165" y="-8"/>
    </contour>
    <contour>
      <point x="266" y="115" type="curve" smooth="yes"/>
      <point x="244" y="115"/>
      <point x="234" y="136"/>
      <point x="234" y="180" type="curve" smooth="yes"/>
      <point x="234" y="224"/>
      <point x="244" y="245"/>
      <point x="266" y="245" type="curve" smooth="yes"/>
      <point x="287" y="245"/>
      <point x="297" y="224"/>
      <point x="297" y="180" type="curve" smooth="yes"/>
      <point x="297" y="136"/>
      <point x="287" y="115"/>
    </contour>
  </outline>
</glyph>
<glyph name="ja-oriya" format="2">
  <advance width="688"/>
  <unicode hex="0B1C"/>
  <note>
jaorya
</note>
  <anchor x="386" y="0" name="bottom"/>
  <anchor x="533" y="0" name="bottom_ra"/>
  <anchor x="337" y="658" name="top"/>
  <anchor x="542" y="658" name="topright"/>
  <outline>
    <contour>
      <point x="278" y="-7" type="curve" smooth="yes"/>
      <point x="325" y="-7"/>
      <point x="380" y="5"/>
      <point x="438" y="29" type="curve"/>
      <point x="376" y="-12" type="line"/>
      <point x="367" y="28"/>
      <point x="359" y="128"/>
      <point x="359" y="186" type="curve" smooth="yes"/>
      <point x="359" y="231"/>
      <point x="364" y="242"/>
      <point x="375" y="242" type="curve" smooth="yes"/>
      <point x="386" y="242"/>
      <point x="386" y="228"/>
      <point x="386" y="208" type="curve" smooth="yes"/>
      <point x="386" y="0" type="line"/>
      <point x="533" y="0" type="line"/>
      <point x="533" y="229" type="line" smooth="yes"/>
      <point x="533" y="322"/>
      <point x="478" y="371"/>
      <point x="392" y="371" type="curve" smooth="yes"/>
      <point x="286" y="371"/>
      <point x="240" y="297"/>
      <point x="240" y="187" type="curve" smooth="yes"/>
      <point x="240" y="155"/>
      <point x="245" y="116"/>
      <point x="253" y="60" type="curve"/>
      <point x="297" y="127" type="line"/>
      <point x="291" y="124"/>
      <point x="277" y="120"/>
      <point x="265" y="120" type="curve" smooth="yes"/>
      <point x="230" y="120"/>
      <point x="213" y="153"/>
      <point x="213" y="196" type="curve" smooth="yes"/>
      <point x="213" y="269"/>
      <point x="261" y="371"/>
      <point x="348" y="388" type="curve"/>
      <point x="347" y="306" type="line"/>
      <point x="205" y="495" type="line"/>
      <point x="298" y="466" type="line"/>
      <point x="142" y="410"/>
      <point x="86" y="310"/>
      <point x="86" y="197" type="curve" smooth="yes"/>
      <point x="86" y="63"/>
      <point x="164" y="-7"/>
    </contour>
    <contour>
      <point x="140" y="179" type="curve"/>
      <point x="199" y="284" type="line"/>
      <point x="174" y="315"/>
      <point x="163" y="347"/>
      <point x="163" y="380" type="curve" smooth="yes"/>
      <point x="163" y="471"/>
      <point x="250" y="520"/>
      <point x="340" y="520" type="curve" smooth="yes"/>
      <point x="430" y="520"/>
      <point x="520" y="470"/>
      <point x="520" y="375" type="curve" smooth="yes"/>
      <point x="520" y="343"/>
      <point x="510" y="312"/>
      <point x="494" y="284" type="curve"/>
      <point x="457" y="350" type="line"/>
      <point x="720" y="264" type="line"/>
      <point x="644" y="243" type="line"/>
      <point x="661" y="290"/>
      <point x="672" y="328"/>
      <point x="672" y="377" type="curve" smooth="yes"/>
      <point x="672" y="569"/>
      <point x="503" y="666"/>
      <point x="337" y="666" type="curve" smooth="yes"/>
      <point x="175" y="666"/>
      <point x="16" y="573"/>
      <point x="16" y="400" type="curve" smooth="yes"/>
      <point x="16" y="316"/>
      <point x="54" y="240"/>
    </contour>
  </outline>
</glyph>
<glyph name="ta-oriya" format="2">
  <advance width="651"/>
  <unicode hex="0B24"/>
  <note>
taorya
</note>
  <guideline x="391" y="225" angle="0"/>
  <anchor x="281" y="0" name="bottom"/>
  <anchor x="610" y="0" name="bottom_ra"/>
  <anchor x="323" y="658" name="top"/>
  <anchor x="505" y="658" name="topright"/>
  <outline>
    <contour>
      <point x="16" y="404" type="curve" smooth="yes"/>
      <point x="16" y="319"/>
      <point x="54" y="244"/>
      <point x="141" y="196" type="curve"/>
      <point x="202" y="290" type="line"/>
      <point x="176" y="316"/>
      <point x="163" y="350"/>
      <point x="163" y="385" type="curve" smooth="yes"/>
      <point x="163" y="473"/>
      <point x="243" y="520"/>
      <point x="326" y="520" type="curve" smooth="yes"/>
      <point x="406" y="520"/>
      <point x="483" y="475"/>
      <point x="483" y="382" type="curve" smooth="yes"/>
      <point x="483" y="345"/>
      <point x="471" y="305"/>
      <point x="442" y="262" type="curve"/>
      <point x="427" y="332" type="line"/>
      <point x="661" y="244" type="line"/>
      <point x="584" y="214" type="line"/>
      <point x="619" y="265"/>
      <point x="635" y="330"/>
      <point x="635" y="389" type="curve" smooth="yes"/>
      <point x="635" y="572"/>
      <point x="479" y="666"/>
      <point x="323" y="666" type="curve" smooth="yes"/>
      <point x="167" y="666"/>
      <point x="16" y="574"/>
    </contour>
    <contour>
      <point x="96" y="192" type="curve" smooth="yes"/>
      <point x="96" y="87"/>
      <point x="171" y="-8"/>
      <point x="307" y="-8" type="curve" smooth="yes"/>
      <point x="440" y="-8"/>
      <point x="500" y="84"/>
      <point x="500" y="179" type="curve" smooth="yes"/>
      <point x="500" y="276"/>
      <point x="437" y="340"/>
      <point x="358" y="340" type="curve" smooth="yes"/>
      <point x="288" y="340"/>
      <point x="255" y="291"/>
      <point x="255" y="246" type="curve" smooth="yes"/>
      <point x="255" y="207"/>
      <point x="280" y="170"/>
      <point x="327" y="170" type="curve" smooth="yes"/>
      <point x="366" y="170"/>
      <point x="394" y="195"/>
      <point x="394" y="238" type="curve" smooth="yes"/>
      <point x="394" y="251"/>
      <point x="392" y="307"/>
      <point x="346" y="307" type="curve"/>
      <point x="322" y="213" type="line"/>
      <point x="358" y="213"/>
      <point x="376" y="193"/>
      <point x="376" y="170" type="curve" smooth="yes"/>
      <point x="376" y="145"/>
      <point x="354" y="117"/>
      <point x="304" y="117" type="curve" smooth="yes"/>
      <point x="248" y="117"/>
      <point x="220" y="152"/>
      <point x="220" y="199" type="curve" smooth="yes"/>
      <point x="220" y="248"/>
      <point x="250" y="309"/>
      <point x="304" y="355" type="curve"/>
      <point x="237" y="436" type="line"/>
      <point x="148" y="375"/>
      <point x="96" y="279"/>
    </contour>
  </outline>
</glyph>
<glyph name="pha-oriya" format="2">
  <advance width="803"/>
  <unicode hex="0B2B"/>
  <note>
phaorya
</note>
  <guideline x="803" y="612" angle="90"/>
  <anchor x="464" y="0" name="bottom"/>
  <anchor x="611" y="0" name="bottom_ra"/>
  <anchor x="291" y="658" name="top"/>
  <anchor x="653" y="658" name="topright"/>
  <outline>
    <contour>
      <point x="676" y="616" type="curve" smooth="yes"/>
      <point x="581" y="616"/>
      <point x="540" y="532"/>
      <point x="540" y="458" type="curve" smooth="yes"/>
      <point x="540" y="385"/>
      <point x="579" y="302"/>
      <point x="674" y="302" type="curve" smooth="yes"/>
      <point x="749" y="302"/>
      <point x="803" y="363"/>
      <point x="803" y="460" type="curve" smooth="yes"/>
      <point x="803" y="556"/>
      <point x="749" y="616"/>
    </contour>
    <contour>
      <point x="650" y="510" type="curve" smooth="yes"/>
      <point x="675" y="510"/>
      <point x="687" y="486"/>
      <point x="687" y="459" type="curve" smooth="yes"/>
      <point x="687" y="432"/>
      <point x="675" y="408"/>
      <point x="650" y="408" type="curve" smooth="yes"/>
      <point x="624" y="408"/>
      <point x="611" y="432"/>
      <point x="611" y="459" type="curve" smooth="yes"/>
      <point x="611" y="486"/>
      <point x="624" y="510"/>
    </contour>
    <contour>
      <point x="140" y="196" type="curve"/>
      <point x="211" y="279" type="line"/>
      <point x="179" y="306"/>
      <point x="163" y="341"/>
      <point x="163" y="385" type="curve" smooth="yes"/>
      <point x="163" y="474"/>
      <point x="230" y="520"/>
      <point x="308" y="520" type="curve" smooth="yes"/>
      <point x="370" y="520"/>
      <point x="476" y="495"/>
      <point x="476" y="372" type="curve"/>
      <point x="589" y="371" type="line"/>
      <point x="589" y="569"/>
      <point x="438" y="666"/>
      <point x="291" y="666" type="curve" smooth="yes"/>
      <point x="152" y="666"/>
      <point x="16" y="579"/>
      <point x="16" y="411" type="curve" smooth="yes"/>
      <point x="16" y="331"/>
      <point x="56" y="241"/>
    </contour>
    <contour>
      <point x="313" y="-8" type="curve" smooth="yes"/>
      <point x="393" y="-8"/>
      <point x="482" y="38"/>
      <point x="538" y="132" type="curve"/>
      <point x="478" y="236" type="line"/>
      <point x="449" y="179"/>
      <point x="381" y="139"/>
      <point x="333" y="139" type="curve" smooth="yes"/>
      <point x="298" y="139"/>
      <point x="280" y="160"/>
      <point x="280" y="186" type="curve" smooth="yes"/>
      <point x="280" y="227"/>
      <point x="322" y="283"/>
      <point x="403" y="296" type="curve"/>
      <point x="385" y="246" type="line"/>
      <point x="296" y="446" type="line"/>
      <point x="373" y="439" type="line"/>
      <point x="205" y="420"/>
      <point x="128" y="300"/>
      <point x="128" y="189" type="curve" smooth="yes"/>
      <point x="128" y="87"/>
      <point x="193" y="-8"/>
    </contour>
    <contour>
      <point x="464" y="0" type="line"/>
      <point x="611" y="0" type="line"/>
      <point x="611" y="658" type="line"/>
      <point x="464" y="658" type="line"/>
      <point x="472" y="575" type="line"/>
      <point x="464" y="499" type="line"/>
      <point x="464" y="161" type="line"/>
      <point x="474" y="64" type="line"/>
    </contour>
  </outline>
</glyph>
<glyph name="la-oriya" format="2">
  <advance width="841"/>
  <unicode hex="0B32"/>
  <note>
laorya
</note>
  <anchor x="439" y="0" name="bottom"/>
  <anchor x="586" y="0" name="bottom_ra"/>
  <anchor x="404" y="658" name="top"/>
  <anchor x="675" y="658" name="topright"/>
  <outline>
    <contour>
      <point x="751" y="-83" type="line"/>
      <point x="667" y="-33" type="line"/>
      <point x="871" y="98" type="line"/>
      <point x="899" y="-3" type="line"/>
      <point x="735" y="241" type="line"/>
      <point x="708" y="100" type="line"/>
      <point x="774" y="185"/>
      <point x="805" y="275"/>
      <point x="805" y="355" type="curve" smooth="yes"/>
      <point x="805" y="527"/>
      <point x="666" y="666"/>
      <point x="386" y="666" type="curve" smooth="yes"/>
      <point x="118" y="666"/>
      <point x="16" y="538"/>
      <point x="16" y="411" type="curve" smooth="yes"/>
      <point x="16" y="328"/>
      <point x="59" y="245"/>
      <point x="143" y="196" type="curve"/>
      <point x="199" y="284" type="line"/>
      <point x="176" y="306"/>
      <point x="163" y="345"/>
      <point x="163" y="379" type="curve" smooth="yes"/>
      <point x="163" y="448"/>
      <point x="215" y="520"/>
      <point x="384" y="520" type="curve" smooth="yes"/>
      <point x="576" y="520"/>
      <point x="653" y="427"/>
      <point x="653" y="313" type="curve" smooth="yes"/>
      <point x="653" y="265"/>
      <point x="638" y="209"/>
      <point x="606" y="157" type="curve"/>
    </contour>
    <contour>
      <point x="116" y="-14" type="curve"/>
      <point x="257" y="8" type="line"/>
      <point x="244" y="58"/>
      <point x="238" y="110"/>
      <point x="238" y="166" type="curve" smooth="yes"/>
      <point x="238" y="206"/>
      <point x="241" y="242"/>
      <point x="259" y="242" type="curve" smooth="yes"/>
      <point x="266" y="242"/>
      <point x="272" y="236"/>
      <point x="272" y="217" type="curve" smooth="yes"/>
      <point x="272" y="0" type="line"/>
      <point x="413" y="0" type="line"/>
      <point x="413" y="217" type="line" smooth="yes"/>
      <point x="413" y="234"/>
      <point x="417" y="242"/>
      <point x="427" y="242" type="curve" smooth="yes"/>
      <point x="437" y="242"/>
      <point x="439" y="234"/>
      <point x="439" y="217" type="curve" smooth="yes"/>
      <point x="439" y="0" type="line"/>
      <point x="586" y="0" type="line"/>
      <point x="586" y="226" type="line" smooth="yes"/>
      <point x="586" y="308"/>
      <point x="541" y="370"/>
      <point x="459" y="370" type="curve" smooth="yes"/>
      <point x="365" y="370"/>
      <point x="305" y="288"/>
      <point x="305" y="175" type="curve"/>
      <point x="372" y="187" type="line"/>
      <point x="372" y="298"/>
      <point x="316" y="370"/>
      <point x="231" y="370" type="curve" smooth="yes"/>
      <point x="132" y="370"/>
      <point x="91" y="274"/>
      <point x="91" y="158" type="curve" smooth="yes"/>
      <point x="91" y="103"/>
      <point x="100" y="41"/>
    </contour>
  </outline>
</glyph>
<glyph name="ha-oriya" format="2">
  <advance width="646"/>
  <unicode hex="0B39"/>
  <note>
haorya
</note>
  <guideline x="530" y="725" angle="0"/>
  <anchor x="274" y="0" name="bottom"/>
  <anchor x="526" y="0" name="bottom_ra"/>
  <anchor x="313" y="658" name="top"/>
  <anchor x="500" y="658" name="topright"/>
  <outline>
    <contour>
      <point x="569" y="203" type="line"/>
      <point x="612" y="255"/>
      <point x="630" y="326"/>
      <point x="630" y="389" type="curve" smooth="yes"/>
      <point x="630" y="572"/>
      <point x="477" y="666"/>
      <point x="313" y="666" type="curve" smooth="yes"/>
      <point x="149" y="666"/>
      <point x="16" y="573"/>
      <point x="16" y="419" type="curve" smooth="yes"/>
      <point x="16" y="334"/>
      <point x="56" y="273"/>
      <point x="143" y="229" type="curve"/>
      <point x="198" y="290" type="line"/>
      <point x="171" y="320"/>
      <point x="158" y="360"/>
      <point x="158" y="396" type="curve" smooth="yes"/>
      <point x="158" y="478"/>
      <point x="226" y="520"/>
      <point x="314" y="520" type="curve" smooth="yes"/>
      <point x="405" y="520"/>
      <point x="478" y="475"/>
      <point x="478" y="383" type="curve" smooth="yes"/>
      <point x="478" y="346"/>
      <point x="466" y="304"/>
      <point x="437" y="262" type="curve"/>
      <point x="403" y="338" type="line"/>
      <point x="663" y="227" type="line"/>
    </contour>
    <contour>
      <point x="485" y="-85" type="line"/>
      <point x="525" y="27" type="line"/>
      <point x="234" y="125" type="line"/>
      <point x="191" y="73" type="line"/>
      <point x="298" y="171" type="line"/>
      <point x="200" y="218" type="line"/>
      <point x="85" y="120" type="line"/>
      <point x="97" y="46" type="line"/>
    </contour>
    <contour>
      <point x="269" y="148" type="curve" smooth="yes"/>
      <point x="307" y="148"/>
      <point x="345" y="162"/>
      <point x="374" y="195" type="curve"/>
      <point x="336" y="294" type="line"/>
      <point x="332" y="270"/>
      <point x="315" y="258"/>
      <point x="298" y="258" type="curve" smooth="yes"/>
      <point x="279" y="258"/>
      <point x="261" y="273"/>
      <point x="261" y="305" type="curve" smooth="yes"/>
      <point x="261" y="331"/>
      <point x="273" y="360"/>
      <point x="300" y="383" type="curve"/>
      <point x="243" y="470" type="line"/>
      <point x="165" y="434"/>
      <point x="121" y="361"/>
      <point x="121" y="293" type="curve" smooth="yes"/>
      <point x="121" y="206"/>
      <point x="194" y="148"/>
    </contour>
    <contour>
      <point x="322" y="116" type="line"/>
      <point x="449" y="116" type="line"/>
      <point x="449" y="406" type="line"/>
      <point x="322" y="406" type="line"/>
      <point x="322" y="243" type="line"/>
      <point x="339" y="211" type="line"/>
    </contour>
  </outline>
</glyph>
<glyph name="nukta-oriya" format="2">
  <unicode hex="0B3C"/>
  <note>
nuktaorya
</note>
  <anchor x="300" y="-122" name="_nukta"/>
  <outline>
    <contour>
      <point x="300" y="-216" type="curve" smooth="yes"/>
      <point x="346" y="-216"/>
      <point x="377" y="-179"/>
      <point x="377" y="-123" type="curve" smooth="yes"/>
      <point x="377" y="-68"/>
      <point x="346" y="-30"/>
      <point x="300" y="-30" type="curve" smooth="yes"/>
      <point x="254" y="-30"/>
      <point x="224" y="-68"/>
      <point x="224" y="-123" type="curve" smooth="yes"/>
      <point x="224" y="-179"/>
      <point x="254" y="-216"/>
    </contour>
  </outline>
</glyph>
<glyph name="aaMatra-oriya" format="2">
  <advance width="215"/>
  <unicode hex="0B3E"/>
  <note>
aavowelsignorya
</note>
  <anchor x="108" y="658" name="topright"/>
  <outline>
    <contour>
      <point x="34" y="658" type="line"/>
      <point x="34" y="0" type="line"/>
      <point x="181" y="0" type="line"/>
      <point x="181" y="658" type="line"/>
    </contour>
  </outline>
</glyph>
<glyph name="eMatra-oriya" format="2">
  <advance width="467"/>
  <unicode hex="0B47"/>
  <note>
evowelsignorya
</note>
  <outline>
    <contour>
      <point x="123" y="392" type="curve"/>
      <point x="125" y="257" type="line"/>
      <point x="157" y="265"/>
      <point x="189" y="269"/>
      <point x="208" y="269" type="curve" smooth="yes"/>
      <point x="265" y="269"/>
      <point x="279" y="238"/>
      <point x="279" y="201" type="curve" smooth="yes"/>
      <point x="279" y="169"/>
      <point x="268" y="138"/>
      <point x="234" y="138" type="curve" smooth="yes"/>
      <point x="185" y="138"/>
      <point x="174" y="205"/>
      <point x="174" y="285" type="curve" smooth="yes"/>
      <point x="174" y="458"/>
      <point x="225" y="520"/>
      <point x="301" y="520" type="curve" smooth="yes"/>
      <point x="343" y="520"/>
      <point x="387" y="501"/>
      <point x="424" y="468" type="curve"/>
      <point x="382" y="457" type="line"/>
      <point x="449" y="620" type="line"/>
      <point x="404" y="650"/>
      <point x="353" y="666"/>
      <point x="298" y="666" type="curve" smooth="yes"/>
      <point x="163" y="666"/>
      <point x="22" y="572"/>
      <point x="22" y="311" type="curve" smooth="yes"/>
      <point x="22" y="110"/>
      <point x="106" y="-8"/>
      <point x="243" y="-8" type="curve" smooth="yes"/>
      <point x="357" y="-8"/>
      <point x="431" y="74"/>
      <point x="431" y="200" type="curve" smooth="yes"/>
      <point x="431" y="333"/>
      <point x="348" y="408"/>
      <point x="226" y="408" type="curve" smooth="yes"/>
      <point x="195" y="408"/>
      <point x="160" y="403"/>
    </contour>
  </outline>
</glyph>
<glyph name="aiLength-oriya" format="2">
  <unicode hex="0B56"/>
  <note>
ailengthmarkorya
</note>
  <guideline x="1190" y="527" angle="90"/>
  <guideline x="298" y="929" angle="0"/>
  <guideline x="298" y="941" angle="0"/>
  <anchor x="477" y="658" name="_topright"/>
  <outline>
    <contour>
      <point x="381" y="735" type="line"/>
      <point x="627" y="689" type="line"/>
      <point x="504" y="618" type="line"/>
      <point x="567" y="670"/>
      <point x="597" y="735"/>
      <point x="597" y="793" type="curve" smooth="yes"/>
      <point x="597" y="874"/>
      <point x="547" y="941"/>
      <point x="452" y="941" type="curve" smooth="yes"/>
      <point x="370" y="941"/>
      <point x="268" y="890"/>
      <point x="217" y="890" type="curve" smooth="yes"/>
      <point x="182" y="890"/>
      <point x="158" y="914"/>
      <point x="135" y="968" type="curve"/>
      <point x="199" y="967" type="line"/>
      <point x="17" y="830" type="line"/>
      <point x="26" y="871" type="line"/>
      <point x="70" y="759"/>
      <point x="131" y="744"/>
      <point x="185" y="744" type="curve" smooth="yes"/>
      <point x="284" y="744"/>
      <point x="355" y="795"/>
      <point x="406" y="795" type="curve" smooth="yes"/>
      <point x="436" y="795"/>
      <point x="445" y="778"/>
      <point x="445" y="760" type="curve" smooth="yes"/>
      <point x="445" y="731"/>
      <point x="421" y="700"/>
      <point x="388" y="671" type="curve"/>
    </contour>
  </outline>
</glyph>
<glyph name="rrVocalic-oriya" format="2">
  <advance width="712"/>
  <unicode hex="0B60"/>
  <note>
rrvocalicorya
</note>
  <outline>
    <contour>
      <point x="142" y="192" type="curve"/>
      <point x="202" y="288" type="line"/>
      <point x="176" y="316"/>
      <point x="162" y="343"/>
      <point x="162" y="381" type="curve" smooth="yes"/>
      <point x="162" y="473"/>
      <point x="240" y="520"/>
      <point x="319" y="520" type="curve" smooth="yes"/>
      <point x="400" y="520"/>
      <point x="483" y="470"/>
      <point x="483" y="366" type="curve" smooth="yes"/>
      <point x="483" y="340"/>
      <point x="478" y="314"/>
      <point x="466" y="287" type="curve"/>
      <point x="615" y="321" type="line"/>
      <point x="626" y="352"/>
      <point x="631" y="381"/>
      <point x="631" y="412" type="curve" smooth="yes"/>
      <point x="631" y="582"/>
      <point x="476" y="666"/>
      <point x="326" y="666" type="curve" smooth="yes"/>
      <point x="167" y="666"/>
      <point x="16" y="572"/>
      <point x="16" y="404" type="curve" smooth="yes"/>
      <point x="16" y="315"/>
      <point x="59" y="245"/>
    </contour>
    <contour>
      <point x="266" y="-8" type="curve" smooth="yes"/>
      <point x="368" y="-8"/>
      <point x="430" y="64"/>
      <point x="430" y="180" type="curve" smooth="yes"/>
      <point x="430" y="297"/>
      <point x="368" y="368"/>
      <point x="268" y="368" type="curve" smooth="yes"/>
      <point x="165" y="368"/>
      <point x="101" y="297"/>
      <point x="101" y="180" type="curve" smooth="yes"/>
      <point x="101" y="64"/>
      <point x="165" y="-8"/>
    </contour>
    <contour>
      <point x="266" y="115" type="curve" smooth="yes"/>
      <point x="244" y="115"/>
      <point x="234" y="136"/>
      <point x="234" y="180" type="curve" smooth="yes"/>
      <point x="234" y="224"/>
      <point x="244" y="245"/>
      <point x="266" y="245" type="curve" smooth="yes"/>
      <point x="288" y="245"/>
      <point x="297" y="224"/>
      <point x="297" y="180" type="curve" smooth="yes"/>
      <point x="297" y="136"/>
      <point x="287" y="115"/>
    </contour>
    <contour>
      <point x="456" y="103" type="line"/>
      <point x="534" y="133" type="line"/>
      <point x="641" y="133"/>
      <point x="696" y="195"/>
      <point x="696" y="255" type="curve" smooth="yes"/>
      <point x="696" y="313"/>
      <point x="646" y="369"/>
      <point x="545" y="369" type="curve"/>
      <point x="466" y="287" type="line"/>
      <point x="474" y="287" type="line" smooth="yes"/>
      <point x="527" y="285"/>
      <point x="552" y="263"/>
      <point x="552" y="242" type="curve" smooth="yes"/>
      <point x="552" y="222"/>
      <point x="529" y="203"/>
      <point x="471" y="200" type="curve"/>
    </contour>
    <contour>
      <point x="595" y="-267" type="line"/>
      <point x="511" y="-217" type="line"/>
      <point x="715" y="-86" type="line"/>
      <point x="743" y="-187" type="line"/>
      <point x="583" y="34" type="line"/>
      <point x="533" y="-51" type="line"/>
      <point x="640" y="-51"/>
      <point x="695" y="11"/>
      <point x="695" y="71" type="curve" smooth="yes"/>
      <point x="695" y="129"/>
      <point x="645" y="185"/>
      <point x="544" y="185" type="curve"/>
      <point x="456" y="103" type="line"/>
      <point x="521" y="103"/>
      <point x="551" y="80"/>
      <point x="551" y="58" type="curve" smooth="yes"/>
      <point x="551" y="38"/>
      <point x="528" y="19"/>
      <point x="485" y="19" type="curve"/>
      <point x="450" y="-27" type="line"/>
    </contour>
  </outline>
</glyph>
<glyph name="zero-oriya" format="2">
  <advance width="490"/>
  <unicode hex="0B66"/>
  <note>
zeroorya
</note>
  <outline>
    <contour>
      <point x="245" y="66" type="curve" smooth="yes"/>
      <point x="385" y="66"/>
      <point x="477" y="165"/>
      <point x="477" y="316" type="curve" smooth="yes"/>
      <point x="477" y="467"/>
      <point x="385" y="567"/>
      <point x="245" y="567" type="curve" smooth="yes"/>
      <point x="105" y="567"/>
      <point x="13" y="468"/>
      <point x="13" y="317" type="curve" smooth="yes"/>
      <point x="13" y="166"/>
      <point x="105" y="66"/>
    </contour>
    <contour>
      <point x="245" y="421" type="curve" smooth="yes"/>
      <point x="296" y="421"/>
      <point x="325" y="383"/>
      <point x="325" y="316" type="curve" smooth="yes"/>
      <point x="325" y="250"/>
      <point x="296" y="212"/>
      <point x="245" y="212" type="curve" smooth="yes"/>
      <point x="194" y="212"/>
      <point x="165" y="250"/>
      <point x="165" y="316" type="curve" smooth="yes"/>
      <point x="165" y="383"/>
      <point x="194" y="421"/>
    </contour>
  </outline>
</glyph>
<glyph name="four-oriya" format="2">
  <advance width="490"/>
  <unicode hex="0B6A"/>
  <note>
fourorya
</note>
  <outline>
    <contour>
      <point x="12" y="644" type="line"/>
      <point x="49" y="348"/>
      <point x="278" y="302"/>
      <point x="278" y="173" type="curve" smooth="yes"/>
      <point x="278" y="141"/>
      <point x="264" y="125"/>
      <point x="245" y="125" type="curve" smooth="yes"/>
      <point x="227" y="125"/>
      <point x="212" y="140"/>
      <point x="212" y="173" type="curve" smooth="yes"/>
      <point x="212" y="306"/>
      <point x="447" y="353"/>
      <point x="478" y="644" type="curve"/>
      <point x="330" y="666" type="line"/>
      <point x="326" y="630"/>
      <point x="318" y="599"/>
      <point x="308" y="570" type="curve" smooth="yes"/>
      <point x="240" y="374"/>
      <point x="60" y="344"/>
      <point x="60" y="169" type="curve" smooth="yes"/>
      <point x="60" y="46"/>
      <point x="149" y="-8"/>
      <point x="245" y="-8" type="curve" smooth="yes"/>
      <point x="341" y="-8"/>
      <point x="430" y="46"/>
      <point x="430" y="169" type="curve" smooth="yes"/>
      <point x="430" y="344"/>
      <point x="249" y="380"/>
      <point x="180" y="573" type="curve" smooth="yes"/>
      <point x="170" y="601"/>
      <point x="164" y="631"/>
      <point x="160" y="666" type="curve"/>
    </contour>
  </outline>
</glyph>
<glyph name="zerowidthnonjoiner" format="2">
  <unicode hex="200C"/>
  <note>
uni200C
</note>
  <guideline x="6" y="-340" angle="0"/>
  <outline>
    <contour>
      <point x="-26" y="788" type="line"/>
      <point x="-26" y="-166" type="line"/>
      <point x="26" y="-166" type="line"/>
      <point x="26" y="788" type="line"/>
    </contour>
  </outline>
</glyph>
<glyph name="hyphen" format="2">
  <advance width="323"/>
  <unicode hex="2010"/>
  <outline>
    <contour>
      <point x="50" y="370" type="line"/>
      <point x="50" y="224" type="line"/>
      <point x="273" y="224" type="line"/>
      <point x="273" y="370" type="line"/>
    </contour>
  </outline>
</glyph>
<glyph name="quoteright" format="2">
  <advance width="339"/>
  <unicode hex="2019"/>
  <outline>
    <contour>
      <point x="282" y="729" type="line"/>
      <point x="124" y="729" type="line"/>
      <point x="115" y="649"/>
      <point x="95" y="535"/>
      <point x="76" y="444" type="curve"/>
      <point x="209" y="444" type="line"/>
      <point x="240" y="516"/>
      <point x="268" y="617"/>
      <point x="287" y="718" type="curve"/>
    </contour>
  </outline>
</glyph>
<glyph name="rupeeIndian" format="2">
  <advance width="512"/>
  <unicode hex="20B9"/>
  <note>
uni20B9.orya
</note>
  <outline>
    <contour>
      <point x="56" y="538" type="line"/>
      <point x="101" y="538" type="line" smooth="yes"/>
      <point x="114" y="538"/>
      <point x="141" y="538"/>
      <point x="161" y="519" type="curve" smooth="yes"/>
      <point x="180" y="501"/>
      <point x="188" y="467"/>
      <point x="188" y="432" type="curve" smooth="yes"/>
      <point x="188" y="394"/>
      <point x="179" y="359"/>
      <point x="166" y="343" type="curve" smooth="yes"/>
      <point x="154" y="328"/>
      <point x="130" y="319"/>
      <point x="101" y="319" type="curve" smooth="yes"/>
      <point x="79" y="319" type="line"/>
      <point x="54" y="215" type="line"/>
      <point x="179" y="0" type="line"/>
      <point x="375" y="0" type="line"/>
      <point x="227" y="219" type="line" smooth="yes"/>
      <point x="311" y="247"/>
      <point x="353" y="313"/>
      <point x="353" y="403" type="curve" smooth="yes"/>
      <point x="353" y="458"/>
      <point x="334" y="518"/>
      <point x="283" y="555" type="curve" smooth="yes"/>
      <point x="233" y="538" type="line"/>
      <point x="466" y="538" type="line"/>
      <point x="466" y="658" type="line"/>
      <point x="56" y="658" type="line"/>
    </contour>
    <contour>
      <point x="56" y="367" type="line"/>
      <point x="466" y="367" type="line"/>
      <point x="466" y="487" type="line"/>
      <point x="56" y="487" type="line"/>
    </contour>
  </outline>
</glyph>
<glyph name="minus" format="2">
  <advance width="490"/>
  <unicode hex="2212"/>
  <outline>
    <contour>
      <point x="33" y="386" type="line"/>
      <point x="33" y="260" type="line"/>
      <point x="457" y="260" type="line"/>
      <point x="457" y="386" type="line"/>
    </contour>
  </outline>
</glyph>
<glyph name="_part_ta-oriya.below" format="2">
  <advance width="484"/>
  <note>
tasubscriptorya
</note>
  <outline>
    <contour>
      <point x="-15" y="-254" type="line"/>
      <point x="-50" y="-178" type="line"/>
      <point x="30" y="-236"/>
      <point x="125" y="-260"/>
      <point x="208" y="-260" type="curve" smooth="yes"/>
      <point x="361" y="-260"/>
      <point x="464" y="-173"/>
      <point x="464" y="-30" type="curve" smooth="yes"/>
      <point x="464" y="65"/>
      <point x="419" y="121"/>
      <point x="342" y="121" type="curve" smooth="yes"/>
      <point x="273" y="121"/>
      <point x="226" y="75"/>
      <point x="226" y="2" type="curve" smooth="yes"/>
      <point x="226" y="-78"/>
      <point x="282" y="-118"/>
      <point x="339" y="-118" type="curve" smooth="yes"/>
      <point x="397" y="-118"/>
      <point x="456" y="-78"/>
      <point x="456" y="2" type="curve"/>
      <point x="364" y="-61" type="line"/>
      <point x="349" y="-119"/>
      <point x="297" y="-143"/>
      <point x="217" y="-143" type="curve" smooth="yes"/>
      <point x="151" y="-143"/>
      <point x="68" y="-124"/>
      <point x="6" y="-82" type="curve"/>
      <point x="64" y="-67" type="line"/>
    </contour>
    <contour>
      <point x="368" y="1" type="curve" smooth="yes"/>
      <point x="368" y="-21"/>
      <point x="359" y="-33"/>
      <point x="345" y="-33" type="curve" smooth="yes"/>
      <point x="331" y="-33"/>
      <point x="322" y="-21"/>
      <point x="322" y="1" type="curve" smooth="yes"/>
      <point x="322" y="23"/>
      <point x="331" y="35"/>
      <point x="345" y="35" type="curve" smooth="yes"/>
      <point x="359" y="35"/>
      <point x="368" y="23"/>
    </contour>
  </outline>
</glyph>
<glyph name="aiLength-oriya.stem" format="2">
  <note>
ailengthmarkorya
</note>
  <guideline x="298" y="941" angle="0"/>
  <anchor x="392" y="658" name="_topright"/>
  <outline>
    <contour>
      <point x="318" y="658" type="curve"/>
      <point x="471" y="608" type="line"/>
      <point x="410" y="604" type="line"/>
      <point x="507" y="635"/>
      <point x="548" y="723"/>
      <point x="548" y="792" type="curve" smooth="yes"/>
      <point x="548" y="871"/>
      <point x="495" y="941"/>
      <point x="402" y="941" type="curve" smooth="yes"/>
      <point x="322" y="941"/>
      <point x="219" y="890"/>
      <point x="168" y="890" type="curve" smooth="yes"/>
      <point x="133" y="890"/>
      <point x="109" y="914"/>
      <point x="86" y="968" type="curve"/>
      <point x="150" y="967" type="line"/>
      <point x="-32" y="830" type="line"/>
      <point x="-23" y="871" type="line"/>
      <point x="21" y="759"/>
      <point x="82" y="744"/>
      <point x="136" y="744" type="curve" smooth="yes"/>
      <point x="235" y="744"/>
      <point x="308" y="795"/>
      <point x="356" y="795" type="curve" smooth="yes"/>
      <point x="379" y="795"/>
      <point x="396" y="783"/>
      <point x="396" y="756" type="curve" smooth="yes"/>
      <point x="396" y="724"/>
      <point x="372" y="696"/>
    </contour>
  </outline>
</glyph>
<glyph name="aiLength-oriya.umbrella" format="2">
  <note>
ailengthmarkorya
</note>
  <guideline x="1190" y="527" angle="90"/>
  <guideline x="298" y="941" angle="0"/>
  <anchor x="483" y="658" name="_topright"/>
  <outline>
    <contour>
      <point x="268" y="650" type="line"/>
      <point x="522" y="551" type="line"/>
      <point x="403" y="541" type="line"/>
      <point x="557" y="614"/>
      <point x="597" y="726"/>
      <point x="597" y="792" type="curve" smooth="yes"/>
      <point x="597" y="863"/>
      <point x="550" y="941"/>
      <point x="451" y="941" type="curve" smooth="yes"/>
      <point x="371" y="941"/>
      <point x="268" y="890"/>
      <point x="217" y="890" type="curve" smooth="yes"/>
      <point x="182" y="890"/>
      <point x="158" y="914"/>
      <point x="135" y="968" type="curve"/>
      <point x="199" y="967" type="line"/>
      <point x="17" y="830" type="line"/>
      <point x="26" y="871" type="line"/>
      <point x="70" y="759"/>
      <point x="131" y="744"/>
      <point x="185" y="744" type="curve" smooth="yes"/>
      <point x="284" y="744"/>
      <point x="355" y="795"/>
      <point x="406" y="795" type="curve" smooth="yes"/>
      <point x="436" y="795"/>
      <point x="445" y="778"/>
      <point x="445" y="760" type="curve" smooth="yes"/>
      <point x="445" y="705"/>
      <point x="357" y="642"/>
      <point x="285" y="598" type="curve"/>
    </contour>
  </outline>
</glyph>
<glyph name="ai_reph-oriya" format="2">
  <advance width="804"/>
  <outline>
    <contour>
      <point x="594" y="270" type="curve" smooth="yes"/>
      <point x="616" y="270"/>
      <point x="639" y="274"/>
      <point x="651" y="282" type="curve"/>
      <point x="651" y="433" type="line"/>
      <point x="639" y="425"/>
      <point x="616" y="420"/>
      <point x="595" y="420" type="curve" smooth="yes"/>
      <point x="575" y="420"/>
      <point x="551" y="425"/>
      <point x="535" y="433" type="curve"/>
      <point x="535" y="282" type="line"/>
      <point x="550" y="274"/>
      <point x="573" y="270"/>
    </contour>
    <contour>
      <point x="779" y="748" type="line"/>
      <point x="923" y="906" type="line"/>
      <point x="845" y="977" type="line"/>
      <point x="701" y="818" type="line"/>
    </contour>
    <contour>
      <point x="623" y="696" type="line"/>
      <point x="623" y="0" type="line"/>
      <point x="770" y="0" type="line"/>
      <point x="770" y="696" type="line"/>
    </contour>
    <contour>
      <point x="623" y="696" type="curve"/>
      <point x="682" y="604" type="line"/>
      <point x="779" y="635"/>
      <point x="820" y="723"/>
      <point x="820" y="792" type="curve" smooth="yes"/>
      <point x="820" y="871"/>
      <point x="767" y="941"/>
      <point x="674" y="941" type="curve" smooth="yes"/>
      <point x="594" y="941"/>
      <point x="491" y="890"/>
      <point x="440" y="890" type="curve" smooth="yes"/>
      <point x="405" y="890"/>
      <point x="381" y="914"/>
      <point x="358" y="968" type="curve"/>
      <point x="422" y="967" type="line"/>
      <point x="240" y="830" type="line"/>
      <point x="249" y="871" type="line"/>
      <point x="293" y="759"/>
      <point x="354" y="744"/>
      <point x="408" y="744" type="curve" smooth="yes"/>
      <point x="507" y="744"/>
      <point x="580" y="795"/>
      <point x="628" y="795" type="curve" smooth="yes"/>
      <point x="655" y="795"/>
      <point x="669" y="779"/>
      <point x="669" y="759" type="curve" smooth="yes"/>
      <point x="669" y="738"/>
      <point x="654" y="712"/>
    </contour>
    <contour>
      <point x="252" y="490" type="curve"/>
      <point x="323" y="424" type="line"/>
      <point x="323" y="490"/>
      <point x="363" y="518"/>
      <point x="440" y="518" type="curve"/>
      <point x="408" y="571" type="line"/>
      <point x="408" y="115" type="line"/>
      <point x="457" y="124" type="line"/>
      <point x="323" y="223"/>
      <point x="185" y="387"/>
      <point x="57" y="554" type="curve"/>
      <point x="133" y="529" type="line"/>
      <point x="-46" y="373" type="line"/>
      <point x="-47" y="429" type="line"/>
      <point x="83" y="271"/>
      <point x="222" y="115"/>
      <point x="380" y="0" type="curve"/>
      <point x="555" y="0" type="line"/>
      <point x="555" y="658" type="line"/>
      <point x="490" y="658" type="line" smooth="yes"/>
      <point x="299" y="658"/>
      <point x="216" y="534"/>
      <point x="216" y="436" type="curve" smooth="yes"/>
      <point x="216" y="363"/>
      <point x="263" y="325"/>
      <point x="310" y="325" type="curve" smooth="yes"/>
      <point x="362" y="325"/>
      <point x="389" y="370"/>
      <point x="389" y="415" type="curve" smooth="yes"/>
      <point x="389" y="461"/>
      <point x="361" y="508"/>
      <point x="304" y="508" type="curve" smooth="yes"/>
      <point x="286" y="508"/>
      <point x="268" y="502"/>
    </contour>
  </outline>
</glyph>
<glyph name="ba_ja-oriya" format="2">
  <advance width="603"/>
  <guideline x="109" y="142" angle="90"/>
  <guideline x="428" y="177" angle="90"/>
  <guideline x="488" y="173" angle="90"/>
  <anchor x="300" y="658" name="top"/>
  <anchor x="457" y="658" name="topright"/>
  <outline>
    <contour>
      <point x="273.05" y="-248" type="curve" smooth="yes"/>
      <point x="314.45" y="-248"/>
      <point x="365.05" y="-239"/>
      <point x="400.7" y="-226" type="curve"/>
      <point x="371.95" y="-262" type="line"/>
      <point x="363.9" y="-230"/>
      <point x="352.4" y="-163"/>
      <point x="352.4" y="-105" type="curve" smooth="yes"/>
      <point x="352.4" y="-69"/>
      <point x="354.7" y="-48"/>
      <point x="367.35" y="-48" type="curve" smooth="yes"/>
      <point x="380" y="-48"/>
      <point x="380" y="-65"/>
      <point x="380" y="-84" type="curve" smooth="yes"/>
      <point x="380" y="-244" type="line"/>
      <point x="488.1" y="-244" type="line"/>
      <point x="488.1" y="-71" type="line" smooth="yes"/>
      <point x="488.1" y="-5"/>
      <point x="443.25" y="36"/>
      <point x="369.65" y="36" type="curve" smooth="yes"/>
      <point x="275.35" y="36"/>
      <point x="244.3" y="-24"/>
      <point x="244.3" y="-97" type="curve" smooth="yes"/>
      <point x="244.3" y="-128"/>
      <point x="250.05" y="-169"/>
      <point x="263.85" y="-203" type="curve"/>
      <point x="291.45" y="-155" type="line"/>
      <point x="281.1" y="-162"/>
      <point x="271.9" y="-165"/>
      <point x="262.7" y="-165" type="curve" smooth="yes"/>
      <point x="237.4" y="-165"/>
      <point x="219" y="-137"/>
      <point x="219" y="-96" type="curve" smooth="yes"/>
      <point x="219" y="-33"/>
      <point x="274.2" y="37"/>
      <point x="350.1" y="49" type="curve"/>
      <point x="281.1" y="-31" type="line"/>
      <point x="153.45" y="57" type="line"/>
      <point x="244.3" y="85" type="line"/>
      <point x="151.15" y="40"/>
      <point x="110.9" y="-35"/>
      <point x="110.9" y="-102" type="curve" smooth="yes"/>
      <point x="110.9" y="-192"/>
      <point x="183.35" y="-248"/>
    </contour>
    <contour>
      <point x="292" y="0" type="line"/>
      <point x="428" y="0" type="line"/>
      <point x="428" y="280" type="line"/>
      <point x="303" y="156" type="line"/>
    </contour>
    <contour>
      <point x="266" y="118" type="curve" smooth="yes"/>
      <point x="362" y="118"/>
      <point x="428" y="185"/>
      <point x="428" y="280" type="curve" smooth="yes"/>
      <point x="428" y="374"/>
      <point x="363" y="438"/>
      <point x="269" y="438" type="curve" smooth="yes"/>
      <point x="176" y="438"/>
      <point x="113" y="373"/>
      <point x="113" y="277" type="curve" smooth="yes"/>
      <point x="113" y="183"/>
      <point x="173" y="118"/>
    </contour>
    <contour>
      <point x="270" y="226" type="curve" smooth="yes"/>
      <point x="249" y="226"/>
      <point x="239" y="242"/>
      <point x="239" y="278" type="curve" smooth="yes"/>
      <point x="239" y="316"/>
      <point x="249" y="334"/>
      <point x="270" y="334" type="curve" smooth="yes"/>
      <point x="291" y="334"/>
      <point x="300" y="317"/>
      <point x="300" y="278" type="curve" smooth="yes"/>
      <point x="300" y="241"/>
      <point x="291" y="226"/>
    </contour>
    <contour>
      <point x="139" y="249" type="curve"/>
      <point x="198" y="334" type="line"/>
      <point x="174" y="356"/>
      <point x="161" y="386"/>
      <point x="161" y="419" type="curve" smooth="yes"/>
      <point x="161" y="493"/>
      <point x="225" y="530"/>
      <point x="300" y="530" type="curve" smooth="yes"/>
      <point x="374" y="530"/>
      <point x="440" y="493"/>
      <point x="440" y="417" type="curve" smooth="yes"/>
      <point x="440" y="394"/>
      <point x="434" y="372"/>
      <point x="423" y="346" type="curve"/>
      <point x="403" y="387" type="line"/>
      <point x="606" y="330" type="line"/>
      <point x="558" y="300" type="line"/>
      <point x="574" y="331"/>
      <point x="587" y="376"/>
      <point x="587" y="422" type="curve" smooth="yes"/>
      <point x="587" y="583"/>
      <point x="445" y="666"/>
      <point x="300" y="666" type="curve" smooth="yes"/>
      <point x="155" y="666"/>
      <point x="16" y="583"/>
      <point x="16" y="435" type="curve" smooth="yes"/>
      <point x="16" y="359"/>
      <point x="53" y="292"/>
    </contour>
  </outline>
</glyph>
<glyph name="bha-oriya.REV_BRACKET.141" format="2">
  <advance width="840"/>
  <note>
bhaorya
</note>
  <anchor x="312" y="0" name="bottom"/>
  <anchor x="662" y="0" name="bottom_ra"/>
  <anchor x="390" y="658" name="top"/>
  <anchor x="675" y="658" name="topright"/>
  <outline>
    <contour>
      <point x="605" y="157" type="curve"/>
      <point x="704.756" y="-8.113" type="line"/>
      <point x="842.14" y="80.109" type="line"/>
      <point x="734" y="241" type="line"/>
      <point x="707" y="100" type="line"/>
      <point x="773" y="185"/>
      <point x="804" y="275"/>
      <point x="804" y="356" type="curve"/>
      <point x="804" y="527"/>
      <point x="665" y="666"/>
      <point x="385" y="666" type="curve"/>
      <point x="118" y="666"/>
      <point x="16" y="538"/>
      <point x="16" y="411" type="curve"/>
      <point x="16" y="328"/>
      <point x="59" y="245"/>
      <point x="142" y="196" type="curve"/>
      <point x="198" y="284" type="line"/>
      <point x="176" y="306"/>
      <point x="163" y="345"/>
      <point x="163" y="379" type="curve"/>
      <point x="163" y="448"/>
      <point x="215" y="520"/>
      <point x="382" y="520" type="curve"/>
      <point x="574" y="520"/>
      <point x="652" y="427"/>
      <point x="652" y="314" type="curve"/>
      <point x="652" y="265"/>
      <point x="637" y="209"/>
    </contour>
    <contour>
      <point x="331" y="-8" type="curve"/>
      <point x="331" y="-8" type="line"/>
      <point x="504" y="-8"/>
      <point x="586" y="59"/>
      <point x="586" y="225" type="curve"/>
      <point x="586" y="320" type="line"/>
      <point x="439" y="320" type="line"/>
      <point x="439" y="175" type="line" smooth="yes"/>
      <point x="439" y="135"/>
      <point x="396" y="112"/>
      <point x="351" y="112" type="curve"/>
      <point x="279" y="112"/>
      <point x="249" y="154"/>
      <point x="249" y="208" type="curve"/>
      <point x="249" y="257"/>
      <point x="271" y="315"/>
      <point x="320" y="364" type="curve"/>
      <point x="230" y="444" type="line"/>
      <point x="144" y="384"/>
      <point x="97" y="287"/>
      <point x="97" y="198" type="curve"/>
      <point x="97" y="89"/>
      <point x="169" y="-8"/>
    </contour>
    <contour>
      <point x="389" y="125" type="curve"/>
      <point x="389" y="125" type="line"/>
      <point x="444" y="125"/>
      <point x="473" y="157"/>
      <point x="491" y="184" type="curve"/>
      <point x="470" y="257" type="line"/>
      <point x="455" y="237"/>
      <point x="443" y="228"/>
      <point x="428" y="228" type="curve"/>
      <point x="414" y="228"/>
      <point x="407" y="238"/>
      <point x="407" y="252" type="curve"/>
      <point x="407" y="268"/>
      <point x="415" y="289"/>
      <point x="428" y="306" type="curve"/>
      <point x="349" y="377" type="line"/>
      <point x="302" y="334"/>
      <point x="279" y="280"/>
      <point x="279" y="233" type="curve"/>
      <point x="279" y="173"/>
      <point x="316" y="125"/>
    </contour>
  </outline>
</glyph>
<glyph name="bha_ra-oriya.REV_BRACKET.141" format="2">
  <advance width="840"/>
  <anchor x="389" y="658" name="top"/>
  <anchor x="674" y="658" name="topright"/>
  <outline>
    <contour>
      <point x="750" y="-83" type="line"/>
      <point x="666" y="-33" type="line"/>
      <point x="870" y="98" type="line"/>
      <point x="898" y="-3" type="line"/>
      <point x="734" y="241" type="line"/>
      <point x="707" y="100" type="line"/>
      <point x="773" y="185"/>
      <point x="804" y="275"/>
      <point x="804" y="356" type="curve" smooth="yes"/>
      <point x="804" y="527"/>
      <point x="665" y="666"/>
      <point x="385" y="666" type="curve" smooth="yes"/>
      <point x="118" y="666"/>
      <point x="16" y="538"/>
      <point x="16" y="411" type="curve" smooth="yes"/>
      <point x="16" y="328"/>
      <point x="59" y="245"/>
      <point x="142" y="196" type="curve"/>
      <point x="198" y="284" type="line"/>
      <point x="176" y="306"/>
      <point x="163" y="345"/>
      <point x="163" y="379" type="curve" smooth="yes"/>
      <point x="163" y="448"/>
      <point x="215" y="520"/>
      <point x="382" y="520" type="curve" smooth="yes"/>
      <point x="574" y="520"/>
      <point x="652" y="427"/>
      <point x="652" y="314" type="curve" smooth="yes"/>
      <point x="652" y="265"/>
      <point x="637" y="209"/>
      <point x="605" y="157" type="curve"/>
    </contour>
    <contour>
      <point x="331" y="-8" type="curve" smooth="yes"/>
      <point x="504" y="-8"/>
      <point x="586" y="59"/>
      <point x="586" y="225" type="curve" smooth="yes"/>
      <point x="586" y="320" type="line"/>
      <point x="439" y="320" type="line"/>
      <point x="439" y="175" type="line" smooth="yes"/>
      <point x="439" y="135"/>
      <point x="396" y="112"/>
      <point x="351" y="112" type="curve" smooth="yes"/>
      <point x="279" y="112"/>
      <point x="249" y="154"/>
      <point x="249" y="208" type="curve" smooth="yes"/>
      <point x="249" y="257"/>
      <point x="271" y="315"/>
      <point x="320" y="364" type="curve"/>
      <point x="230" y="444" type="line"/>
      <point x="144" y="384"/>
      <point x="97" y="287"/>
      <point x="97" y="198" type="curve" smooth="yes"/>
      <point x="97" y="89"/>
      <point x="169" y="-8"/>
    </contour>
    <contour>
      <point x="389" y="125" type="curve" smooth="yes"/>
      <point x="444" y="125"/>
      <point x="473" y="157"/>
      <point x="491" y="184" type="curve"/>
      <point x="470" y="257" type="line"/>
      <point x="455" y="237"/>
      <point x="443" y="228"/>
      <point x="428" y="228" type="curve" smooth="yes"/>
      <point x="414" y="228"/>
      <point x="407" y="238"/>
      <point x="407" y="252" type="curve" smooth="yes"/>
      <point x="407" y="268"/>
      <point x="415" y="289"/>
      <point x="428" y="306" type="curve"/>
      <point x="349" y="377" type="line"/>
      <point x="302" y="334"/>
      <point x="279" y="280"/>
      <point x="279" y="233" type="curve" smooth="yes"/>
      <point x="279" y="173"/>
      <point x="316" y="125"/>
    </contour>
    <contour>
      <point x="662" y="-200" type="line"/>
      <point x="662" y="20" type="line"/>
      <point x="515" y="20" type="line"/>
      <point x="515" y="-70" type="line"/>
      <point x="162" y="-70" type="line"/>
      <point x="162" y="-200" type="line"/>
    </contour>
  </outline>
</glyph>
<glyph name="ca-oriya.base" format="2">
  <advance width="568"/>
  <anchor x="354" y="110" name="bottom"/>
  <anchor x="281" y="658" name="top"/>
  <anchor x="422" y="658" name="topright"/>
  <outline>
    <contour>
      <point x="137" y="249" type="curve"/>
      <point x="196" y="333" type="line"/>
      <point x="175" y="353"/>
      <point x="161" y="383"/>
      <point x="161" y="418" type="curve" smooth="yes"/>
      <point x="161" y="491"/>
      <point x="219" y="530"/>
      <point x="283" y="530" type="curve" smooth="yes"/>
      <point x="344" y="530"/>
      <point x="402" y="493"/>
      <point x="402" y="415" type="curve" smooth="yes"/>
      <point x="402" y="394"/>
      <point x="397" y="371"/>
      <point x="386" y="345" type="curve"/>
      <point x="371" y="368" type="line"/>
      <point x="560" y="303" type="line"/>
      <point x="526" y="303" type="line"/>
      <point x="542" y="333"/>
      <point x="552" y="378"/>
      <point x="552" y="422" type="curve" smooth="yes"/>
      <point x="552" y="583"/>
      <point x="417" y="666"/>
      <point x="281" y="666" type="curve" smooth="yes"/>
      <point x="147" y="666"/>
      <point x="16" y="584"/>
      <point x="16" y="435" type="curve" smooth="yes"/>
      <point x="16" y="359"/>
      <point x="52" y="293"/>
    </contour>
    <contour>
      <point x="259" y="71" type="curve" smooth="yes"/>
      <point x="357" y="71"/>
      <point x="419" y="136"/>
      <point x="419" y="237" type="curve" smooth="yes"/>
      <point x="419" y="337"/>
      <point x="358" y="403"/>
      <point x="261" y="403" type="curve" smooth="yes"/>
      <point x="161" y="403"/>
      <point x="98" y="337"/>
      <point x="98" y="236" type="curve" smooth="yes"/>
      <point x="98" y="137"/>
      <point x="159" y="71"/>
    </contour>
    <contour>
      <point x="259" y="186" type="curve" smooth="yes"/>
      <point x="238" y="186"/>
      <point x="228" y="205"/>
      <point x="228" y="237" type="curve" smooth="yes"/>
      <point x="228" y="270"/>
      <point x="238" y="289"/>
      <point x="259" y="289" type="curve" smooth="yes"/>
      <point x="279" y="289"/>
      <point x="289" y="270"/>
      <point x="289" y="237" type="curve" smooth="yes"/>
      <point x="289" y="205"/>
      <point x="279" y="186"/>
    </contour>
  </outline>
</glyph>
<glyph name="ca_cha-oriya" format="2">
  <advance width="678"/>
  <note>
cachaorya
</note>
  <guideline x="307" y="112" angle="90"/>
  <guideline x="86" y="210" angle="90"/>
  <guideline x="528" y="193" angle="90"/>
  <guideline x="68" y="71" angle="0"/>
  <anchor x="333" y="658" name="top"/>
  <anchor x="532" y="658" name="topright"/>
  <outline>
    <contour>
      <point x="140" y="236" type="curve"/>
      <point x="199" y="329" type="line"/>
      <point x="174" y="356"/>
      <point x="163" y="384"/>
      <point x="163" y="413" type="curve" smooth="yes"/>
      <point x="163" y="488"/>
      <point x="253" y="530"/>
      <point x="337" y="530" type="curve" smooth="yes"/>
      <point x="421" y="530"/>
      <point x="510" y="487"/>
      <point x="510" y="406" type="curve" smooth="yes"/>
      <point x="510" y="394"/>
      <point x="508" y="381"/>
      <point x="504" y="368" type="curve"/>
      <point x="650" y="331" type="line"/>
      <point x="657" y="357"/>
      <point x="662" y="382"/>
      <point x="662" y="411" type="curve" smooth="yes"/>
      <point x="662" y="580"/>
      <point x="494" y="666"/>
      <point x="333" y="666" type="curve" smooth="yes"/>
      <point x="176" y="666"/>
      <point x="16" y="584"/>
      <point x="16" y="431" type="curve" smooth="yes"/>
      <point x="16" y="357"/>
      <point x="54" y="290"/>
    </contour>
    <contour>
      <point x="213" y="71" type="curve" smooth="yes"/>
      <point x="294" y="71"/>
      <point x="342" y="134"/>
      <point x="342" y="238" type="curve" smooth="yes"/>
      <point x="342" y="341"/>
      <point x="294" y="405"/>
      <point x="213" y="405" type="curve" smooth="yes"/>
      <point x="133" y="405"/>
      <point x="86" y="338"/>
      <point x="86" y="236" type="curve" smooth="yes"/>
      <point x="86" y="134"/>
      <point x="132" y="71"/>
    </contour>
    <contour>
      <point x="221" y="180" type="curve" smooth="yes"/>
      <point x="206" y="180"/>
      <point x="199" y="190"/>
      <point x="199" y="238" type="curve" smooth="yes"/>
      <point x="199" y="285"/>
      <point x="206" y="296"/>
      <point x="221" y="296" type="curve" smooth="yes"/>
      <point x="236" y="296"/>
      <point x="243" y="285"/>
      <point x="243" y="238" type="curve" smooth="yes"/>
      <point x="243" y="190"/>
      <point x="236" y="180"/>
    </contour>
    <contour>
      <point x="399" y="71" type="curve" smooth="yes"/>
      <point x="481" y="71"/>
      <point x="528" y="138"/>
      <point x="528" y="240" type="curve" smooth="yes"/>
      <point x="528" y="341"/>
      <point x="482" y="405"/>
      <point x="403" y="405" type="curve" smooth="yes"/>
      <point x="320" y="405"/>
      <point x="272" y="340"/>
      <point x="272" y="237" type="curve" smooth="yes"/>
      <point x="272" y="133"/>
      <point x="321" y="71"/>
    </contour>
    <contour>
      <point x="393" y="180" type="curve" smooth="yes"/>
      <point x="378" y="180"/>
      <point x="371" y="190"/>
      <point x="371" y="238" type="curve" smooth="yes"/>
      <point x="371" y="285"/>
      <point x="378" y="296"/>
      <point x="393" y="296" type="curve" smooth="yes"/>
      <point x="408" y="296"/>
      <point x="415" y="285"/>
      <point x="415" y="238" type="curve" smooth="yes"/>
      <point x="415" y="190"/>
      <point x="408" y="180"/>
    </contour>
    <contour>
      <point x="424" y="-168" type="curve" smooth="yes"/>
      <point x="498" y="-168"/>
      <point x="528" y="-104"/>
      <point x="528" y="-41" type="curve" smooth="yes"/>
      <point x="528" y="25"/>
      <point x="495" y="92"/>
      <point x="420" y="92" type="curve" smooth="yes"/>
      <point x="302" y="92"/>
      <point x="264" y="-78"/>
      <point x="208" y="-78" type="curve" smooth="yes"/>
      <point x="190" y="-78"/>
      <point x="185" y="-53"/>
      <point x="185" y="-39" type="curve" smooth="yes"/>
      <point x="185" y="-20"/>
      <point x="193" y="2"/>
      <point x="209" y="2" type="curve" smooth="yes"/>
      <point x="264" y="2"/>
      <point x="307" y="-168"/>
    </contour>
    <contour>
      <point x="190" y="-168" type="curve" smooth="yes"/>
      <point x="307" y="-168"/>
      <point x="350" y="2"/>
      <point x="405" y="2" type="curve" smooth="yes"/>
      <point x="423" y="2"/>
      <point x="428" y="-24"/>
      <point x="428" y="-39" type="curve" smooth="yes"/>
      <point x="428" y="-53"/>
      <point x="423" y="-78"/>
      <point x="405" y="-78" type="curve" smooth="yes"/>
      <point x="349" y="-78"/>
      <point x="312" y="92"/>
      <point x="194" y="92" type="curve" smooth="yes"/>
      <point x="119" y="92"/>
      <point x="85" y="25"/>
      <point x="85" y="-41" type="curve" smooth="yes"/>
      <point x="85" y="-105"/>
      <point x="117" y="-168"/>
    </contour>
  </outline>
</glyph>
<glyph name="candraBindu-oriya.REV_BRACKET.141" format="2">
  <note>
candrabinduorya
</note>
  <anchor x="300" y="658" name="_topright"/>
  <outline>
    <contour>
      <point x="300" y="678" type="curve"/>
      <point x="300" y="678" type="line"/>
      <point x="413" y="678"/>
      <point x="483" y="768"/>
      <point x="490" y="924" type="curve"/>
      <point x="385" y="934" type="line"/>
      <point x="381" y="824"/>
      <point x="349" y="778"/>
      <point x="300" y="778" type="curve"/>
      <point x="250" y="778"/>
      <point x="217" y="824"/>
      <point x="214" y="934" type="curve"/>
      <point x="109" y="924" type="line"/>
      <point x="116" y="768"/>
      <point x="186" y="678"/>
    </contour>
    <contour>
      <point x="300" y="806" type="curve"/>
      <point x="300" y="806" type="line"/>
      <point x="339" y="806"/>
      <point x="358" y="842"/>
      <point x="358" y="878" type="curve"/>
      <point x="358" y="926"/>
      <point x="329" y="950"/>
      <point x="300" y="950" type="curve"/>
      <point x="271" y="950"/>
      <point x="242" y="926"/>
      <point x="242" y="878" type="curve"/>
      <point x="242" y="842"/>
      <point x="261" y="806"/>
    </contour>
  </outline>
</glyph>
<glyph name="cha-oriya.REV_BRACKET.141" format="2">
  <advance width="629"/>
  <note>
chaorya
</note>
  <anchor x="362" y="0" name="bottom"/>
  <anchor x="496" y="0" name="bottom_ra"/>
  <anchor x="302" y="658" name="top"/>
  <anchor x="483" y="658" name="topright"/>
  <outline>
    <contour>
      <point x="177" y="248" type="curve"/>
      <point x="222" y="329" type="line"/>
      <point x="184" y="346"/>
      <point x="156" y="378"/>
      <point x="156" y="431" type="curve" smooth="yes"/>
      <point x="156" y="497"/>
      <point x="228" y="531"/>
      <point x="302" y="531" type="curve" smooth="yes"/>
      <point x="388" y="531"/>
      <point x="461" y="493"/>
      <point x="461" y="415" type="curve" smooth="yes"/>
      <point x="461" y="389"/>
      <point x="454" y="362"/>
      <point x="443" y="336" type="curve"/>
      <point x="423" y="355" type="line"/>
      <point x="624" y="285" type="line"/>
      <point x="582" y="285" type="line"/>
      <point x="603" y="328"/>
      <point x="613" y="380"/>
      <point x="613" y="411" type="curve" smooth="yes"/>
      <point x="613" y="590"/>
      <point x="461" y="666"/>
      <point x="302" y="666" type="curve" smooth="yes"/>
      <point x="101" y="666"/>
      <point x="16" y="561"/>
      <point x="16" y="444" type="curve" smooth="yes"/>
      <point x="16" y="354"/>
      <point x="77" y="266"/>
    </contour>
    <contour>
      <point x="184" y="105" type="curve" smooth="yes"/>
      <point x="171" y="105"/>
      <point x="165" y="116"/>
      <point x="165" y="130" type="curve" smooth="yes"/>
      <point x="165" y="144"/>
      <point x="171" y="154"/>
      <point x="186" y="154" type="curve" smooth="yes"/>
      <point x="199" y="154"/>
      <point x="218" y="146"/>
      <point x="235" y="134" type="curve"/>
      <point x="213" y="115"/>
      <point x="196" y="105"/>
    </contour>
    <contour>
      <point x="159" y="-8" type="curve" smooth="yes"/>
      <point x="215" y="-8"/>
      <point x="253" y="26"/>
      <point x="292" y="78" type="curve"/>
      <point x="332" y="26"/>
      <point x="379" y="-8"/>
      <point x="425" y="-8" type="curve" smooth="yes"/>
      <point x="502" y="-8"/>
      <point x="539" y="55"/>
      <point x="539" y="121" type="curve" smooth="yes"/>
      <point x="539" y="188"/>
      <point x="501" y="257"/>
      <point x="420" y="257" type="curve" smooth="yes"/>
      <point x="380" y="257"/>
      <point x="354" y="237"/>
      <point x="295" y="188" type="curve"/>
      <point x="219" y="241"/>
      <point x="118" y="269"/>
      <point x="24" y="278" type="curve"/>
      <point x="17" y="172" type="line"/>
      <point x="65" y="173"/>
      <point x="112" y="171"/>
      <point x="160" y="168" type="curve"/>
      <point x="170" y="241" type="line"/>
      <point x="65" y="241"/>
      <point x="45" y="174"/>
      <point x="45" y="124" type="curve" smooth="yes"/>
      <point x="45" y="55"/>
      <point x="82" y="-8"/>
    </contour>
    <contour>
      <point x="400" y="105" type="curve" smooth="yes"/>
      <point x="387" y="105"/>
      <point x="370" y="115"/>
      <point x="348" y="134" type="curve"/>
      <point x="366" y="146"/>
      <point x="384" y="154"/>
      <point x="397" y="154" type="curve" smooth="yes"/>
      <point x="412" y="154"/>
      <point x="419" y="143"/>
      <point x="419" y="130" type="curve" smooth="yes"/>
      <point x="419" y="117"/>
      <point x="412" y="105"/>
    </contour>
    <contour>
      <point x="292" y="236" type="curve" smooth="yes"/>
      <point x="266" y="236"/>
      <point x="252" y="254"/>
      <point x="252" y="281" type="curve" smooth="yes"/>
      <point x="252" y="308"/>
      <point x="266" y="326"/>
      <point x="292" y="326" type="curve" smooth="yes"/>
      <point x="319" y="326"/>
      <point x="333" y="308"/>
      <point x="333" y="281" type="curve" smooth="yes"/>
      <point x="333" y="254"/>
      <point x="319" y="236"/>
    </contour>
    <contour>
      <point x="295" y="127" type="curve" smooth="yes"/>
      <point x="374" y="127"/>
      <point x="439" y="192"/>
      <point x="439" y="290" type="curve" smooth="yes"/>
      <point x="439" y="383"/>
      <point x="387" y="451"/>
      <point x="294" y="451" type="curve" smooth="yes"/>
      <point x="189" y="451"/>
      <point x="146" y="364"/>
      <point x="146" y="287" type="curve" smooth="yes"/>
      <point x="146" y="200"/>
      <point x="199" y="127"/>
    </contour>
  </outline>
</glyph>
<glyph name="da-oriya.base" format="2">
  <advance width="663"/>
  <anchor x="401" y="110" name="bottom"/>
  <anchor x="325" y="658" name="top"/>
  <anchor x="516" y="658" name="topright"/>
  <outline>
    <contour>
      <point x="260" y="118" type="curve" smooth="yes"/>
      <point x="307" y="118"/>
      <point x="356" y="134"/>
      <point x="393" y="172" type="curve"/>
      <point x="365" y="269" type="line"/>
      <point x="358" y="240"/>
      <point x="329" y="224"/>
      <point x="301" y="224" type="curve" smooth="yes"/>
      <point x="277" y="224"/>
      <point x="254" y="237"/>
      <point x="254" y="266" type="curve" smooth="yes"/>
      <point x="254" y="292"/>
      <point x="270" y="324"/>
      <point x="308" y="353" type="curve"/>
      <point x="240" y="435" type="line"/>
      <point x="152" y="386"/>
      <point x="108" y="325"/>
      <point x="108" y="253" type="curve" smooth="yes"/>
      <point x="108" y="158"/>
      <point x="185" y="118"/>
    </contour>
    <contour>
      <point x="327" y="76" type="line"/>
      <point x="474" y="76" type="line"/>
      <point x="474" y="360" type="line"/>
      <point x="327" y="360" type="line"/>
      <point x="327" y="214" type="line"/>
      <point x="342" y="163" type="line"/>
    </contour>
    <contour>
      <point x="137" y="236" type="curve"/>
      <point x="196" y="328" type="line"/>
      <point x="172" y="355"/>
      <point x="161" y="384"/>
      <point x="161" y="412" type="curve" smooth="yes"/>
      <point x="161" y="478"/>
      <point x="225" y="530"/>
      <point x="327" y="530" type="curve" smooth="yes"/>
      <point x="424" y="530"/>
      <point x="497" y="481"/>
      <point x="497" y="407" type="curve" smooth="yes"/>
      <point x="497" y="382"/>
      <point x="489" y="352"/>
      <point x="480" y="317" type="curve"/>
      <point x="449" y="369" type="line"/>
      <point x="680" y="292" type="line"/>
      <point x="621" y="288" type="line"/>
      <point x="637" y="331"/>
      <point x="647" y="367"/>
      <point x="647" y="408" type="curve" smooth="yes"/>
      <point x="647" y="581"/>
      <point x="485" y="666"/>
      <point x="325" y="666" type="curve" smooth="yes"/>
      <point x="169" y="666"/>
      <point x="16" y="584"/>
      <point x="16" y="431" type="curve" smooth="yes"/>
      <point x="16" y="357"/>
      <point x="52" y="290"/>
    </contour>
  </outline>
</glyph>
<glyph name="da_ra-oriya" format="2">
  <advance width="688"/>
  <anchor x="334" y="658" name="top"/>
  <anchor x="542" y="658" name="topright"/>
  <outline>
    <contour>
      <point x="264" y="44" type="curve" smooth="yes"/>
      <point x="357" y="44"/>
      <point x="445" y="102"/>
      <point x="445" y="221" type="curve"/>
      <point x="367" y="221" type="line"/>
      <point x="367" y="184"/>
      <point x="340" y="164"/>
      <point x="310" y="164" type="curve" smooth="yes"/>
      <point x="279" y="164"/>
      <point x="264" y="184"/>
      <point x="264" y="211" type="curve" smooth="yes"/>
      <point x="264" y="240"/>
      <point x="282" y="277"/>
      <point x="313" y="306" type="curve"/>
      <point x="240" y="394" type="line"/>
      <point x="156" y="343"/>
      <point x="113" y="260"/>
      <point x="113" y="188" type="curve" smooth="yes"/>
      <point x="113" y="109"/>
      <point x="166" y="44"/>
    </contour>
    <contour>
      <point x="346" y="0" type="line"/>
      <point x="493" y="0" type="line"/>
      <point x="493" y="320" type="line"/>
      <point x="346" y="320" type="line"/>
      <point x="346" y="156" type="line"/>
      <point x="363" y="95" type="line"/>
    </contour>
    <contour>
      <point x="140" y="179" type="curve"/>
      <point x="199" y="284" type="line"/>
      <point x="174" y="315"/>
      <point x="163" y="347"/>
      <point x="163" y="380" type="curve" smooth="yes"/>
      <point x="163" y="473"/>
      <point x="251" y="520"/>
      <point x="340" y="520" type="curve" smooth="yes"/>
      <point x="430" y="520"/>
      <point x="520" y="472"/>
      <point x="520" y="373" type="curve" smooth="yes"/>
      <point x="520" y="343"/>
      <point x="512" y="314"/>
      <point x="497" y="284" type="curve"/>
      <point x="466" y="332" type="line"/>
      <point x="688" y="248" type="line"/>
      <point x="645" y="243" type="line"/>
      <point x="661" y="290"/>
      <point x="672" y="328"/>
      <point x="672" y="377" type="curve" smooth="yes"/>
      <point x="672" y="569"/>
      <point x="501" y="666"/>
      <point x="334" y="666" type="curve" smooth="yes"/>
      <point x="173" y="666"/>
      <point x="16" y="577"/>
      <point x="16" y="400" type="curve" smooth="yes"/>
      <point x="16" y="316"/>
      <point x="54" y="240"/>
    </contour>
    <contour>
      <point x="653" y="-200" type="line"/>
      <point x="653" y="20" type="line"/>
      <point x="506" y="20" type="line"/>
      <point x="506" y="-70" type="line"/>
      <point x="153" y="-70" type="line"/>
      <point x="153" y="-200" type="line"/>
    </contour>
  </outline>
</glyph>
<glyph name="da_ra_uMatra-oriya" format="2">
  <advance width="663"/>
  <guideline x="91" y="-101" angle="90"/>
  <anchor x="325" y="658" name="top"/>
  <anchor x="516" y="658" name="topright"/>
  <outline>
    <contour>
      <point x="260" y="118" type="curve" smooth="yes"/>
      <point x="307" y="118"/>
      <point x="356" y="134"/>
      <point x="393" y="172" type="curve"/>
      <point x="365" y="269" type="line"/>
      <point x="358" y="240"/>
      <point x="329" y="224"/>
      <point x="301" y="224" type="curve" smooth="yes"/>
      <point x="277" y="224"/>
      <point x="254" y="237"/>
      <point x="254" y="266" type="curve" smooth="yes"/>
      <point x="254" y="292"/>
      <point x="270" y="324"/>
      <point x="308" y="353" type="curve"/>
      <point x="240" y="435" type="line"/>
      <point x="152" y="386"/>
      <point x="108" y="325"/>
      <point x="108" y="253" type="curve" smooth="yes"/>
      <point x="108" y="158"/>
      <point x="185" y="118"/>
    </contour>
    <contour>
      <point x="137" y="236" type="curve"/>
      <point x="196" y="328" type="line"/>
      <point x="172" y="355"/>
      <point x="161" y="384"/>
      <point x="161" y="412" type="curve" smooth="yes"/>
      <point x="161" y="478"/>
      <point x="225" y="530"/>
      <point x="327" y="530" type="curve" smooth="yes"/>
      <point x="424" y="530"/>
      <point x="497" y="481"/>
      <point x="497" y="407" type="curve" smooth="yes"/>
      <point x="497" y="382"/>
      <point x="489" y="352"/>
      <point x="480" y="317" type="curve"/>
      <point x="449" y="369" type="line"/>
      <point x="680" y="292" type="line"/>
      <point x="621" y="288" type="line"/>
      <point x="637" y="331"/>
      <point x="647" y="367"/>
      <point x="647" y="408" type="curve" smooth="yes"/>
      <point x="647" y="581"/>
      <point x="485" y="666"/>
      <point x="325" y="666" type="curve" smooth="yes"/>
      <point x="169" y="666"/>
      <point x="16" y="584"/>
      <point x="16" y="431" type="curve" smooth="yes"/>
      <point x="16" y="357"/>
      <point x="52" y="290"/>
    </contour>
    <contour>
      <point x="327" y="360" type="line"/>
      <point x="327" y="84" type="line"/>
      <point x="111" y="84" type="line"/>
      <point x="111" y="-30" type="line"/>
      <point x="474" y="-30" type="line"/>
      <point x="474" y="360" type="line"/>
    </contour>
    <contour>
      <point x="224" y="-232" type="curve" smooth="yes"/>
      <point x="304" y="-232"/>
      <point x="396" y="-169"/>
      <point x="396" y="-20" type="curve" smooth="yes"/>
      <point x="396" y="-4" type="line"/>
      <point x="296" y="-4" type="line"/>
      <point x="296" y="-20" type="line" smooth="yes"/>
      <point x="296" y="-120"/>
      <point x="247" y="-150"/>
      <point x="220" y="-150" type="curve" smooth="yes"/>
      <point x="208" y="-150"/>
      <point x="200" y="-144"/>
      <point x="200" y="-136" type="curve" smooth="yes"/>
      <point x="200" y="-125"/>
      <point x="211" y="-118"/>
      <point x="229" y="-118" type="curve" smooth="yes"/>
      <point x="304" y="-118"/>
      <point x="361" y="-232"/>
      <point x="461" y="-232" type="curve" smooth="yes"/>
      <point x="509" y="-232"/>
      <point x="558" y="-206"/>
      <point x="600" y="-157" type="curve"/>
      <point x="523" y="-259" type="line"/>
      <point x="492" y="-119" type="line"/>
      <point x="543" y="-124" type="line"/>
      <point x="514" y="-142"/>
      <point x="494" y="-150"/>
      <point x="466" y="-150" type="curve" smooth="yes"/>
      <point x="368" y="-150"/>
      <point x="327" y="-48"/>
      <point x="223" y="-48" type="curve" smooth="yes"/>
      <point x="160" y="-48"/>
      <point x="118" y="-85"/>
      <point x="118" y="-140" type="curve" smooth="yes"/>
      <point x="118" y="-195"/>
      <point x="160" y="-232"/>
    </contour>
  </outline>
</glyph>
<glyph name="da_va-oriya" format="2">
  <advance width="688"/>
  <anchor x="346" y="0" name="bottom"/>
  <anchor x="653" y="0" name="bottom_ra"/>
  <anchor x="175.46" y="22.527" name="curve"/>
  <anchor x="334" y="658" name="top"/>
  <anchor x="542" y="658" name="topright"/>
  <anchor x="346" y="-0.487" name="vertical"/>
  <outline>
    <contour>
      <point x="264" y="44" type="curve" smooth="yes"/>
      <point x="357" y="44"/>
      <point x="445" y="102"/>
      <point x="445" y="221" type="curve"/>
      <point x="367" y="221" type="line"/>
      <point x="367" y="184"/>
      <point x="340" y="164"/>
      <point x="310" y="164" type="curve" smooth="yes"/>
      <point x="279" y="164"/>
      <point x="264" y="184"/>
      <point x="264" y="211" type="curve" smooth="yes"/>
      <point x="264" y="240"/>
      <point x="282" y="277"/>
      <point x="313" y="306" type="curve"/>
      <point x="240" y="394" type="line"/>
      <point x="156" y="343"/>
      <point x="113" y="260"/>
      <point x="113" y="188" type="curve" smooth="yes"/>
      <point x="113" y="109"/>
      <point x="166" y="44"/>
    </contour>
    <contour>
      <point x="346" y="0" type="line"/>
      <point x="493" y="0" type="line"/>
      <point x="493" y="320" type="line"/>
      <point x="346" y="320" type="line"/>
      <point x="346" y="156" type="line"/>
      <point x="363" y="95" type="line"/>
    </contour>
    <contour>
      <point x="140" y="179" type="curve"/>
      <point x="199" y="284" type="line"/>
      <point x="174" y="315"/>
      <point x="163" y="347"/>
      <point x="163" y="380" type="curve" smooth="yes"/>
      <point x="163" y="473"/>
      <point x="251" y="520"/>
      <point x="340" y="520" type="curve" smooth="yes"/>
      <point x="430" y="520"/>
      <point x="520" y="472"/>
      <point x="520" y="373" type="curve" smooth="yes"/>
      <point x="520" y="343"/>
      <point x="512" y="314"/>
      <point x="497" y="284" type="curve"/>
      <point x="466" y="332" type="line"/>
      <point x="688" y="248" type="line"/>
      <point x="645" y="243" type="line"/>
      <point x="661" y="290"/>
      <point x="672" y="328"/>
      <point x="672" y="377" type="curve" smooth="yes"/>
      <point x="672" y="569"/>
      <point x="501" y="666"/>
      <point x="334" y="666" type="curve" smooth="yes"/>
      <point x="173" y="666"/>
      <point x="16" y="577"/>
      <point x="16" y="400" type="curve" smooth="yes"/>
      <point x="16" y="316"/>
      <point x="54" y="240"/>
    </contour>
    <contour>
      <point x="292" y="-207" type="curve" smooth="yes"/>
      <point x="337" y="-207"/>
      <point x="378" y="-188"/>
      <point x="409" y="-146" type="curve"/>
      <point x="362" y="-68" type="line"/>
      <point x="353" y="-95"/>
      <point x="335" y="-110"/>
      <point x="317" y="-110" type="curve" smooth="yes"/>
      <point x="294" y="-110"/>
      <point x="283" y="-90"/>
      <point x="283" y="-61" type="curve" smooth="yes"/>
      <point x="283" y="-25"/>
      <point x="295" y="26"/>
      <point x="318" y="71" type="curve"/>
      <point x="349" y="-5" type="line"/>
      <point x="171" y="19" type="line"/>
      <point x="194" y="58" type="line"/>
      <point x="176" y="18"/>
      <point x="167" y="-23"/>
      <point x="167" y="-61" type="curve" smooth="yes"/>
      <point x="167" y="-140"/>
      <point x="209" y="-207"/>
    </contour>
    <contour>
      <point x="346" y="-244" type="line"/>
      <point x="493" y="-244" type="line"/>
      <point x="493" y="0" type="line"/>
      <point x="346" y="0" type="line"/>
      <point x="346" y="-142" type="line"/>
      <point x="353" y="-151" type="line"/>
    </contour>
  </outline>
</glyph>
<glyph name="dda_ra-oriya.REV_BRACKET.141" format="2">
  <advance width="651"/>
  <anchor x="323" y="658" name="top"/>
  <anchor x="505" y="658" name="topright"/>
  <outline>
    <contour>
      <point x="141" y="196" type="curve"/>
      <point x="203" y="290" type="line"/>
      <point x="177" y="316"/>
      <point x="164" y="350"/>
      <point x="164" y="385" type="curve" smooth="yes"/>
      <point x="164" y="473"/>
      <point x="243" y="520"/>
      <point x="326" y="520" type="curve" smooth="yes"/>
      <point x="406" y="520"/>
      <point x="483" y="475"/>
      <point x="483" y="382" type="curve" smooth="yes"/>
      <point x="483" y="345"/>
      <point x="471" y="305"/>
      <point x="442" y="262" type="curve"/>
      <point x="417" y="336" type="line"/>
      <point x="675" y="239" type="line"/>
      <point x="584" y="214" type="line"/>
      <point x="619" y="265"/>
      <point x="635" y="330"/>
      <point x="635" y="389" type="curve" smooth="yes"/>
      <point x="635" y="572"/>
      <point x="479" y="666"/>
      <point x="323" y="666" type="curve" smooth="yes"/>
      <point x="167" y="666"/>
      <point x="16" y="574"/>
      <point x="16" y="404" type="curve" smooth="yes"/>
      <point x="16" y="319"/>
      <point x="54" y="244"/>
    </contour>
    <contour>
      <point x="96" y="192" type="curve" smooth="yes"/>
      <point x="96" y="70"/>
      <point x="189" y="-8"/>
      <point x="300" y="-8" type="curve" smooth="yes"/>
      <point x="410" y="-8"/>
      <point x="500" y="52"/>
      <point x="500" y="183" type="curve" smooth="yes"/>
      <point x="500" y="241"/>
      <point x="470" y="313"/>
      <point x="390" y="343" type="curve"/>
      <point x="326" y="227" type="line"/>
      <point x="354" y="211"/>
      <point x="366" y="191"/>
      <point x="366" y="172" type="curve" smooth="yes"/>
      <point x="366" y="149"/>
      <point x="345" y="130"/>
      <point x="306" y="130" type="curve" smooth="yes"/>
      <point x="255" y="130"/>
      <point x="228" y="162"/>
      <point x="228" y="203" type="curve" smooth="yes"/>
      <point x="228" y="250"/>
      <point x="256" y="302"/>
      <point x="308" y="350" type="curve"/>
      <point x="237" y="436" type="line"/>
      <point x="148" y="375"/>
      <point x="96" y="279"/>
    </contour>
    <contour>
      <point x="321" y="174" type="line"/>
      <point x="469" y="363" type="line"/>
      <point x="392" y="431" type="line"/>
      <point x="244" y="242" type="line"/>
    </contour>
    <contour>
      <point x="621" y="-200" type="line"/>
      <point x="621" y="20" type="line"/>
      <point x="474" y="20" type="line"/>
      <point x="474" y="-70" type="line"/>
      <point x="121" y="-70" type="line"/>
      <point x="121" y="-200" type="line"/>
    </contour>
  </outline>
</glyph>
<glyph name="ddara-oriya.REV_BRACKET.141" format="2">
  <advance width="651"/>
  <anchor x="323" y="658" name="top"/>
  <anchor x="505" y="658" name="topright"/>
  <outline>
    <contour>
      <point x="141" y="196" type="curve"/>
      <point x="141" y="196" type="line"/>
      <point x="203" y="290" type="line"/>
      <point x="177" y="316"/>
      <point x="164" y="350"/>
      <point x="164" y="385" type="curve"/>
      <point x="164" y="473"/>
      <point x="243" y="520"/>
      <point x="326" y="520" type="curve"/>
      <point x="406" y="520"/>
      <point x="483" y="475"/>
      <point x="483" y="382" type="curve"/>
      <point x="483" y="360.944"/>
      <point x="479.114" y="338.916"/>
      <point x="470.419" y="315.916" type="curve"/>
      <point x="610.497" y="263.251" type="line"/>
      <point x="627.174" y="303.541"/>
      <point x="635" y="347.738"/>
      <point x="635" y="389" type="curve"/>
      <point x="635" y="572"/>
      <point x="479" y="666"/>
      <point x="323" y="666" type="curve"/>
      <point x="167" y="666"/>
      <point x="16" y="574"/>
      <point x="16" y="404" type="curve"/>
      <point x="16" y="319"/>
      <point x="54" y="244"/>
    </contour>
    <contour>
      <point x="96" y="192" type="curve"/>
      <point x="96" y="192" type="line"/>
      <point x="96" y="70"/>
      <point x="189" y="-8"/>
      <point x="300" y="-8" type="curve"/>
      <point x="410" y="-8"/>
      <point x="500" y="52"/>
      <point x="500" y="183" type="curve"/>
      <point x="500" y="241"/>
      <point x="470" y="313"/>
      <point x="390" y="343" type="curve"/>
      <point x="326" y="227" type="line"/>
      <point x="354" y="211"/>
      <point x="366" y="191"/>
      <point x="366" y="172" type="curve"/>
      <point x="366" y="149"/>
      <point x="345" y="130"/>
      <point x="306" y="130" type="curve"/>
      <point x="255" y="130"/>
      <point x="228" y="162"/>
      <point x="228" y="203" type="curve"/>
      <point x="228" y="250"/>
      <point x="256" y="302"/>
      <point x="308" y="350" type="curve"/>
      <point x="237" y="436" type="line"/>
      <point x="148" y="375"/>
      <point x="96" y="279"/>
    </contour>
    <contour>
      <point x="244" y="242" type="line"/>
      <point x="321" y="174" type="line"/>
      <point x="469" y="363" type="line"/>
      <point x="392" y="431" type="line"/>
    </contour>
    <contour>
      <point x="121" y="-200" type="line"/>
      <point x="621" y="-200" type="line"/>
      <point x="621" y="20" type="line"/>
      <point x="474" y="20" type="line"/>
      <point x="474" y="-70" type="line"/>
      <point x="121" y="-70" type="line"/>
    </contour>
  </outline>
</glyph>
<glyph name="ddha-oriya.REV_BRACKET.141" format="2">
  <advance width="651"/>
  <note>
ddhaorya
</note>
  <guideline x="324" y="-52" angle="0"/>
  <guideline x="385" y="184" angle="90"/>
  <anchor x="214" y="0" name="bottom"/>
  <anchor x="626" y="0" name="bottom_ra"/>
  <anchor x="326" y="-110" name="nukta"/>
  <anchor x="322" y="658" name="top"/>
  <anchor x="505" y="658" name="topright"/>
  <outline>
    <contour>
      <point x="76" y="192" type="curve"/>
      <point x="76" y="192" type="line"/>
      <point x="76" y="58"/>
      <point x="174" y="-8"/>
      <point x="276" y="-8" type="curve"/>
      <point x="399" y="-8"/>
      <point x="500" y="87"/>
      <point x="500" y="213" type="curve"/>
      <point x="500" y="313"/>
      <point x="436" y="357"/>
      <point x="371" y="357" type="curve"/>
      <point x="303" y="357"/>
      <point x="239" y="316"/>
      <point x="239" y="218" type="curve"/>
      <point x="239" y="112"/>
      <point x="341" y="-15"/>
      <point x="515" y="-51" type="curve"/>
      <point x="538" y="75" type="line"/>
      <point x="415" y="91"/>
      <point x="357" y="139"/>
      <point x="357" y="204" type="curve"/>
      <point x="357" y="225"/>
      <point x="363" y="233"/>
      <point x="370" y="233" type="curve"/>
      <point x="377" y="233"/>
      <point x="383" y="225"/>
      <point x="383" y="205" type="curve"/>
      <point x="383" y="153"/>
      <point x="343" y="121"/>
      <point x="291" y="121" type="curve"/>
      <point x="236" y="121"/>
      <point x="214" y="157"/>
      <point x="214" y="203" type="curve"/>
      <point x="214" y="256"/>
      <point x="240" y="313"/>
      <point x="302" y="358" type="curve"/>
      <point x="228" y="446" type="line"/>
      <point x="122" y="380"/>
      <point x="76" y="291"/>
    </contour>
    <contour>
      <point x="141" y="196" type="curve"/>
      <point x="141" y="196" type="line"/>
      <point x="203" y="290" type="line"/>
      <point x="177" y="316"/>
      <point x="164" y="350"/>
      <point x="164" y="385" type="curve"/>
      <point x="164" y="473"/>
      <point x="243" y="520"/>
      <point x="326" y="520" type="curve"/>
      <point x="406" y="520"/>
      <point x="483" y="475"/>
      <point x="483" y="383" type="curve"/>
      <point x="483" y="366"/>
      <point x="480" y="349"/>
      <point x="475" y="331" type="curve"/>
      <point x="618" y="284" type="line"/>
      <point x="630" y="317"/>
      <point x="635" y="354"/>
      <point x="635" y="389" type="curve"/>
      <point x="635" y="572"/>
      <point x="479" y="666"/>
      <point x="323" y="666" type="curve"/>
      <point x="167" y="666"/>
      <point x="16" y="574"/>
      <point x="16" y="404" type="curve"/>
      <point x="16" y="319"/>
      <point x="54" y="244"/>
    </contour>
  </outline>
</glyph>
<glyph name="dha_va-oriya" format="2">
  <advance width="605"/>
  <anchor x="295" y="658" name="top"/>
  <anchor x="498" y="658" name="topright"/>
  <outline>
    <contour>
      <point x="251" y="72" type="curve" smooth="yes"/>
      <point x="349" y="72"/>
      <point x="440" y="117"/>
      <point x="510" y="199" type="curve"/>
      <point x="440" y="312" type="line"/>
      <point x="388" y="242"/>
      <point x="310" y="208"/>
      <point x="253" y="208" type="curve" smooth="yes"/>
      <point x="195" y="208"/>
      <point x="168" y="242"/>
      <point x="168" y="279" type="curve" smooth="yes"/>
      <point x="168" y="327"/>
      <point x="210" y="381"/>
      <point x="308" y="396" type="curve"/>
      <point x="264" y="505" type="line"/>
      <point x="90" y="472"/>
      <point x="16" y="372"/>
      <point x="16" y="276" type="curve" smooth="yes"/>
      <point x="16" y="172"/>
      <point x="104" y="72"/>
    </contour>
    <contour>
      <point x="310" y="303" type="line"/>
      <point x="406" y="405" type="line"/>
      <point x="138" y="666" type="line"/>
      <point x="38" y="568" type="line"/>
    </contour>
    <contour>
      <point x="370" y="-207" type="curve" smooth="yes"/>
      <point x="415" y="-207"/>
      <point x="456" y="-188"/>
      <point x="487" y="-146" type="curve"/>
      <point x="440" y="-68" type="line"/>
      <point x="431" y="-95"/>
      <point x="413" y="-110"/>
      <point x="394" y="-110" type="curve" smooth="yes"/>
      <point x="372" y="-110"/>
      <point x="361" y="-90"/>
      <point x="361" y="-59" type="curve" smooth="yes"/>
      <point x="361" y="-35"/>
      <point x="368" y="-1"/>
      <point x="380" y="33" type="curve"/>
      <point x="404" y="-3" type="line"/>
      <point x="220" y="26" type="line"/>
      <point x="281" y="61" type="line"/>
      <point x="257" y="20"/>
      <point x="245" y="-24"/>
      <point x="245" y="-66" type="curve" smooth="yes"/>
      <point x="245" y="-144"/>
      <point x="287" y="-207"/>
    </contour>
    <contour>
      <point x="424" y="-244" type="line"/>
      <point x="571" y="-244" type="line"/>
      <point x="571" y="658" type="line"/>
      <point x="424" y="658" type="line"/>
      <point x="424" y="220" type="line"/>
      <point x="442" y="178" type="line"/>
      <point x="424" y="76" type="line"/>
      <point x="424" y="-142" type="line"/>
      <point x="431" y="-151" type="line"/>
    </contour>
  </outline>
</glyph>
<glyph name="five-oriya.REV_BRACKET.141" format="2">
  <advance width="492"/>
  <note>
fiveorya
</note>
  <outline>
    <contour>
      <point x="400" y="191" type="curve"/>
      <point x="492" y="291" type="line"/>
      <point x="342" y="441"/>
      <point x="225" y="324"/>
      <point x="92" y="471" type="curve"/>
      <point x="0" y="369" type="line"/>
      <point x="127" y="228"/>
      <point x="247" y="346"/>
    </contour>
    <contour>
      <point x="215" y="-8" type="curve" smooth="yes"/>
      <point x="301" y="-8"/>
      <point x="381" y="36"/>
      <point x="381" y="151" type="curve" smooth="yes"/>
      <point x="381" y="203"/>
      <point x="365" y="273"/>
      <point x="285" y="332" type="curve"/>
      <point x="170" y="344" type="line"/>
      <point x="81" y="295"/>
      <point x="47" y="228"/>
      <point x="47" y="153" type="curve" smooth="yes"/>
      <point x="47" y="39"/>
      <point x="127" y="-8"/>
    </contour>
    <contour>
      <point x="109" y="508" type="curve" smooth="yes"/>
      <point x="109" y="457"/>
      <point x="124" y="389"/>
      <point x="200" y="332" type="curve"/>
      <point x="313" y="320" type="line"/>
      <point x="406" y="372"/>
      <point x="431" y="441"/>
      <point x="431" y="506" type="curve" smooth="yes"/>
      <point x="431" y="622"/>
      <point x="352" y="666"/>
      <point x="269" y="666" type="curve" smooth="yes"/>
      <point x="185" y="666"/>
      <point x="109" y="622"/>
    </contour>
    <contour>
      <point x="246" y="471" type="curve" smooth="yes"/>
      <point x="246" y="493"/>
      <point x="252" y="511"/>
      <point x="271" y="511" type="curve" smooth="yes"/>
      <point x="289" y="511"/>
      <point x="296" y="496"/>
      <point x="296" y="474" type="curve" smooth="yes"/>
      <point x="296" y="447"/>
      <point x="285" y="424"/>
      <point x="266" y="397" type="curve"/>
      <point x="254" y="425"/>
      <point x="246" y="446"/>
    </contour>
    <contour>
      <point x="185" y="185" type="curve" smooth="yes"/>
      <point x="185" y="213"/>
      <point x="197" y="239"/>
      <point x="218" y="267" type="curve"/>
      <point x="232" y="238"/>
      <point x="241" y="215"/>
      <point x="241" y="189" type="curve" smooth="yes"/>
      <point x="241" y="164"/>
      <point x="233" y="147"/>
      <point x="213" y="147" type="curve" smooth="yes"/>
      <point x="194" y="147"/>
      <point x="185" y="162"/>
    </contour>
  </outline>
</glyph>
<glyph name="ha-oriya.REV_BRACKET.141" format="2">
  <advance width="646"/>
  <note>
haorya
</note>
  <guideline x="522" y="405" angle="0"/>
  <guideline x="522" y="725" angle="0"/>
  <guideline x="522" y="325" angle="0"/>
  <anchor x="274" y="0" name="bottom"/>
  <anchor x="526" y="0" name="bottom_ra"/>
  <anchor x="313" y="658" name="top"/>
  <anchor x="500" y="658" name="topright"/>
  <outline>
    <contour>
      <point x="569" y="203" type="line"/>
      <point x="612" y="255"/>
      <point x="630" y="326"/>
      <point x="630" y="389" type="curve" smooth="yes"/>
      <point x="630" y="572"/>
      <point x="477" y="666"/>
      <point x="313" y="666" type="curve" smooth="yes"/>
      <point x="149" y="666"/>
      <point x="16" y="573"/>
      <point x="16" y="419" type="curve" smooth="yes"/>
      <point x="16" y="334"/>
      <point x="56" y="273"/>
      <point x="143" y="229" type="curve"/>
      <point x="201" y="290" type="line"/>
      <point x="174" y="320"/>
      <point x="161" y="360"/>
      <point x="161" y="396" type="curve" smooth="yes"/>
      <point x="161" y="478"/>
      <point x="226" y="520"/>
      <point x="314" y="520" type="curve" smooth="yes"/>
      <point x="405" y="520"/>
      <point x="478" y="475"/>
      <point x="478" y="383" type="curve" smooth="yes"/>
      <point x="478" y="346"/>
      <point x="466" y="304"/>
      <point x="437" y="262" type="curve"/>
      <point x="403" y="338" type="line"/>
      <point x="663" y="227" type="line"/>
    </contour>
    <contour>
      <point x="485" y="-83" type="line"/>
      <point x="526" y="32" type="line"/>
      <point x="234" y="131" type="line"/>
      <point x="191" y="67" type="line"/>
      <point x="298" y="171" type="line"/>
      <point x="200" y="218" type="line"/>
      <point x="85" y="114" type="line"/>
      <point x="99" y="52" type="line"/>
    </contour>
    <contour>
      <point x="263" y="148" type="curve" smooth="yes"/>
      <point x="305" y="148"/>
      <point x="344" y="163"/>
      <point x="373" y="195" type="curve"/>
      <point x="341" y="304" type="line"/>
      <point x="330" y="285"/>
      <point x="316" y="277"/>
      <point x="304" y="277" type="curve" smooth="yes"/>
      <point x="287" y="277"/>
      <point x="271" y="293"/>
      <point x="271" y="313" type="curve" smooth="yes"/>
      <point x="271" y="331"/>
      <point x="282" y="353"/>
      <point x="313" y="372" type="curve"/>
      <point x="241" y="472" type="line"/>
      <point x="158" y="434"/>
      <point x="121" y="364"/>
      <point x="121" y="299" type="curve" smooth="yes"/>
      <point x="121" y="220"/>
      <point x="175" y="148"/>
    </contour>
    <contour>
      <point x="316" y="116" type="line"/>
      <point x="449" y="116" type="line"/>
      <point x="449" y="406" type="line"/>
      <point x="316" y="406" type="line"/>
      <point x="316" y="243" type="line"/>
      <point x="333" y="211" type="line"/>
    </contour>
  </outline>
</glyph>
<glyph name="ha-oriya.base" format="2">
  <advance width="630"/>
  <note>
hasquishorya
</note>
  <guideline x="373" y="57" angle="90"/>
  <anchor x="338" y="62" name="bottom"/>
  <anchor x="306" y="658" name="top"/>
  <anchor x="484" y="658" name="topright"/>
  <outline>
    <contour>
      <point x="467" y="5" type="line"/>
      <point x="506" y="106" type="line"/>
      <point x="226" y="190" type="line"/>
      <point x="180" y="141" type="line"/>
      <point x="290" y="233" type="line"/>
      <point x="193" y="272" type="line"/>
      <point x="83" y="185" type="line"/>
      <point x="94" y="121" type="line"/>
    </contour>
    <contour>
      <point x="261" y="210" type="curve" smooth="yes"/>
      <point x="296" y="210"/>
      <point x="335" y="223"/>
      <point x="363" y="257" type="curve"/>
      <point x="326" y="344" type="line"/>
      <point x="322" y="322"/>
      <point x="305" y="312"/>
      <point x="289" y="312" type="curve" smooth="yes"/>
      <point x="271" y="312"/>
      <point x="255" y="325"/>
      <point x="255" y="350" type="curve" smooth="yes"/>
      <point x="255" y="370"/>
      <point x="265" y="395"/>
      <point x="291" y="415" type="curve"/>
      <point x="236" y="492" type="line"/>
      <point x="160" y="461"/>
      <point x="117" y="396"/>
      <point x="117" y="336" type="curve" smooth="yes"/>
      <point x="117" y="260"/>
      <point x="188" y="210"/>
    </contour>
    <contour>
      <point x="310" y="182" type="line"/>
      <point x="436" y="182" type="line"/>
      <point x="436" y="436" type="line"/>
      <point x="306" y="436" type="line"/>
      <point x="306" y="287" type="line"/>
      <point x="327" y="268" type="line"/>
    </contour>
    <contour>
      <point x="555" y="257" type="line"/>
      <point x="597" y="303"/>
      <point x="614" y="365"/>
      <point x="614" y="422" type="curve" smooth="yes"/>
      <point x="614" y="583"/>
      <point x="465" y="666"/>
      <point x="306" y="666" type="curve" smooth="yes"/>
      <point x="145" y="666"/>
      <point x="16" y="583"/>
      <point x="16" y="448" type="curve" smooth="yes"/>
      <point x="16" y="373"/>
      <point x="55" y="319"/>
      <point x="140" y="281" type="curve"/>
      <point x="199" y="336" type="line"/>
      <point x="174" y="362"/>
      <point x="161" y="397"/>
      <point x="161" y="428" type="curve" smooth="yes"/>
      <point x="161" y="496"/>
      <point x="224" y="530"/>
      <point x="305" y="530" type="curve" smooth="yes"/>
      <point x="393" y="530"/>
      <point x="464" y="493"/>
      <point x="464" y="416" type="curve" smooth="yes"/>
      <point x="464" y="383"/>
      <point x="452" y="345"/>
      <point x="424" y="308" type="curve"/>
      <point x="391" y="376" type="line"/>
      <point x="633" y="263" type="line"/>
    </contour>
  </outline>
</glyph>
<glyph name="ha_u-oriya" format="2">
  <advance width="630"/>
  <note>
huorya
</note>
  <guideline x="306" y="184" angle="90"/>
  <guideline x="436" y="184" angle="90"/>
  <anchor x="306" y="658" name="top"/>
  <anchor x="484" y="658" name="topright"/>
  <outline>
    <contour>
      <point x="239" y="-248" type="curve" smooth="yes"/>
      <point x="341" y="-248"/>
      <point x="436" y="-151"/>
      <point x="436" y="44" type="curve"/>
      <point x="306" y="74" type="line"/>
      <point x="306" y="44" type="line"/>
      <point x="306" y="-41"/>
      <point x="296" y="-140"/>
      <point x="244" y="-140" type="curve" smooth="yes"/>
      <point x="228" y="-140"/>
      <point x="220" y="-130"/>
      <point x="220" y="-118" type="curve" smooth="yes"/>
      <point x="220" y="-105"/>
      <point x="230" y="-96"/>
      <point x="241" y="-96" type="curve" smooth="yes"/>
      <point x="288" y="-96"/>
      <point x="363" y="-248"/>
      <point x="467" y="-248" type="curve" smooth="yes"/>
      <point x="507" y="-248"/>
      <point x="551" y="-226"/>
      <point x="598" y="-164" type="curve"/>
      <point x="563" y="-226" type="line"/>
      <point x="499" y="-102" type="line"/>
      <point x="523" y="-92" type="line"/>
      <point x="501" y="-119"/>
      <point x="478" y="-130"/>
      <point x="458" y="-130" type="curve" smooth="yes"/>
      <point x="389" y="-130"/>
      <point x="346" y="12"/>
      <point x="228" y="12" type="curve" smooth="yes"/>
      <point x="154" y="12"/>
      <point x="102" y="-45"/>
      <point x="102" y="-116" type="curve" smooth="yes"/>
      <point x="102" y="-190"/>
      <point x="159" y="-248"/>
    </contour>
    <contour>
      <point x="467" y="5" type="line"/>
      <point x="506" y="106" type="line"/>
      <point x="226" y="190" type="line"/>
      <point x="180" y="141" type="line"/>
      <point x="290" y="233" type="line"/>
      <point x="193" y="272" type="line"/>
      <point x="83" y="185" type="line"/>
      <point x="94" y="121" type="line"/>
    </contour>
    <contour>
      <point x="261" y="210" type="curve" smooth="yes"/>
      <point x="296" y="210"/>
      <point x="335" y="223"/>
      <point x="363" y="257" type="curve"/>
      <point x="326" y="344" type="line"/>
      <point x="322" y="322"/>
      <point x="305" y="312"/>
      <point x="289" y="312" type="curve" smooth="yes"/>
      <point x="271" y="312"/>
      <point x="255" y="325"/>
      <point x="255" y="350" type="curve" smooth="yes"/>
      <point x="255" y="370"/>
      <point x="265" y="395"/>
      <point x="291" y="415" type="curve"/>
      <point x="236" y="492" type="line"/>
      <point x="160" y="461"/>
      <point x="117" y="396"/>
      <point x="117" y="336" type="curve" smooth="yes"/>
      <point x="117" y="260"/>
      <point x="188" y="210"/>
    </contour>
    <contour>
      <point x="310" y="182" type="line"/>
      <point x="436" y="182" type="line"/>
      <point x="436" y="436" type="line"/>
      <point x="306" y="436" type="line"/>
      <point x="306" y="287" type="line"/>
      <point x="327" y="268" type="line"/>
    </contour>
    <contour>
      <point x="555" y="257" type="line"/>
      <point x="597" y="303"/>
      <point x="614" y="365"/>
      <point x="614" y="422" type="curve" smooth="yes"/>
      <point x="614" y="583"/>
      <point x="465" y="666"/>
      <point x="306" y="666" type="curve" smooth="yes"/>
      <point x="145" y="666"/>
      <point x="16" y="583"/>
      <point x="16" y="448" type="curve" smooth="yes"/>
      <point x="16" y="373"/>
      <point x="55" y="319"/>
      <point x="140" y="281" type="curve"/>
      <point x="199" y="336" type="line"/>
      <point x="174" y="362"/>
      <point x="161" y="397"/>
      <point x="161" y="428" type="curve" smooth="yes"/>
      <point x="161" y="496"/>
      <point x="224" y="530"/>
      <point x="305" y="530" type="curve" smooth="yes"/>
      <point x="393" y="530"/>
      <point x="464" y="493"/>
      <point x="464" y="416" type="curve" smooth="yes"/>
      <point x="464" y="383"/>
      <point x="452" y="345"/>
      <point x="424" y="308" type="curve"/>
      <point x="391" y="376" type="line"/>
      <point x="633" y="263" type="line"/>
    </contour>
  </outline>
</glyph>
<glyph name="i-oriya.REV_BRACKET.141" format="2">
  <advance width="742"/>
  <note>
iorya
</note>
  <guideline x="1053" y="351" angle="0"/>
  <anchor x="576" y="658" name="topright"/>
  <outline>
    <contour>
      <point x="507" y="157" type="curve"/>
      <point x="652" y="-83" type="line"/>
      <point x="568" y="-33" type="line"/>
      <point x="772" y="98" type="line"/>
      <point x="800" y="-3" type="line"/>
      <point x="636" y="241" type="line"/>
      <point x="609" y="100" type="line"/>
      <point x="675" y="185"/>
      <point x="706" y="275"/>
      <point x="706" y="358" type="curve"/>
      <point x="706" y="527"/>
      <point x="576" y="666"/>
      <point x="351" y="666" type="curve" smooth="yes"/>
      <point x="126" y="666"/>
      <point x="16" y="527"/>
      <point x="16" y="392" type="curve" smooth="yes"/>
      <point x="16" y="310"/>
      <point x="58" y="227"/>
      <point x="140" y="178" type="curve"/>
      <point x="198" y="283" type="line"/>
      <point x="175" y="304"/>
      <point x="163" y="334"/>
      <point x="163" y="365" type="curve" smooth="yes"/>
      <point x="163" y="436"/>
      <point x="219" y="520"/>
      <point x="349" y="520" type="curve" smooth="yes"/>
      <point x="483" y="520"/>
      <point x="554" y="427"/>
      <point x="554" y="317" type="curve" smooth="yes"/>
      <point x="554" y="265"/>
      <point x="539" y="209"/>
    </contour>
    <contour>
      <point x="206" y="-8" type="curve" smooth="yes"/>
      <point x="277" y="-8"/>
      <point x="314" y="63"/>
      <point x="314" y="174" type="curve" smooth="yes"/>
      <point x="314" y="285"/>
      <point x="277" y="351"/>
      <point x="208" y="351" type="curve" smooth="yes"/>
      <point x="139" y="351"/>
      <point x="86" y="284"/>
      <point x="86" y="170" type="curve" smooth="yes"/>
      <point x="86" y="55"/>
      <point x="140" y="-8"/>
    </contour>
    <contour>
      <point x="215" y="117" type="curve" smooth="yes"/>
      <point x="202" y="117"/>
      <point x="197" y="132"/>
      <point x="197" y="172" type="curve" smooth="yes"/>
      <point x="197" y="211"/>
      <point x="202" y="226"/>
      <point x="215" y="226" type="curve" smooth="yes"/>
      <point x="228" y="226"/>
      <point x="233" y="211"/>
      <point x="233" y="172" type="curve" smooth="yes"/>
      <point x="233" y="132"/>
      <point x="228" y="117"/>
    </contour>
    <contour>
      <point x="372" y="-8" type="curve" smooth="yes"/>
      <point x="439" y="-8"/>
      <point x="491" y="58"/>
      <point x="491" y="172" type="curve" smooth="yes"/>
      <point x="491" y="284"/>
      <point x="441" y="351"/>
      <point x="372" y="351" type="curve" smooth="yes"/>
      <point x="301" y="351"/>
      <point x="261" y="282"/>
      <point x="261" y="174" type="curve" smooth="yes"/>
      <point x="261" y="62"/>
      <point x="304" y="-8"/>
    </contour>
    <contour>
      <point x="362" y="117" type="curve" smooth="yes"/>
      <point x="349" y="117"/>
      <point x="344" y="132"/>
      <point x="344" y="172" type="curve" smooth="yes"/>
      <point x="344" y="211"/>
      <point x="349" y="226"/>
      <point x="362" y="226" type="curve" smooth="yes"/>
      <point x="375" y="226"/>
      <point x="380" y="211"/>
      <point x="380" y="172" type="curve" smooth="yes"/>
      <point x="380" y="132"/>
      <point x="375" y="117"/>
    </contour>
  </outline>
</glyph>
<glyph name="iMatra-oriya.wide" format="2">
  <note>
ivowelsignorya
</note>
  <anchor x="300" y="658" name="_top"/>
  <outline>
    <contour>
      <point x="87" y="690" type="line"/>
      <point x="142" y="744"/>
      <point x="224" y="771"/>
      <point x="306" y="771" type="curve" smooth="yes"/>
      <point x="386" y="771"/>
      <point x="466" y="745"/>
      <point x="519" y="694" type="curve"/>
      <point x="600" y="781" type="line"/>
      <point x="522" y="861"/>
      <point x="413" y="901"/>
      <point x="304" y="901" type="curve" smooth="yes"/>
      <point x="194" y="901"/>
      <point x="83" y="860"/>
      <point x="6" y="777" type="curve"/>
    </contour>
  </outline>
</glyph>
<glyph name="iMatra_reph-oriya" format="2">
  <anchor x="300" y="658" name="_top"/>
  <outline>
    <contour>
      <point x="117" y="677" type="line"/>
      <point x="171" y="746"/>
      <point x="235" y="771"/>
      <point x="300" y="771" type="curve" smooth="yes"/>
      <point x="364" y="771"/>
      <point x="429" y="746"/>
      <point x="482" y="677" type="curve"/>
      <point x="574" y="752" type="line"/>
      <point x="497" y="857"/>
      <point x="400" y="901"/>
      <point x="303" y="901" type="curve" smooth="yes"/>
      <point x="205" y="901"/>
      <point x="106" y="857"/>
      <point x="25" y="752" type="curve"/>
    </contour>
    <contour>
      <point x="440" y="748" type="line"/>
      <point x="584" y="906" type="line"/>
      <point x="506" y="977" type="line"/>
      <point x="362" y="818" type="line"/>
    </contour>
  </outline>
</glyph>
<glyph name="ii-oriya.REV_BRACKET.141" format="2">
  <advance width="726"/>
  <note>
iiorya
</note>
  <anchor x="558" y="658" name="topright"/>
  <outline>
    <contour>
      <point x="491" y="157" type="curve"/>
      <point x="491" y="157" type="line"/>
      <point x="590.756" y="-8.113" type="line"/>
      <point x="728.14" y="80.109" type="line"/>
      <point x="620" y="241" type="line"/>
      <point x="599" y="100" type="line"/>
      <point x="659" y="175"/>
      <point x="688" y="270"/>
      <point x="688" y="360" type="curve"/>
      <point x="688" y="562"/>
      <point x="543" y="666"/>
      <point x="386" y="666" type="curve"/>
      <point x="215" y="666"/>
      <point x="110" y="542"/>
      <point x="102" y="417" type="curve"/>
      <point x="238" y="417" type="line"/>
      <point x="253" y="480"/>
      <point x="305" y="520"/>
      <point x="376" y="520" type="curve"/>
      <point x="465" y="520"/>
      <point x="536" y="458"/>
      <point x="536" y="331" type="curve"/>
      <point x="536" y="270"/>
      <point x="520" y="205"/>
    </contour>
    <contour>
      <point x="196" y="-8" type="curve"/>
      <point x="196" y="-8" type="line"/>
      <point x="267" y="-8"/>
      <point x="304" y="63"/>
      <point x="304" y="174" type="curve"/>
      <point x="304" y="285"/>
      <point x="267" y="351"/>
      <point x="198" y="351" type="curve"/>
      <point x="129" y="351"/>
      <point x="76" y="284"/>
      <point x="76" y="170" type="curve"/>
      <point x="76" y="55"/>
      <point x="130" y="-8"/>
    </contour>
    <contour>
      <point x="205" y="117" type="curve"/>
      <point x="205" y="117" type="line"/>
      <point x="192" y="117"/>
      <point x="187" y="132"/>
      <point x="187" y="172" type="curve"/>
      <point x="187" y="211"/>
      <point x="192" y="226"/>
      <point x="205" y="226" type="curve"/>
      <point x="218" y="226"/>
      <point x="223" y="211"/>
      <point x="223" y="172" type="curve"/>
      <point x="223" y="132"/>
      <point x="218" y="117"/>
    </contour>
    <contour>
      <point x="362" y="-8" type="curve"/>
      <point x="362" y="-8" type="line"/>
      <point x="429" y="-8"/>
      <point x="481" y="58"/>
      <point x="481" y="172" type="curve"/>
      <point x="481" y="284"/>
      <point x="431" y="351"/>
      <point x="362" y="351" type="curve"/>
      <point x="291" y="351"/>
      <point x="251" y="282"/>
      <point x="251" y="174" type="curve"/>
      <point x="251" y="62"/>
      <point x="294" y="-8"/>
    </contour>
    <contour>
      <point x="352" y="117" type="curve"/>
      <point x="352" y="117" type="line"/>
      <point x="339" y="117"/>
      <point x="334" y="132"/>
      <point x="334" y="172" type="curve"/>
      <point x="334" y="211"/>
      <point x="339" y="226"/>
      <point x="352" y="226" type="curve"/>
      <point x="365" y="226"/>
      <point x="370" y="211"/>
      <point x="370" y="172" type="curve"/>
      <point x="370" y="132"/>
      <point x="365" y="117"/>
    </contour>
    <contour>
      <point x="141" y="150" type="curve"/>
      <point x="141" y="150" type="line"/>
      <point x="176" y="242" type="line"/>
      <point x="152" y="262"/>
      <point x="138" y="287"/>
      <point x="138" y="309" type="curve"/>
      <point x="138" y="348"/>
      <point x="174" y="368"/>
      <point x="215" y="368" type="curve"/>
      <point x="241.642" y="368"/>
      <point x="270.587" y="359.171"/>
      <point x="291.609" y="341.512" type="curve"/>
      <point x="370.467" y="435.833" type="line"/>
      <point x="329.824" y="482.944"/>
      <point x="270.201" y="505"/>
      <point x="212" y="505" type="curve"/>
      <point x="113" y="505"/>
      <point x="16" y="441"/>
      <point x="16" y="326" type="curve"/>
      <point x="16" y="258"/>
      <point x="49" y="191"/>
    </contour>
  </outline>
</glyph>
<glyph name="ja-oriya.REV_BRACKET.141" format="2">
  <advance width="688"/>
  <note>
jaorya
</note>
  <anchor x="386" y="0" name="bottom"/>
  <anchor x="533" y="0" name="bottom_ra"/>
  <anchor x="337" y="658" name="top"/>
  <anchor x="542" y="658" name="topright"/>
  <outline>
    <contour>
      <point x="278" y="-7" type="curve"/>
      <point x="278" y="-7" type="line"/>
      <point x="307.15" y="-7"/>
      <point x="339.376" y="-2.384"/>
      <point x="373.488" y="6.847" type="curve"/>
      <point x="366.018" y="53.791"/>
      <point x="360" y="135.694"/>
      <point x="360" y="186" type="curve"/>
      <point x="360" y="231"/>
      <point x="365" y="242"/>
      <point x="375" y="242" type="curve"/>
      <point x="386" y="242"/>
      <point x="386" y="228"/>
      <point x="386" y="208" type="curve"/>
      <point x="386" y="0" type="line"/>
      <point x="533" y="0" type="line"/>
      <point x="533" y="229" type="line" smooth="yes"/>
      <point x="533" y="322"/>
      <point x="479" y="371"/>
      <point x="389" y="371" type="curve"/>
      <point x="278" y="371"/>
      <point x="230" y="297"/>
      <point x="230" y="189" type="curve"/>
      <point x="230" y="155"/>
      <point x="235" y="116"/>
      <point x="243" y="60" type="curve"/>
      <point x="297" y="127" type="line"/>
      <point x="291" y="124"/>
      <point x="277" y="120"/>
      <point x="265" y="120" type="curve"/>
      <point x="233" y="120"/>
      <point x="217" y="153"/>
      <point x="217" y="196" type="curve"/>
      <point x="217" y="255.413"/>
      <point x="248.133" y="329.4"/>
      <point x="305.008" y="361.891" type="curve"/>
      <point x="244.079" y="442.987" type="line"/>
      <point x="128.869" y="384.785"/>
      <point x="86" y="295.869"/>
      <point x="86" y="197" type="curve"/>
      <point x="86" y="63"/>
      <point x="164" y="-7"/>
    </contour>
    <contour>
      <point x="140" y="179" type="curve"/>
      <point x="140" y="179" type="line"/>
      <point x="199" y="284" type="line"/>
      <point x="174" y="315"/>
      <point x="163" y="347"/>
      <point x="163" y="380" type="curve"/>
      <point x="163" y="471"/>
      <point x="250" y="520"/>
      <point x="340" y="520" type="curve"/>
      <point x="430" y="520"/>
      <point x="520" y="470"/>
      <point x="520" y="375" type="curve"/>
      <point x="520" y="360.177"/>
      <point x="517.854" y="345.569"/>
      <point x="513.961" y="331.374" type="curve"/>
      <point x="657.819" y="284.333" type="line"/>
      <point x="666.719" y="314.376"/>
      <point x="672" y="343.047"/>
      <point x="672" y="377" type="curve"/>
      <point x="672" y="569"/>
      <point x="503" y="666"/>
      <point x="337" y="666" type="curve"/>
      <point x="175" y="666"/>
      <point x="16" y="573"/>
      <point x="16" y="400" type="curve"/>
      <point x="16" y="316"/>
      <point x="54" y="240"/>
    </contour>
  </outline>
</glyph>
<glyph name="ja-oriya.base.REV_BRACKET.141" format="2">
  <advance width="666"/>
  <anchor x="447" y="110" name="bottom"/>
  <anchor x="325" y="658" name="top"/>
  <anchor x="520" y="658" name="topright"/>
  <outline>
    <contour>
      <point x="273" y="72" type="curve"/>
      <point x="273" y="72" type="line"/>
      <point x="301.957" y="72"/>
      <point x="336.11" y="76.331"/>
      <point x="366.91" y="84.138" type="curve"/>
      <point x="360.307" y="126.814"/>
      <point x="354" y="187.614"/>
      <point x="354" y="244" type="curve"/>
      <point x="354" y="266"/>
      <point x="355" y="292"/>
      <point x="368" y="292" type="curve"/>
      <point x="377" y="292"/>
      <point x="377" y="278"/>
      <point x="377" y="263" type="curve"/>
      <point x="377" y="76" type="line"/>
      <point x="517" y="76" type="line"/>
      <point x="517" y="280" type="line" smooth="yes"/>
      <point x="517" y="355"/>
      <point x="471" y="405"/>
      <point x="377" y="405" type="curve"/>
      <point x="262" y="405"/>
      <point x="228" y="334"/>
      <point x="228" y="250" type="curve"/>
      <point x="228" y="211"/>
      <point x="236" y="163"/>
      <point x="248" y="121" type="curve"/>
      <point x="286" y="193" type="line"/>
      <point x="284" y="189"/>
      <point x="271" y="183"/>
      <point x="256" y="183" type="curve"/>
      <point x="225" y="183"/>
      <point x="213" y="211"/>
      <point x="213" y="246" type="curve"/>
      <point x="213" y="299"/>
      <point x="241" y="370"/>
      <point x="292" y="399" type="curve"/>
      <point x="236" y="469" type="line"/>
      <point x="138" y="424"/>
      <point x="86" y="345"/>
      <point x="83" y="252" type="curve"/>
      <point x="79" y="127"/>
      <point x="171" y="72"/>
    </contour>
    <contour>
      <point x="137" y="236" type="curve"/>
      <point x="137" y="236" type="line"/>
      <point x="196" y="328" type="line"/>
      <point x="172" y="355"/>
      <point x="161" y="384"/>
      <point x="161" y="412" type="curve"/>
      <point x="161" y="479"/>
      <point x="226" y="530"/>
      <point x="329" y="530" type="curve"/>
      <point x="428" y="530"/>
      <point x="500" y="482"/>
      <point x="500" y="407" type="curve"/>
      <point x="500" y="395.887"/>
      <point x="498.222" y="383.786"/>
      <point x="495.543" y="370.696" type="curve"/>
      <point x="637.335" y="327.829" type="line"/>
      <point x="645.357" y="355.011"/>
      <point x="650" y="380.38"/>
      <point x="650" y="409" type="curve"/>
      <point x="650" y="580"/>
      <point x="488" y="666"/>
      <point x="327" y="666" type="curve"/>
      <point x="169" y="666"/>
      <point x="16" y="584"/>
      <point x="16" y="431" type="curve"/>
      <point x="16" y="357"/>
      <point x="52" y="290"/>
    </contour>
  </outline>
</glyph>
<glyph name="ja_ja-oriya" format="2">
  <advance width="666"/>
  <note>
jajaorya
</note>
  <guideline x="517" y="177" angle="90"/>
  <guideline x="577" y="173" angle="90"/>
  <anchor x="325" y="658" name="top"/>
  <anchor x="520" y="658" name="topright"/>
  <outline>
    <contour>
      <point x="137" y="236" type="curve"/>
      <point x="196" y="328" type="line"/>
      <point x="172" y="355"/>
      <point x="161" y="384"/>
      <point x="161" y="412" type="curve" smooth="yes"/>
      <point x="161" y="479"/>
      <point x="226" y="530"/>
      <point x="329" y="530" type="curve" smooth="yes"/>
      <point x="428" y="530"/>
      <point x="500" y="482"/>
      <point x="500" y="407" type="curve" smooth="yes"/>
      <point x="500" y="382"/>
      <point x="491" y="352"/>
      <point x="483" y="317" type="curve"/>
      <point x="435" y="389" type="line"/>
      <point x="693" y="311" type="line"/>
      <point x="624" y="288" type="line"/>
      <point x="640" y="332"/>
      <point x="650" y="367"/>
      <point x="650" y="409" type="curve" smooth="yes"/>
      <point x="650" y="580"/>
      <point x="488" y="666"/>
      <point x="327" y="666" type="curve" smooth="yes"/>
      <point x="169" y="666"/>
      <point x="16" y="584"/>
      <point x="16" y="431" type="curve" smooth="yes"/>
      <point x="16" y="357"/>
      <point x="52" y="290"/>
    </contour>
    <contour>
      <point x="371" y="-168" type="curve" smooth="yes"/>
      <point x="408" y="-168"/>
      <point x="460" y="-159"/>
      <point x="495" y="-146" type="curve"/>
      <point x="466" y="-182" type="line"/>
      <point x="458" y="-150"/>
      <point x="447" y="-86"/>
      <point x="447" y="-19" type="curve" smooth="yes"/>
      <point x="447" y="10"/>
      <point x="449" y="32"/>
      <point x="463" y="32" type="curve" smooth="yes"/>
      <point x="475" y="32"/>
      <point x="475" y="14"/>
      <point x="475" y="-4" type="curve" smooth="yes"/>
      <point x="475" y="-164" type="line"/>
      <point x="583" y="-164" type="line"/>
      <point x="583" y="9" type="line" smooth="yes"/>
      <point x="583" y="75"/>
      <point x="538" y="116"/>
      <point x="462" y="116" type="curve" smooth="yes"/>
      <point x="371" y="116"/>
      <point x="339" y="57"/>
      <point x="339" y="-17" type="curve" smooth="yes"/>
      <point x="339" y="-48"/>
      <point x="345" y="-89"/>
      <point x="358" y="-123" type="curve"/>
      <point x="386" y="-75" type="line"/>
      <point x="376" y="-82"/>
      <point x="366" y="-85"/>
      <point x="357" y="-85" type="curve" smooth="yes"/>
      <point x="331" y="-85"/>
      <point x="314" y="-54"/>
      <point x="314" y="-19" type="curve" smooth="yes"/>
      <point x="314" y="20"/>
      <point x="336" y="56"/>
      <point x="365" y="84" type="curve"/>
      <point x="274" y="115" type="line"/>
      <point x="234" y="75"/>
      <point x="205" y="25"/>
      <point x="205" y="-28" type="curve" smooth="yes"/>
      <point x="205" y="-111"/>
      <point x="278" y="-168"/>
    </contour>
    <contour>
      <point x="271" y="72" type="curve" smooth="yes"/>
      <point x="318" y="72"/>
      <point x="373" y="82"/>
      <point x="411" y="99" type="curve"/>
      <point x="370" y="55" type="line"/>
      <point x="362" y="95"/>
      <point x="352" y="173"/>
      <point x="352" y="243" type="curve" smooth="yes"/>
      <point x="352" y="265"/>
      <point x="353" y="292"/>
      <point x="367" y="292" type="curve" smooth="yes"/>
      <point x="377" y="292"/>
      <point x="377" y="279"/>
      <point x="377" y="263" type="curve" smooth="yes"/>
      <point x="377" y="76" type="line"/>
      <point x="517" y="76" type="line"/>
      <point x="517" y="280" type="line" smooth="yes"/>
      <point x="517" y="355"/>
      <point x="471" y="405"/>
      <point x="380" y="405" type="curve" smooth="yes"/>
      <point x="270" y="405"/>
      <point x="236" y="334"/>
      <point x="236" y="250" type="curve" smooth="yes"/>
      <point x="236" y="211"/>
      <point x="244" y="163"/>
      <point x="256" y="121" type="curve"/>
      <point x="286" y="193" type="line"/>
      <point x="284" y="189"/>
      <point x="272" y="183"/>
      <point x="254" y="183" type="curve" smooth="yes"/>
      <point x="227" y="183"/>
      <point x="212" y="210"/>
      <point x="208" y="247" type="curve" smooth="yes"/>
      <point x="203" y="298"/>
      <point x="237" y="359"/>
      <point x="292" y="399" type="curve"/>
      <point x="236" y="469" type="line"/>
      <point x="134" y="422"/>
      <point x="87" y="344"/>
      <point x="83" y="252" type="curve" smooth="yes"/>
      <point x="78" y="129"/>
      <point x="171" y="72"/>
    </contour>
  </outline>
</glyph>
<glyph name="ja_ra-oriya.REV_BRACKET.141" format="2">
  <advance width="688"/>
  <guideline x="60" y="128" angle="90"/>
  <anchor x="337" y="658" name="top"/>
  <anchor x="542" y="658" name="topright"/>
  <outline>
    <contour>
      <point x="140" y="179" type="curve"/>
      <point x="199" y="284" type="line"/>
      <point x="174" y="315"/>
      <point x="163" y="347"/>
      <point x="163" y="380" type="curve" smooth="yes"/>
      <point x="163" y="471"/>
      <point x="250" y="520"/>
      <point x="340" y="520" type="curve" smooth="yes"/>
      <point x="430" y="520"/>
      <point x="520" y="470"/>
      <point x="520" y="375" type="curve" smooth="yes"/>
      <point x="520" y="343"/>
      <point x="510" y="312"/>
      <point x="494" y="284" type="curve"/>
      <point x="457" y="350" type="line"/>
      <point x="720" y="264" type="line"/>
      <point x="644" y="243" type="line"/>
      <point x="661" y="290"/>
      <point x="672" y="328"/>
      <point x="672" y="377" type="curve" smooth="yes"/>
      <point x="672" y="569"/>
      <point x="503" y="666"/>
      <point x="337" y="666" type="curve" smooth="yes"/>
      <point x="175" y="666"/>
      <point x="16" y="573"/>
      <point x="16" y="400" type="curve" smooth="yes"/>
      <point x="16" y="316"/>
      <point x="54" y="240"/>
    </contour>
    <contour>
      <point x="94" y="-200" type="line"/>
      <point x="533" y="-200" type="line"/>
      <point x="533" y="229" type="line" smooth="yes"/>
      <point x="533" y="322"/>
      <point x="479" y="371"/>
      <point x="389" y="371" type="curve" smooth="yes"/>
      <point x="278" y="371"/>
      <point x="230" y="297"/>
      <point x="230" y="189" type="curve" smooth="yes"/>
      <point x="230" y="155"/>
      <point x="235" y="116"/>
      <point x="243" y="60" type="curve"/>
      <point x="297" y="127" type="line"/>
      <point x="291" y="124"/>
      <point x="277" y="120"/>
      <point x="265" y="120" type="curve" smooth="yes"/>
      <point x="233" y="120"/>
      <point x="217" y="153"/>
      <point x="217" y="196" type="curve" smooth="yes"/>
      <point x="217" y="269"/>
      <point x="264" y="364"/>
      <point x="348" y="377" type="curve"/>
      <point x="347" y="306" type="line"/>
      <point x="205" y="495" type="line"/>
      <point x="298" y="466" type="line"/>
      <point x="142" y="410"/>
      <point x="86" y="310"/>
      <point x="86" y="197" type="curve" smooth="yes"/>
      <point x="86" y="63"/>
      <point x="164" y="-7"/>
      <point x="278" y="-7" type="curve" smooth="yes"/>
      <point x="325" y="-7"/>
      <point x="380" y="5"/>
      <point x="438" y="29" type="curve"/>
      <point x="377" y="-12" type="line"/>
      <point x="368" y="28"/>
      <point x="360" y="128"/>
      <point x="360" y="186" type="curve" smooth="yes"/>
      <point x="360" y="231"/>
      <point x="365" y="242"/>
      <point x="375" y="242" type="curve" smooth="yes"/>
      <point x="386" y="242"/>
      <point x="386" y="228"/>
      <point x="386" y="208" type="curve" smooth="yes"/>
      <point x="386" y="-70" type="line"/>
      <point x="94" y="-70" type="line"/>
    </contour>
  </outline>
</glyph>
<glyph name="jha-oriya.below" format="2">
  <note>
jhasubscriptorya
</note>
  <guideline x="175" y="155" angle="90"/>
  <anchor x="152" y="110" name="_bottom"/>
  <outline>
    <contour>
      <point x="88" y="-144" type="curve"/>
      <point x="129" y="-88" type="line"/>
      <point x="114" y="-75"/>
      <point x="106" y="-58"/>
      <point x="106" y="-38" type="curve" smooth="yes"/>
      <point x="106" y="-4"/>
      <point x="122" y="36"/>
      <point x="179" y="36" type="curve" smooth="yes"/>
      <point x="186" y="36"/>
      <point x="192" y="36"/>
      <point x="199" y="36" type="curve"/>
      <point x="181" y="116" type="line"/>
      <point x="178" y="116"/>
      <point x="175" y="116"/>
      <point x="164" y="116" type="curve" smooth="yes"/>
      <point x="73" y="116"/>
      <point x="6" y="62"/>
      <point x="6" y="-19" type="curve" smooth="yes"/>
      <point x="6" y="-70"/>
      <point x="32" y="-117"/>
    </contour>
    <contour>
      <point x="287" y="-264" type="line"/>
      <point x="337" y="-144" type="line"/>
      <point x="340" y="-163" type="line"/>
      <point x="217" y="-119" type="line"/>
      <point x="185" y="-194" type="line"/>
      <point x="304" y="-254" type="line"/>
    </contour>
    <contour>
      <point x="247" y="-53" type="curve" smooth="yes"/>
      <point x="310" y="-53"/>
      <point x="344" y="-13"/>
      <point x="344" y="34" type="curve" smooth="yes"/>
      <point x="344" y="79"/>
      <point x="313" y="130"/>
      <point x="252" y="160" type="curve"/>
      <point x="364" y="155" type="line"/>
      <point x="248" y="69" type="line"/>
      <point x="249" y="90" type="line"/>
      <point x="259" y="80"/>
      <point x="264" y="62"/>
      <point x="264" y="47" type="curve" smooth="yes"/>
      <point x="264" y="33"/>
      <point x="259" y="21"/>
      <point x="247" y="21" type="curve" smooth="yes"/>
      <point x="235" y="21"/>
      <point x="230" y="34"/>
      <point x="230" y="48" type="curve" smooth="yes"/>
      <point x="230" y="58"/>
      <point x="233" y="69"/>
      <point x="236" y="76" type="curve"/>
      <point x="181" y="116" type="line"/>
      <point x="159" y="89"/>
      <point x="150" y="63"/>
      <point x="150" y="36" type="curve" smooth="yes"/>
      <point x="150" y="-20"/>
      <point x="190" y="-53"/>
    </contour>
    <contour>
      <point x="153" y="-248" type="curve" smooth="yes"/>
      <point x="214" y="-248"/>
      <point x="250" y="-209"/>
      <point x="250" y="-149" type="curve" smooth="yes"/>
      <point x="250" y="-87"/>
      <point x="214" y="-48"/>
      <point x="153" y="-48" type="curve" smooth="yes"/>
      <point x="93" y="-48"/>
      <point x="56" y="-86"/>
      <point x="56" y="-148" type="curve" smooth="yes"/>
      <point x="56" y="-209"/>
      <point x="92" y="-248"/>
    </contour>
    <contour>
      <point x="153" y="-176" type="curve" smooth="yes"/>
      <point x="143" y="-176"/>
      <point x="138" y="-167"/>
      <point x="138" y="-148" type="curve" smooth="yes"/>
      <point x="138" y="-129"/>
      <point x="143" y="-120"/>
      <point x="153" y="-120" type="curve" smooth="yes"/>
      <point x="163" y="-120"/>
      <point x="168" y="-129"/>
      <point x="168" y="-148" type="curve" smooth="yes"/>
      <point x="168" y="-167"/>
      <point x="163" y="-176"/>
    </contour>
  </outline>
</glyph>
<glyph name="ka-oriya.REV_BRACKET.141" format="2">
  <advance width="688"/>
  <note>
kaorya
</note>
  <anchor x="386" y="0" name="bottom"/>
  <anchor x="533" y="0" name="bottom_ra"/>
  <anchor x="533" y="10" name="bottom_ta"/>
  <anchor x="338" y="658" name="top"/>
  <anchor x="542" y="658" name="topright"/>
  <outline>
    <contour>
      <point x="140" y="179" type="curve"/>
      <point x="199" y="284" type="line"/>
      <point x="174" y="315"/>
      <point x="163" y="347"/>
      <point x="163" y="380" type="curve" smooth="yes"/>
      <point x="163" y="471"/>
      <point x="250" y="520"/>
      <point x="340" y="520" type="curve" smooth="yes"/>
      <point x="430" y="520"/>
      <point x="520" y="470"/>
      <point x="520" y="375" type="curve" smooth="yes"/>
      <point x="520" y="343"/>
      <point x="510" y="312"/>
      <point x="494" y="284" type="curve"/>
      <point x="454" y="349" type="line"/>
      <point x="704" y="269" type="line"/>
      <point x="641" y="243" type="line"/>
      <point x="660" y="290"/>
      <point x="672" y="328"/>
      <point x="672" y="378" type="curve" smooth="yes"/>
      <point x="672" y="569"/>
      <point x="503" y="666"/>
      <point x="337" y="666" type="curve" smooth="yes"/>
      <point x="175" y="666"/>
      <point x="16" y="573"/>
      <point x="16" y="400" type="curve" smooth="yes"/>
      <point x="16" y="316"/>
      <point x="54" y="240"/>
    </contour>
    <contour>
      <point x="211" y="56" type="curve" smooth="yes"/>
      <point x="291" y="56"/>
      <point x="337" y="117"/>
      <point x="337" y="213" type="curve" smooth="yes"/>
      <point x="337" y="310"/>
      <point x="291" y="370"/>
      <point x="213" y="370" type="curve" smooth="yes"/>
      <point x="133" y="370"/>
      <point x="86" y="307"/>
      <point x="86" y="211" type="curve" smooth="yes"/>
      <point x="86" y="116"/>
      <point x="132" y="56"/>
    </contour>
    <contour>
      <point x="216" y="181" type="curve" smooth="yes"/>
      <point x="205" y="181"/>
      <point x="200" y="191"/>
      <point x="200" y="213" type="curve" smooth="yes"/>
      <point x="200" y="235"/>
      <point x="205" y="245"/>
      <point x="216" y="245" type="curve" smooth="yes"/>
      <point x="227" y="245"/>
      <point x="232" y="235"/>
      <point x="232" y="213" type="curve" smooth="yes"/>
      <point x="232" y="191"/>
      <point x="227" y="181"/>
    </contour>
    <contour>
      <point x="212" y="0" type="line"/>
      <point x="360" y="0" type="line"/>
      <point x="360" y="217" type="line" smooth="yes"/>
      <point x="360" y="235"/>
      <point x="362" y="242"/>
      <point x="373" y="242" type="curve" smooth="yes"/>
      <point x="384" y="242"/>
      <point x="386" y="235"/>
      <point x="386" y="217" type="curve" smooth="yes"/>
      <point x="386" y="0" type="line"/>
      <point x="533" y="0" type="line"/>
      <point x="533" y="226" type="line" smooth="yes"/>
      <point x="533" y="322"/>
      <point x="479" y="371"/>
      <point x="409" y="371" type="curve" smooth="yes"/>
      <point x="335" y="371"/>
      <point x="270" y="316"/>
      <point x="270" y="205" type="curve"/>
      <point x="223" y="125" type="line"/>
    </contour>
  </outline>
</glyph>
<glyph name="ka_ra-oriya.REV_BRACKET.141" format="2">
  <advance width="688"/>
  <guideline x="77" y="168" angle="90"/>
  <anchor x="338" y="658" name="top"/>
  <anchor x="542" y="658" name="topright"/>
  <outline>
    <contour>
      <point x="140" y="179" type="curve"/>
      <point x="199" y="284" type="line"/>
      <point x="174" y="315"/>
      <point x="163" y="347"/>
      <point x="163" y="380" type="curve" smooth="yes"/>
      <point x="163" y="471"/>
      <point x="250" y="520"/>
      <point x="340" y="520" type="curve" smooth="yes"/>
      <point x="430" y="520"/>
      <point x="520" y="470"/>
      <point x="520" y="375" type="curve" smooth="yes"/>
      <point x="520" y="343"/>
      <point x="510" y="312"/>
      <point x="494" y="284" type="curve"/>
      <point x="454" y="349" type="line"/>
      <point x="704" y="269" type="line"/>
      <point x="641" y="243" type="line"/>
      <point x="660" y="290"/>
      <point x="672" y="328"/>
      <point x="672" y="378" type="curve" smooth="yes"/>
      <point x="672" y="569"/>
      <point x="503" y="666"/>
      <point x="337" y="666" type="curve" smooth="yes"/>
      <point x="175" y="666"/>
      <point x="16" y="573"/>
      <point x="16" y="400" type="curve" smooth="yes"/>
      <point x="16" y="316"/>
      <point x="54" y="240"/>
    </contour>
    <contour>
      <point x="211" y="56" type="curve" smooth="yes"/>
      <point x="291" y="56"/>
      <point x="337" y="117"/>
      <point x="337" y="213" type="curve" smooth="yes"/>
      <point x="337" y="310"/>
      <point x="291" y="370"/>
      <point x="213" y="370" type="curve" smooth="yes"/>
      <point x="133" y="370"/>
      <point x="86" y="307"/>
      <point x="86" y="211" type="curve" smooth="yes"/>
      <point x="86" y="116"/>
      <point x="132" y="56"/>
    </contour>
    <contour>
      <point x="409" y="370" type="curve" smooth="yes"/>
      <point x="335" y="370"/>
      <point x="270" y="315"/>
      <point x="270" y="205" type="curve"/>
      <point x="223" y="125" type="line"/>
      <point x="212" y="0" type="line"/>
      <point x="360" y="0" type="line"/>
      <point x="360" y="217" type="line" smooth="yes"/>
      <point x="360" y="235"/>
      <point x="362" y="242"/>
      <point x="373" y="242" type="curve" smooth="yes"/>
      <point x="384" y="242"/>
      <point x="386" y="235"/>
      <point x="386" y="217" type="curve" smooth="yes"/>
      <point x="386" y="-70" type="line"/>
      <point x="94" y="-70" type="line"/>
      <point x="94" y="-200" type="line"/>
      <point x="533" y="-200" type="line"/>
      <point x="533" y="226" type="line" smooth="yes"/>
      <point x="533" y="321"/>
      <point x="479" y="370"/>
    </contour>
    <contour>
      <point x="216" y="181" type="curve" smooth="yes"/>
      <point x="205" y="181"/>
      <point x="200" y="191"/>
      <point x="200" y="213" type="curve" smooth="yes"/>
      <point x="200" y="235"/>
      <point x="205" y="245"/>
      <point x="216" y="245" type="curve" smooth="yes"/>
      <point x="227" y="245"/>
      <point x="232" y="235"/>
      <point x="232" y="213" type="curve" smooth="yes"/>
      <point x="232" y="191"/>
      <point x="227" y="181"/>
    </contour>
  </outline>
</glyph>
<glyph name="ka_va-oriya" format="2">
  <advance width="711"/>
  <anchor x="325" y="658" name="top"/>
  <anchor x="516" y="658" name="topright"/>
  <outline>
    <contour>
      <point x="137" y="236" type="curve"/>
      <point x="196" y="328" type="line"/>
      <point x="172" y="355"/>
      <point x="161" y="384"/>
      <point x="161" y="412" type="curve" smooth="yes"/>
      <point x="161" y="479"/>
      <point x="225" y="530"/>
      <point x="328" y="530" type="curve" smooth="yes"/>
      <point x="428" y="530"/>
      <point x="500" y="482"/>
      <point x="500" y="407" type="curve" smooth="yes"/>
      <point x="500" y="382"/>
      <point x="491" y="352"/>
      <point x="483" y="317" type="curve"/>
      <point x="434" y="387" type="line"/>
      <point x="695" y="313" type="line"/>
      <point x="620" y="288" type="line"/>
      <point x="636" y="331"/>
      <point x="646" y="367"/>
      <point x="646" y="408" type="curve" smooth="yes"/>
      <point x="646" y="581"/>
      <point x="484" y="666"/>
      <point x="325" y="666" type="curve" smooth="yes"/>
      <point x="169" y="666"/>
      <point x="16" y="584"/>
      <point x="16" y="431" type="curve" smooth="yes"/>
      <point x="16" y="357"/>
      <point x="52" y="290"/>
    </contour>
    <contour>
      <point x="205" y="128" type="curve" smooth="yes"/>
      <point x="282" y="128"/>
      <point x="327" y="182"/>
      <point x="327" y="266" type="curve" smooth="yes"/>
      <point x="327" y="351"/>
      <point x="282" y="405"/>
      <point x="207" y="405" type="curve" smooth="yes"/>
      <point x="129" y="405"/>
      <point x="83" y="348"/>
      <point x="83" y="264" type="curve" smooth="yes"/>
      <point x="83" y="181"/>
      <point x="128" y="128"/>
    </contour>
    <contour>
      <point x="208" y="226" type="curve" smooth="yes"/>
      <point x="194" y="226"/>
      <point x="188" y="239"/>
      <point x="188" y="267" type="curve" smooth="yes"/>
      <point x="188" y="295"/>
      <point x="194" y="307"/>
      <point x="208" y="307" type="curve" smooth="yes"/>
      <point x="221" y="307"/>
      <point x="228" y="296"/>
      <point x="228" y="267" type="curve" smooth="yes"/>
      <point x="228" y="238"/>
      <point x="221" y="226"/>
    </contour>
    <contour>
      <point x="219" y="76" type="line"/>
      <point x="347" y="76" type="line"/>
      <point x="347" y="269" type="line" smooth="yes"/>
      <point x="347" y="284"/>
      <point x="350" y="292"/>
      <point x="359" y="292" type="curve" smooth="yes"/>
      <point x="368" y="292"/>
      <point x="371" y="284"/>
      <point x="371" y="269" type="curve" smooth="yes"/>
      <point x="371" y="76" type="line"/>
      <point x="513" y="76" type="line"/>
      <point x="513" y="278" type="line" smooth="yes"/>
      <point x="513" y="360"/>
      <point x="461" y="405"/>
      <point x="397" y="405" type="curve" smooth="yes"/>
      <point x="327" y="405"/>
      <point x="268" y="356"/>
      <point x="268" y="260" type="curve"/>
      <point x="230" y="189" type="line"/>
    </contour>
    <contour>
      <point x="567" y="-164" type="line"/>
      <point x="697" y="-164" type="line"/>
      <point x="697" y="112" type="line"/>
      <point x="567" y="112" type="line"/>
      <point x="567" y="-62" type="line"/>
      <point x="574" y="-71" type="line"/>
    </contour>
    <contour>
      <point x="513" y="-127" type="curve" smooth="yes"/>
      <point x="558" y="-127"/>
      <point x="599" y="-108"/>
      <point x="630" y="-66" type="curve"/>
      <point x="583" y="12" type="line"/>
      <point x="574" y="-15"/>
      <point x="556" y="-30"/>
      <point x="538" y="-30" type="curve" smooth="yes"/>
      <point x="513" y="-30"/>
      <point x="504" y="-7"/>
      <point x="504" y="21" type="curve" smooth="yes"/>
      <point x="504" y="39"/>
      <point x="508" y="58"/>
      <point x="513" y="76" type="curve"/>
      <point x="401" y="96" type="line"/>
      <point x="392" y="69"/>
      <point x="388" y="43"/>
      <point x="388" y="17" type="curve" smooth="yes"/>
      <point x="388" y="-62"/>
      <point x="430" y="-127"/>
    </contour>
  </outline>
</glyph>
<glyph name="llVocalicMatra-oriya.REV_BRACKET.141" format="2">
  <note>
llvocalicvowelsignorya
</note>
  <anchor x="300" y="0" name="_bottom"/>
  <outline>
    <contour>
      <point x="137" y="-163" type="curve" smooth="yes"/>
      <point x="137" y="-220"/>
      <point x="193" y="-248"/>
      <point x="300" y="-248" type="curve" smooth="yes"/>
      <point x="390" y="-248"/>
      <point x="442" y="-226"/>
      <point x="442" y="-180" type="curve" smooth="yes"/>
      <point x="442" y="-146"/>
      <point x="412" y="-124"/>
      <point x="368" y="-124" type="curve" smooth="yes"/>
      <point x="323" y="-124"/>
      <point x="293" y="-146"/>
      <point x="293" y="-182" type="curve" smooth="yes"/>
      <point x="293" y="-204"/>
      <point x="306" y="-248"/>
      <point x="349" y="-292" type="curve"/>
      <point x="394" y="-255" type="line"/>
      <point x="374" y="-231"/>
      <point x="356" y="-204"/>
      <point x="356" y="-187" type="curve" smooth="yes"/>
      <point x="356" y="-177"/>
      <point x="364" y="-173"/>
      <point x="370" y="-173" type="curve" smooth="yes"/>
      <point x="374" y="-173"/>
      <point x="378" y="-175"/>
      <point x="378" y="-177" type="curve" smooth="yes"/>
      <point x="378" y="-181"/>
      <point x="364" y="-184"/>
      <point x="323" y="-184" type="curve" smooth="yes"/>
      <point x="261" y="-184"/>
      <point x="243" y="-177"/>
      <point x="243" y="-162" type="curve" smooth="yes"/>
      <point x="243" y="-147"/>
      <point x="263" y="-142"/>
      <point x="279" y="-139" type="curve" smooth="yes"/>
      <point x="295" y="-136" type="line" smooth="yes"/>
      <point x="327" y="-130"/>
      <point x="398" y="-116"/>
      <point x="398" y="-62" type="curve" smooth="yes"/>
      <point x="398" y="-16"/>
      <point x="348" y="0"/>
      <point x="301" y="0" type="curve" smooth="yes"/>
      <point x="267" y="0"/>
      <point x="232" y="-8"/>
      <point x="200" y="-20" type="curve"/>
      <point x="216" y="-79" type="line"/>
      <point x="227" y="-75"/>
      <point x="268" y="-64"/>
      <point x="291" y="-64" type="curve" smooth="yes"/>
      <point x="293" y="-64"/>
      <point x="296" y="-64"/>
      <point x="296" y="-66" type="curve" smooth="yes"/>
      <point x="296" y="-68"/>
      <point x="292" y="-69"/>
      <point x="274" y="-72" type="curve" smooth="yes"/>
      <point x="234" y="-79" type="line" smooth="yes"/>
      <point x="172" y="-90"/>
      <point x="137" y="-117"/>
    </contour>
  </outline>
</glyph>
<glyph name="lla_pa-oriya" format="2">
  <advance width="675"/>
  <note>
llapaorya
</note>
  <anchor x="316" y="658" name="top"/>
  <anchor x="517" y="658" name="topright"/>
  <outline>
    <contour>
      <point x="418" y="-244" type="line"/>
      <point x="512" y="-244" type="line"/>
      <point x="512" y="308" type="line" smooth="yes"/>
      <point x="512" y="388"/>
      <point x="466" y="435"/>
      <point x="396" y="435" type="curve" smooth="yes"/>
      <point x="314" y="435"/>
      <point x="275" y="369"/>
      <point x="275" y="257" type="curve"/>
      <point x="339" y="257" type="line"/>
      <point x="339" y="369"/>
      <point x="292" y="435"/>
      <point x="213" y="435" type="curve" smooth="yes"/>
      <point x="135" y="435"/>
      <point x="85" y="366"/>
      <point x="85" y="250" type="curve" smooth="yes"/>
      <point x="85" y="194"/>
      <point x="97" y="117"/>
      <point x="126" y="51" type="curve"/>
      <point x="44" y="105" type="line"/>
      <point x="297" y="147" type="line"/>
      <point x="244" y="75" type="line"/>
      <point x="225" y="131"/>
      <point x="215" y="191"/>
      <point x="215" y="253" type="curve" smooth="yes"/>
      <point x="215" y="300"/>
      <point x="221" y="322"/>
      <point x="234" y="322" type="curve" smooth="yes"/>
      <point x="241" y="322"/>
      <point x="246" y="316"/>
      <point x="246" y="299" type="curve" smooth="yes"/>
      <point x="246" y="150" type="line"/>
      <point x="367" y="150" type="line"/>
      <point x="367" y="299" type="line" smooth="yes"/>
      <point x="367" y="314"/>
      <point x="371" y="322"/>
      <point x="379" y="322" type="curve" smooth="yes"/>
      <point x="388" y="322"/>
      <point x="391" y="314"/>
      <point x="391" y="299" type="curve" smooth="yes"/>
      <point x="391" y="60" type="line"/>
      <point x="418" y="60" type="line"/>
      <point x="418" y="-158" type="line"/>
      <point x="426" y="-210" type="line"/>
    </contour>
    <contour>
      <point x="333" y="-248" type="curve" smooth="yes"/>
      <point x="381" y="-248"/>
      <point x="428" y="-224"/>
      <point x="460" y="-174" type="curve"/>
      <point x="426" y="-97" type="line"/>
      <point x="414" y="-136"/>
      <point x="374" y="-158"/>
      <point x="346" y="-158" type="curve" smooth="yes"/>
      <point x="333" y="-158"/>
      <point x="319" y="-153"/>
      <point x="319" y="-138" type="curve" smooth="yes"/>
      <point x="319" y="-121"/>
      <point x="336" y="-105"/>
      <point x="364" y="-94" type="curve"/>
      <point x="326" y="-15" type="line"/>
      <point x="245" y="-43"/>
      <point x="223" y="-99"/>
      <point x="223" y="-141" type="curve" smooth="yes"/>
      <point x="223" y="-215"/>
      <point x="279" y="-248"/>
    </contour>
    <contour>
      <point x="230" y="-139" type="curve"/>
      <point x="275" y="-82" type="line"/>
      <point x="261" y="-69"/>
      <point x="254" y="-53"/>
      <point x="254" y="-37" type="curve" smooth="yes"/>
      <point x="254" y="-4"/>
      <point x="276" y="26"/>
      <point x="328" y="26" type="curve" smooth="yes"/>
      <point x="381" y="26"/>
      <point x="433" y="-3"/>
      <point x="433" y="-63" type="curve"/>
      <point x="499" y="-63" type="line"/>
      <point x="499" y="55"/>
      <point x="415" y="116"/>
      <point x="318" y="116" type="curve" smooth="yes"/>
      <point x="229" y="116"/>
      <point x="158" y="63"/>
      <point x="158" y="-21" type="curve" smooth="yes"/>
      <point x="158" y="-69"/>
      <point x="181" y="-113"/>
    </contour>
    <contour>
      <point x="137" y="236" type="curve"/>
      <point x="196" y="328" type="line"/>
      <point x="172" y="355"/>
      <point x="161" y="384"/>
      <point x="161" y="414" type="curve" smooth="yes"/>
      <point x="161" y="492"/>
      <point x="244" y="530"/>
      <point x="333" y="530" type="curve" smooth="yes"/>
      <point x="425" y="530"/>
      <point x="512" y="489"/>
      <point x="512" y="407" type="curve" smooth="yes"/>
      <point x="512" y="395"/>
      <point x="510" y="382"/>
      <point x="507" y="368" type="curve"/>
      <point x="648" y="333" type="line"/>
      <point x="655" y="358"/>
      <point x="659" y="382"/>
      <point x="659" y="409" type="curve" smooth="yes"/>
      <point x="659" y="582"/>
      <point x="497" y="666"/>
      <point x="322" y="666" type="curve" smooth="yes"/>
      <point x="121" y="666"/>
      <point x="16" y="553"/>
      <point x="16" y="437" type="curve" smooth="yes"/>
      <point x="16" y="360"/>
      <point x="61" y="281"/>
    </contour>
  </outline>
</glyph>
<glyph name="ma_ma-oriya" format="2">
  <advance width="663"/>
  <note>
mamaorya
</note>
  <guideline x="671" y="371" angle="90"/>
  <guideline x="731" y="367" angle="90"/>
  <guideline x="619" y="196" angle="0"/>
  <anchor x="278" y="658" name="top"/>
  <anchor x="556" y="658" name="topright"/>
  <outline>
    <contour>
      <point x="294" y="-57" type="curve"/>
      <point x="339" y="-2" type="line"/>
      <point x="325" y="11"/>
      <point x="318" y="27"/>
      <point x="318" y="43" type="curve" smooth="yes"/>
      <point x="318" y="76"/>
      <point x="340" y="106"/>
      <point x="392" y="106" type="curve" smooth="yes"/>
      <point x="445" y="106"/>
      <point x="497" y="77"/>
      <point x="497" y="17" type="curve"/>
      <point x="563" y="17" type="line"/>
      <point x="563" y="135"/>
      <point x="479" y="196"/>
      <point x="382" y="196" type="curve" smooth="yes"/>
      <point x="293" y="196"/>
      <point x="222" y="143"/>
      <point x="222" y="59" type="curve" smooth="yes"/>
      <point x="222" y="11"/>
      <point x="245" y="-31"/>
    </contour>
    <contour>
      <point x="317" y="-168" type="curve" smooth="yes"/>
      <point x="344" y="-168"/>
      <point x="368" y="-149"/>
      <point x="368" y="-115" type="curve" smooth="yes"/>
      <point x="368" y="-86"/>
      <point x="351" y="-58"/>
      <point x="315" y="-58" type="curve" smooth="yes"/>
      <point x="280" y="-58"/>
      <point x="269" y="-84"/>
      <point x="269" y="-109" type="curve"/>
      <point x="335" y="-135" type="line"/>
      <point x="335" y="-130"/>
      <point x="334" y="-130"/>
      <point x="334" y="-120" type="curve" smooth="yes"/>
      <point x="334" y="-66"/>
      <point x="367" y="-45"/>
      <point x="471" y="-35" type="curve"/>
      <point x="435" y="-60" type="line"/>
      <point x="409" y="71" type="line"/>
      <point x="455" y="47" type="line"/>
      <point x="309" y="45"/>
      <point x="259" y="-31"/>
      <point x="259" y="-96" type="curve" smooth="yes"/>
      <point x="259" y="-147"/>
      <point x="289" y="-168"/>
    </contour>
    <contour>
      <point x="135" y="255" type="curve"/>
      <point x="197" y="333" type="line"/>
      <point x="172" y="355"/>
      <point x="161" y="385"/>
      <point x="161" y="417" type="curve" smooth="yes"/>
      <point x="161" y="491"/>
      <point x="223" y="530"/>
      <point x="298" y="530" type="curve" smooth="yes"/>
      <point x="372" y="530"/>
      <point x="480" y="493"/>
      <point x="486" y="406" type="curve"/>
      <point x="586" y="406" type="line"/>
      <point x="576" y="614"/>
      <point x="396" y="666"/>
      <point x="278" y="666" type="curve" smooth="yes"/>
      <point x="116" y="666"/>
      <point x="16" y="567"/>
      <point x="16" y="449" type="curve" smooth="yes"/>
      <point x="16" y="377"/>
      <point x="53" y="294"/>
    </contour>
    <contour>
      <point x="153" y="101" type="curve" smooth="yes"/>
      <point x="195" y="101"/>
      <point x="234" y="132"/>
      <point x="234" y="189" type="curve" smooth="yes"/>
      <point x="234" y="237"/>
      <point x="207" y="281"/>
      <point x="152" y="281" type="curve" smooth="yes"/>
      <point x="98" y="281"/>
      <point x="77" y="241"/>
      <point x="77" y="199" type="curve"/>
      <point x="184" y="157" type="line"/>
      <point x="183" y="168"/>
      <point x="182" y="179"/>
      <point x="182" y="189" type="curve" smooth="yes"/>
      <point x="182" y="283"/>
      <point x="254" y="308"/>
      <point x="377" y="317" type="curve"/>
      <point x="364" y="270" type="line"/>
      <point x="324" y="505" type="line"/>
      <point x="377" y="436" type="line"/>
      <point x="133" y="433"/>
      <point x="63" y="308"/>
      <point x="63" y="213" type="curve" smooth="yes"/>
      <point x="63" y="136"/>
      <point x="109" y="101"/>
    </contour>
    <contour>
      <point x="482" y="658" type="line"/>
      <point x="485" y="584" type="line"/>
      <point x="482" y="517" type="line"/>
      <point x="482" y="-164" type="line"/>
      <point x="629" y="-164" type="line"/>
      <point x="629" y="658" type="line"/>
    </contour>
  </outline>
</glyph>
<glyph name="na_ta-oriya" format="2">
  <advance width="619"/>
  <note>
nataorya
</note>
  <anchor x="306" y="658" name="top"/>
  <anchor x="471" y="658" name="topright"/>
  <outline>
    <contour>
      <point x="136" y="254" type="curve"/>
      <point x="200" y="336" type="line"/>
      <point x="174" y="358"/>
      <point x="161" y="388"/>
      <point x="161" y="419" type="curve" smooth="yes"/>
      <point x="161" y="490"/>
      <point x="233" y="530"/>
      <point x="309" y="530" type="curve" smooth="yes"/>
      <point x="386" y="530"/>
      <point x="456" y="493"/>
      <point x="456" y="416" type="curve" smooth="yes"/>
      <point x="456" y="382"/>
      <point x="443" y="342"/>
      <point x="412" y="306" type="curve"/>
      <point x="412" y="383" type="line"/>
      <point x="646" y="312" type="line"/>
      <point x="549" y="264" type="line"/>
      <point x="588" y="309"/>
      <point x="603" y="369"/>
      <point x="603" y="421" type="curve" smooth="yes"/>
      <point x="603" y="584"/>
      <point x="456" y="666"/>
      <point x="306" y="666" type="curve" smooth="yes"/>
      <point x="157" y="666"/>
      <point x="16" y="583"/>
      <point x="16" y="436" type="curve" smooth="yes"/>
      <point x="16" y="361"/>
      <point x="52" y="296"/>
    </contour>
    <contour>
      <point x="274" y="-101" type="curve" smooth="yes"/>
      <point x="427" y="-101"/>
      <point x="530" y="-14"/>
      <point x="530" y="129" type="curve" smooth="yes"/>
      <point x="530" y="224"/>
      <point x="485" y="280"/>
      <point x="408" y="280" type="curve" smooth="yes"/>
      <point x="339" y="280"/>
      <point x="292" y="234"/>
      <point x="292" y="161" type="curve" smooth="yes"/>
      <point x="292" y="81"/>
      <point x="348" y="41"/>
      <point x="405" y="41" type="curve" smooth="yes"/>
      <point x="463" y="41"/>
      <point x="522" y="81"/>
      <point x="522" y="161" type="curve"/>
      <point x="430" y="98" type="line"/>
      <point x="415" y="40"/>
      <point x="363" y="16"/>
      <point x="283" y="16" type="curve" smooth="yes"/>
      <point x="217" y="16"/>
      <point x="134" y="35"/>
      <point x="72" y="77" type="curve"/>
      <point x="130" y="92" type="line"/>
      <point x="51" y="-95" type="line"/>
      <point x="16" y="-19" type="line"/>
      <point x="96" y="-77"/>
      <point x="191" y="-101"/>
    </contour>
    <contour>
      <point x="168" y="81" type="curve" smooth="yes"/>
      <point x="216" y="81"/>
      <point x="250" y="116"/>
      <point x="250" y="168" type="curve" smooth="yes"/>
      <point x="250" y="216"/>
      <point x="220" y="255"/>
      <point x="169" y="255" type="curve" smooth="yes"/>
      <point x="121" y="255"/>
      <point x="104" y="221"/>
      <point x="99" y="197" type="curve"/>
      <point x="189" y="145" type="line"/>
      <point x="186" y="158"/>
      <point x="185" y="171"/>
      <point x="185" y="181" type="curve" smooth="yes"/>
      <point x="185" y="254"/>
      <point x="239" y="292"/>
      <point x="340" y="292" type="curve" smooth="yes"/>
      <point x="349" y="292"/>
      <point x="341" y="292"/>
      <point x="358" y="291" type="curve"/>
      <point x="292" y="333" type="line"/>
      <point x="292" y="161" type="line"/>
      <point x="432" y="260" type="line"/>
      <point x="432" y="406" type="line"/>
      <point x="405" y="412"/>
      <point x="380" y="415"/>
      <point x="352" y="415" type="curve" smooth="yes"/>
      <point x="210" y="415"/>
      <point x="72" y="339"/>
      <point x="72" y="199" type="curve" smooth="yes"/>
      <point x="72" y="118"/>
      <point x="119" y="81"/>
    </contour>
    <contour>
      <point x="411" y="126" type="curve" smooth="yes"/>
      <point x="397" y="126"/>
      <point x="388" y="138"/>
      <point x="388" y="160" type="curve" smooth="yes"/>
      <point x="388" y="182"/>
      <point x="397" y="194"/>
      <point x="411" y="194" type="curve" smooth="yes"/>
      <point x="425" y="194"/>
      <point x="434" y="182"/>
      <point x="434" y="160" type="curve" smooth="yes"/>
      <point x="434" y="138"/>
      <point x="425" y="126"/>
    </contour>
  </outline>
</glyph>
<glyph name="na_ta_ra-oriya" format="2">
  <advance width="619"/>
  <note>
nataraorya
</note>
  <guideline x="432" y="575" angle="90"/>
  <guideline x="72" y="575" angle="90"/>
  <guideline x="432" y="575" angle="90"/>
  <anchor x="306" y="658" name="top"/>
  <anchor x="471" y="658" name="topright"/>
  <outline>
    <contour>
      <point x="422" y="-189" type="line"/>
      <point x="453" y="-135" type="line"/>
      <point x="342" y="-135"/>
      <point x="235" y="-107"/>
      <point x="111" y="-17" type="curve"/>
      <point x="50" y="-107" type="line"/>
      <point x="203" y="-212"/>
      <point x="326" y="-244"/>
      <point x="469" y="-244" type="curve" smooth="yes"/>
      <point x="562" y="-244" type="line"/>
      <point x="562" y="187" type="line"/>
      <point x="538" y="193"/>
      <point x="485" y="196"/>
      <point x="456" y="196" type="curve" smooth="yes"/>
      <point x="295" y="196"/>
      <point x="221" y="75"/>
      <point x="221" y="-2" type="curve" smooth="yes"/>
      <point x="221" y="-52"/>
      <point x="253" y="-97"/>
      <point x="307" y="-97" type="curve" smooth="yes"/>
      <point x="358" y="-97"/>
      <point x="384" y="-57"/>
      <point x="384" y="-17" type="curve" smooth="yes"/>
      <point x="384" y="27"/>
      <point x="353" y="64"/>
      <point x="307" y="64" type="curve" smooth="yes"/>
      <point x="279" y="64"/>
      <point x="258" y="50"/>
      <point x="249" y="31" type="curve"/>
      <point x="321" y="-65" type="line"/>
      <point x="320" y="-59"/>
      <point x="319" y="-53"/>
      <point x="319" y="-45" type="curve" smooth="yes"/>
      <point x="319" y="34"/>
      <point x="398" y="73"/>
      <point x="458" y="73" type="curve" smooth="yes"/>
      <point x="470" y="73"/>
      <point x="482" y="72"/>
      <point x="493" y="69" type="curve"/>
      <point x="422" y="127" type="line"/>
    </contour>
    <contour>
      <point x="72" y="189" type="curve" smooth="yes"/>
      <point x="72" y="108"/>
      <point x="119" y="71"/>
      <point x="168" y="71" type="curve" smooth="yes"/>
      <point x="216" y="71"/>
      <point x="250" y="106"/>
      <point x="250" y="158" type="curve" smooth="yes"/>
      <point x="250" y="206"/>
      <point x="220" y="245"/>
      <point x="169" y="245" type="curve" smooth="yes"/>
      <point x="121" y="245"/>
      <point x="104" y="211"/>
      <point x="99" y="187" type="curve"/>
      <point x="189" y="135" type="line"/>
      <point x="186" y="148"/>
      <point x="185" y="161"/>
      <point x="185" y="171" type="curve" smooth="yes"/>
      <point x="185" y="244"/>
      <point x="239" y="282"/>
      <point x="340" y="282" type="curve" smooth="yes"/>
      <point x="349" y="282"/>
      <point x="341" y="282"/>
      <point x="358" y="281" type="curve"/>
      <point x="292" y="323" type="line"/>
      <point x="292" y="76" type="line"/>
      <point x="432" y="112" type="line"/>
      <point x="432" y="396" type="line"/>
      <point x="405" y="402"/>
      <point x="380" y="405"/>
      <point x="352" y="405" type="curve" smooth="yes"/>
      <point x="210" y="405"/>
      <point x="72" y="329"/>
    </contour>
    <contour>
      <point x="136" y="254" type="curve"/>
      <point x="200" y="336" type="line"/>
      <point x="174" y="358"/>
      <point x="161" y="388"/>
      <point x="161" y="419" type="curve" smooth="yes"/>
      <point x="161" y="490"/>
      <point x="233" y="530"/>
      <point x="309" y="530" type="curve" smooth="yes"/>
      <point x="386" y="530"/>
      <point x="456" y="493"/>
      <point x="456" y="416" type="curve" smooth="yes"/>
      <point x="456" y="382"/>
      <point x="443" y="342"/>
      <point x="412" y="306" type="curve"/>
      <point x="412" y="383" type="line"/>
      <point x="646" y="312" type="line"/>
      <point x="549" y="264" type="line"/>
      <point x="588" y="309"/>
      <point x="603" y="369"/>
      <point x="603" y="421" type="curve" smooth="yes"/>
      <point x="603" y="584"/>
      <point x="456" y="666"/>
      <point x="306" y="666" type="curve" smooth="yes"/>
      <point x="157" y="666"/>
      <point x="16" y="583"/>
      <point x="16" y="436" type="curve" smooth="yes"/>
      <point x="16" y="361"/>
      <point x="52" y="296"/>
    </contour>
  </outline>
</glyph>
<glyph name="na_ta_uMatra-oriya" format="2">
  <advance width="619"/>
  <anchor x="306" y="658" name="top"/>
  <anchor x="471" y="658" name="topright"/>
  <outline>
    <contour>
      <point x="136" y="254" type="curve"/>
      <point x="200" y="336" type="line"/>
      <point x="174" y="358"/>
      <point x="161" y="388"/>
      <point x="161" y="419" type="curve" smooth="yes"/>
      <point x="161" y="490"/>
      <point x="233" y="530"/>
      <point x="309" y="530" type="curve" smooth="yes"/>
      <point x="386" y="530"/>
      <point x="456" y="493"/>
      <point x="456" y="416" type="curve" smooth="yes"/>
      <point x="456" y="382"/>
      <point x="443" y="342"/>
      <point x="412" y="306" type="curve"/>
      <point x="412" y="383" type="line"/>
      <point x="646" y="312" type="line"/>
      <point x="549" y="264" type="line"/>
      <point x="588" y="309"/>
      <point x="603" y="369"/>
      <point x="603" y="421" type="curve" smooth="yes"/>
      <point x="603" y="584"/>
      <point x="456" y="666"/>
      <point x="306" y="666" type="curve" smooth="yes"/>
      <point x="157" y="666"/>
      <point x="16" y="583"/>
      <point x="16" y="436" type="curve" smooth="yes"/>
      <point x="16" y="361"/>
      <point x="52" y="296"/>
    </contour>
    <contour>
      <point x="280" y="-77" type="curve" smooth="yes"/>
      <point x="429" y="-77"/>
      <point x="530" y="8"/>
      <point x="530" y="149" type="curve" smooth="yes"/>
      <point x="530" y="244"/>
      <point x="485" y="300"/>
      <point x="408" y="300" type="curve" smooth="yes"/>
      <point x="339" y="300"/>
      <point x="292" y="254"/>
      <point x="292" y="181" type="curve" smooth="yes"/>
      <point x="292" y="101"/>
      <point x="348" y="61"/>
      <point x="405" y="61" type="curve" smooth="yes"/>
      <point x="463" y="61"/>
      <point x="522" y="101"/>
      <point x="522" y="181" type="curve"/>
      <point x="430" y="118" type="line"/>
      <point x="416" y="63"/>
      <point x="366" y="40"/>
      <point x="289" y="40" type="curve" smooth="yes"/>
      <point x="223" y="40"/>
      <point x="140" y="59"/>
      <point x="78" y="101" type="curve"/>
      <point x="136" y="116" type="line"/>
      <point x="57" y="-71" type="line"/>
      <point x="22" y="5" type="line"/>
      <point x="102" y="-53"/>
      <point x="197" y="-77"/>
    </contour>
    <contour>
      <point x="168" y="101" type="curve" smooth="yes"/>
      <point x="216" y="101"/>
      <point x="250" y="136"/>
      <point x="250" y="188" type="curve" smooth="yes"/>
      <point x="250" y="236"/>
      <point x="220" y="275"/>
      <point x="169" y="275" type="curve" smooth="yes"/>
      <point x="121" y="275"/>
      <point x="104" y="241"/>
      <point x="99" y="217" type="curve"/>
      <point x="189" y="165" type="line"/>
      <point x="186" y="178"/>
      <point x="185" y="191"/>
      <point x="185" y="201" type="curve" smooth="yes"/>
      <point x="185" y="274"/>
      <point x="239" y="312"/>
      <point x="340" y="312" type="curve" smooth="yes"/>
      <point x="349" y="312"/>
      <point x="341" y="312"/>
      <point x="358" y="311" type="curve"/>
      <point x="292" y="353" type="line"/>
      <point x="292" y="181" type="line"/>
      <point x="432" y="280" type="line"/>
      <point x="432" y="426" type="line"/>
      <point x="405" y="432"/>
      <point x="380" y="435"/>
      <point x="352" y="435" type="curve" smooth="yes"/>
      <point x="210" y="435"/>
      <point x="72" y="359"/>
      <point x="72" y="219" type="curve" smooth="yes"/>
      <point x="72" y="138"/>
      <point x="119" y="101"/>
    </contour>
    <contour>
      <point x="411" y="146" type="curve" smooth="yes"/>
      <point x="397" y="146"/>
      <point x="388" y="158"/>
      <point x="388" y="180" type="curve" smooth="yes"/>
      <point x="388" y="202"/>
      <point x="397" y="214"/>
      <point x="411" y="214" type="curve" smooth="yes"/>
      <point x="425" y="214"/>
      <point x="434" y="202"/>
      <point x="434" y="180" type="curve" smooth="yes"/>
      <point x="434" y="158"/>
      <point x="425" y="146"/>
    </contour>
    <contour>
      <point x="220" y="-292" type="curve" smooth="yes"/>
      <point x="300" y="-292"/>
      <point x="392" y="-229"/>
      <point x="392" y="-80" type="curve" smooth="yes"/>
      <point x="392" y="-32" type="line"/>
      <point x="292" y="-64" type="line"/>
      <point x="292" y="-80" type="line" smooth="yes"/>
      <point x="292" y="-180"/>
      <point x="243" y="-210"/>
      <point x="216" y="-210" type="curve" smooth="yes"/>
      <point x="204" y="-210"/>
      <point x="196" y="-204"/>
      <point x="196" y="-196" type="curve" smooth="yes"/>
      <point x="196" y="-185"/>
      <point x="207" y="-178"/>
      <point x="225" y="-178" type="curve" smooth="yes"/>
      <point x="300" y="-178"/>
      <point x="357" y="-292"/>
      <point x="457" y="-292" type="curve" smooth="yes"/>
      <point x="505" y="-292"/>
      <point x="554" y="-266"/>
      <point x="596" y="-217" type="curve"/>
      <point x="519" y="-319" type="line"/>
      <point x="488" y="-179" type="line"/>
      <point x="539" y="-184" type="line"/>
      <point x="510" y="-202"/>
      <point x="490" y="-210"/>
      <point x="462" y="-210" type="curve" smooth="yes"/>
      <point x="364" y="-210"/>
      <point x="323" y="-108"/>
      <point x="219" y="-108" type="curve" smooth="yes"/>
      <point x="156" y="-108"/>
      <point x="114" y="-145"/>
      <point x="114" y="-200" type="curve" smooth="yes"/>
      <point x="114" y="-255"/>
      <point x="156" y="-292"/>
    </contour>
  </outline>
</glyph>
<glyph name="na_ta_va-oriya" format="2">
  <advance width="619"/>
  <anchor x="306" y="658" name="top"/>
  <anchor x="471" y="658" name="topright"/>
  <outline>
    <contour>
      <point x="136" y="254" type="curve"/>
      <point x="200" y="336" type="line"/>
      <point x="174" y="358"/>
      <point x="161" y="388"/>
      <point x="161" y="419" type="curve" smooth="yes"/>
      <point x="161" y="490"/>
      <point x="233" y="530"/>
      <point x="309" y="530" type="curve" smooth="yes"/>
      <point x="386" y="530"/>
      <point x="456" y="493"/>
      <point x="456" y="416" type="curve" smooth="yes"/>
      <point x="456" y="382"/>
      <point x="443" y="342"/>
      <point x="412" y="306" type="curve"/>
      <point x="412" y="383" type="line"/>
      <point x="646" y="312" type="line"/>
      <point x="549" y="264" type="line"/>
      <point x="588" y="309"/>
      <point x="603" y="369"/>
      <point x="603" y="421" type="curve" smooth="yes"/>
      <point x="603" y="584"/>
      <point x="456" y="666"/>
      <point x="306" y="666" type="curve" smooth="yes"/>
      <point x="157" y="666"/>
      <point x="16" y="583"/>
      <point x="16" y="436" type="curve" smooth="yes"/>
      <point x="16" y="361"/>
      <point x="52" y="296"/>
    </contour>
    <contour>
      <point x="395" y="-255" type="curve" smooth="yes"/>
      <point x="440" y="-255"/>
      <point x="481" y="-236"/>
      <point x="512" y="-194" type="curve"/>
      <point x="465" y="-116" type="line"/>
      <point x="456" y="-143"/>
      <point x="438" y="-158"/>
      <point x="420" y="-158" type="curve" smooth="yes"/>
      <point x="397" y="-158"/>
      <point x="386" y="-138"/>
      <point x="386" y="-109" type="curve" smooth="yes"/>
      <point x="386" y="-72"/>
      <point x="398" y="-20"/>
      <point x="423" y="26" type="curve"/>
      <point x="453" y="-51" type="line"/>
      <point x="277" y="-26" type="line"/>
      <point x="298" y="11" type="line"/>
      <point x="279" y="-29"/>
      <point x="270" y="-70"/>
      <point x="270" y="-109" type="curve" smooth="yes"/>
      <point x="270" y="-188"/>
      <point x="312" y="-255"/>
    </contour>
    <contour>
      <point x="449" y="-292" type="line"/>
      <point x="579" y="-292" type="line"/>
      <point x="579" y="-51" type="line"/>
      <point x="449" y="-51" type="line"/>
      <point x="449" y="-190" type="line"/>
      <point x="456" y="-199" type="line"/>
    </contour>
    <contour>
      <point x="274" y="-86" type="curve" smooth="yes"/>
      <point x="427" y="-86"/>
      <point x="530" y="1"/>
      <point x="530" y="144" type="curve" smooth="yes"/>
      <point x="530" y="239"/>
      <point x="485" y="295"/>
      <point x="408" y="295" type="curve" smooth="yes"/>
      <point x="339" y="295"/>
      <point x="292" y="249"/>
      <point x="292" y="176" type="curve" smooth="yes"/>
      <point x="292" y="96"/>
      <point x="348" y="56"/>
      <point x="405" y="56" type="curve" smooth="yes"/>
      <point x="463" y="56"/>
      <point x="522" y="96"/>
      <point x="522" y="176" type="curve"/>
      <point x="430" y="113" type="line"/>
      <point x="415" y="55"/>
      <point x="363" y="31"/>
      <point x="283" y="31" type="curve" smooth="yes"/>
      <point x="217" y="31"/>
      <point x="134" y="50"/>
      <point x="72" y="92" type="curve"/>
      <point x="130" y="107" type="line"/>
      <point x="51" y="-80" type="line"/>
      <point x="16" y="-4" type="line"/>
      <point x="96" y="-62"/>
      <point x="191" y="-86"/>
    </contour>
    <contour>
      <point x="168" y="81" type="curve" smooth="yes"/>
      <point x="216" y="81"/>
      <point x="250" y="116"/>
      <point x="250" y="168" type="curve" smooth="yes"/>
      <point x="250" y="216"/>
      <point x="220" y="255"/>
      <point x="169" y="255" type="curve" smooth="yes"/>
      <point x="121" y="255"/>
      <point x="104" y="221"/>
      <point x="99" y="197" type="curve"/>
      <point x="189" y="145" type="line"/>
      <point x="186" y="158"/>
      <point x="185" y="171"/>
      <point x="185" y="181" type="curve" smooth="yes"/>
      <point x="185" y="254"/>
      <point x="239" y="292"/>
      <point x="340" y="292" type="curve" smooth="yes"/>
      <point x="349" y="292"/>
      <point x="341" y="292"/>
      <point x="358" y="291" type="curve"/>
      <point x="292" y="333" type="line"/>
      <point x="292" y="176" type="line"/>
      <point x="432" y="270" type="line"/>
      <point x="432" y="406" type="line"/>
      <point x="405" y="412"/>
      <point x="380" y="415"/>
      <point x="352" y="415" type="curve" smooth="yes"/>
      <point x="210" y="415"/>
      <point x="72" y="339"/>
      <point x="72" y="199" type="curve" smooth="yes"/>
      <point x="72" y="118"/>
      <point x="119" y="81"/>
    </contour>
    <contour>
      <point x="411" y="141" type="curve" smooth="yes"/>
      <point x="397" y="141"/>
      <point x="388" y="153"/>
      <point x="388" y="175" type="curve" smooth="yes"/>
      <point x="388" y="197"/>
      <point x="397" y="209"/>
      <point x="411" y="209" type="curve" smooth="yes"/>
      <point x="425" y="209"/>
      <point x="434" y="197"/>
      <point x="434" y="175" type="curve" smooth="yes"/>
      <point x="434" y="153"/>
      <point x="425" y="141"/>
    </contour>
  </outline>
</glyph>
<glyph name="nine-oriya.REV_BRACKET.141" format="2">
  <advance width="490"/>
  <note>
nineorya
</note>
  <outline>
    <contour>
      <point x="466" y="314" type="line"/>
      <point x="466" y="658" type="line"/>
      <point x="320" y="658" type="line"/>
      <point x="320" y="613" type="line" smooth="yes"/>
      <point x="320" y="571"/>
      <point x="320" y="548"/>
      <point x="323" y="524" type="curve"/>
      <point x="231" y="666" type="line"/>
      <point x="85" y="585"/>
      <point x="18" y="470"/>
      <point x="18" y="325" type="curve" smooth="yes"/>
      <point x="18" y="118"/>
      <point x="154" y="-3"/>
      <point x="336" y="-8" type="curve"/>
      <point x="345" y="138" type="line"/>
      <point x="228" y="148"/>
      <point x="170" y="216"/>
      <point x="170" y="323" type="curve" smooth="yes"/>
      <point x="170" y="412"/>
      <point x="206" y="473"/>
      <point x="277" y="521" type="curve"/>
      <point x="121" y="545" type="line"/>
      <point x="315" y="286" type="line"/>
    </contour>
  </outline>
</glyph>
<glyph name="nna_dda-oriya" format="2">
  <advance width="677"/>
  <note>
nnaddaorya
</note>
  <guideline x="611" y="177" angle="90"/>
  <guideline x="671" y="173" angle="90"/>
  <anchor x="284" y="658" name="top"/>
  <anchor x="538" y="658" name="topright"/>
  <outline>
    <contour>
      <point x="245" y="-8" type="curve" smooth="yes"/>
      <point x="341" y="-8"/>
      <point x="430" y="47"/>
      <point x="430" y="149" type="curve" smooth="yes"/>
      <point x="430" y="247"/>
      <point x="348" y="295"/>
      <point x="249" y="295" type="curve" smooth="yes"/>
      <point x="211" y="295"/>
      <point x="177" y="288"/>
      <point x="142" y="274" type="curve"/>
      <point x="151" y="171" type="line"/>
      <point x="171" y="176"/>
      <point x="195" y="180"/>
      <point x="217" y="180" type="curve" smooth="yes"/>
      <point x="251" y="180"/>
      <point x="280" y="171"/>
      <point x="280" y="145" type="curve" smooth="yes"/>
      <point x="280" y="132"/>
      <point x="267" y="120"/>
      <point x="243" y="120" type="curve" smooth="yes"/>
      <point x="210" y="120"/>
      <point x="166" y="141"/>
      <point x="166" y="229" type="curve" smooth="yes"/>
      <point x="166" y="321"/>
      <point x="214" y="346"/>
      <point x="261" y="346" type="curve" smooth="yes"/>
      <point x="298" y="346"/>
      <point x="339" y="331"/>
      <point x="363" y="315" type="curve"/>
      <point x="314" y="288" type="line"/>
      <point x="386" y="470" type="line"/>
      <point x="400" y="430" type="line"/>
      <point x="339" y="460"/>
      <point x="282" y="474"/>
      <point x="233" y="474" type="curve" smooth="yes"/>
      <point x="103" y="474"/>
      <point x="16" y="373"/>
      <point x="16" y="231" type="curve" smooth="yes"/>
      <point x="16" y="65"/>
      <point x="135" y="-8"/>
    </contour>
    <contour>
      <point x="415" y="-204" type="curve" smooth="yes"/>
      <point x="568" y="-204"/>
      <point x="671" y="-117"/>
      <point x="671" y="26" type="curve" smooth="yes"/>
      <point x="671" y="121"/>
      <point x="626" y="177"/>
      <point x="549" y="177" type="curve" smooth="yes"/>
      <point x="480" y="177"/>
      <point x="433" y="131"/>
      <point x="433" y="58" type="curve" smooth="yes"/>
      <point x="433" y="-22"/>
      <point x="489" y="-62"/>
      <point x="546" y="-62" type="curve" smooth="yes"/>
      <point x="604" y="-62"/>
      <point x="663" y="-22"/>
      <point x="663" y="58" type="curve"/>
      <point x="571" y="-5" type="line"/>
      <point x="556" y="-63"/>
      <point x="504" y="-87"/>
      <point x="424" y="-87" type="curve" smooth="yes"/>
      <point x="358" y="-87"/>
      <point x="275" y="-68"/>
      <point x="213" y="-26" type="curve"/>
      <point x="271" y="-11" type="line"/>
      <point x="192" y="-198" type="line"/>
      <point x="157" y="-122" type="line"/>
      <point x="237" y="-180"/>
      <point x="332" y="-204"/>
    </contour>
    <contour>
      <point x="552" y="23" type="curve" smooth="yes"/>
      <point x="538" y="23"/>
      <point x="529" y="35"/>
      <point x="529" y="57" type="curve" smooth="yes"/>
      <point x="529" y="79"/>
      <point x="538" y="91"/>
      <point x="552" y="91" type="curve" smooth="yes"/>
      <point x="566" y="91"/>
      <point x="575" y="79"/>
      <point x="575" y="57" type="curve" smooth="yes"/>
      <point x="575" y="35"/>
      <point x="566" y="23"/>
    </contour>
    <contour>
      <point x="484" y="372" type="curve"/>
      <point x="589" y="371" type="line"/>
      <point x="589" y="565"/>
      <point x="437" y="666"/>
      <point x="309" y="666" type="curve" smooth="yes"/>
      <point x="215" y="666"/>
      <point x="134" y="612"/>
      <point x="134" y="501" type="curve" smooth="yes"/>
      <point x="134" y="473"/>
      <point x="140" y="442"/>
      <point x="153" y="409" type="curve"/>
      <point x="294" y="391" type="line"/>
      <point x="276" y="420"/>
      <point x="268" y="460"/>
      <point x="268" y="479" type="curve" smooth="yes"/>
      <point x="268" y="518"/>
      <point x="297" y="538"/>
      <point x="333" y="538" type="curve" smooth="yes"/>
      <point x="397" y="538"/>
      <point x="484" y="481"/>
    </contour>
    <contour>
      <point x="464" y="116" type="line"/>
      <point x="611" y="116" type="line"/>
      <point x="611" y="658" type="line"/>
      <point x="464" y="658" type="line"/>
      <point x="472" y="572" type="line"/>
      <point x="464" y="499" type="line"/>
    </contour>
  </outline>
</glyph>
<glyph name="one-oriya.REV_BRACKET.141" format="2">
  <advance width="490"/>
  <note>
oneorya
</note>
  <outline>
    <contour>
      <point x="382" y="-8" type="curve"/>
      <point x="416" y="138" type="line"/>
      <point x="235" y="168"/>
      <point x="188" y="275"/>
      <point x="188" y="385" type="curve" smooth="yes"/>
      <point x="188" y="473"/>
      <point x="225" y="508"/>
      <point x="263" y="508" type="curve" smooth="yes"/>
      <point x="295" y="508"/>
      <point x="313" y="484"/>
      <point x="313" y="455" type="curve" smooth="yes"/>
      <point x="313" y="424"/>
      <point x="294" y="393"/>
      <point x="246" y="393" type="curve" smooth="yes"/>
      <point x="216" y="393"/>
      <point x="185" y="406"/>
      <point x="156" y="430" type="curve"/>
      <point x="162" y="273" type="line"/>
      <point x="193" y="251"/>
      <point x="226" y="241"/>
      <point x="267" y="241" type="curve" smooth="yes"/>
      <point x="394" y="241"/>
      <point x="465" y="340"/>
      <point x="465" y="465" type="curve" smooth="yes"/>
      <point x="465" y="598"/>
      <point x="377" y="666"/>
      <point x="274" y="666" type="curve" smooth="yes"/>
      <point x="156" y="666"/>
      <point x="38" y="576"/>
      <point x="38" y="374" type="curve" smooth="yes"/>
      <point x="38" y="177"/>
      <point x="151" y="37"/>
    </contour>
  </outline>
</glyph>
<glyph name="pa_pa-oriya" format="2">
  <advance width="629"/>
  <note>
papaorya
</note>
  <anchor x="306" y="658" name="top"/>
  <anchor x="522" y="658" name="topright"/>
  <outline>
    <contour>
      <point x="135" y="255" type="curve"/>
      <point x="197" y="333" type="line"/>
      <point x="174" y="355"/>
      <point x="161" y="385"/>
      <point x="161" y="418" type="curve" smooth="yes"/>
      <point x="161" y="496"/>
      <point x="230" y="530"/>
      <point x="295" y="530" type="curve" smooth="yes"/>
      <point x="365" y="530"/>
      <point x="458" y="490"/>
      <point x="458" y="406" type="curve"/>
      <point x="566" y="406" type="line"/>
      <point x="566" y="581"/>
      <point x="422" y="666"/>
      <point x="281" y="666" type="curve" smooth="yes"/>
      <point x="147" y="666"/>
      <point x="16" y="593"/>
      <point x="16" y="451" type="curve" smooth="yes"/>
      <point x="16" y="377"/>
      <point x="53" y="296"/>
    </contour>
    <contour>
      <point x="416" y="-168" type="curve" smooth="yes"/>
      <point x="464" y="-168"/>
      <point x="511" y="-144"/>
      <point x="543" y="-94" type="curve"/>
      <point x="509" y="-17" type="line"/>
      <point x="497" y="-56"/>
      <point x="457" y="-78"/>
      <point x="429" y="-78" type="curve" smooth="yes"/>
      <point x="416" y="-78"/>
      <point x="402" y="-73"/>
      <point x="402" y="-58" type="curve" smooth="yes"/>
      <point x="402" y="-41"/>
      <point x="419" y="-25"/>
      <point x="447" y="-14" type="curve"/>
      <point x="409" y="65" type="line"/>
      <point x="328" y="37"/>
      <point x="306" y="-19"/>
      <point x="306" y="-61" type="curve" smooth="yes"/>
      <point x="306" y="-135"/>
      <point x="362" y="-168"/>
    </contour>
    <contour>
      <point x="313" y="-59" type="curve"/>
      <point x="358" y="-2" type="line"/>
      <point x="344" y="11"/>
      <point x="337" y="27"/>
      <point x="337" y="43" type="curve" smooth="yes"/>
      <point x="337" y="76"/>
      <point x="359" y="106"/>
      <point x="411" y="106" type="curve" smooth="yes"/>
      <point x="464" y="106"/>
      <point x="516" y="77"/>
      <point x="516" y="17" type="curve"/>
      <point x="582" y="17" type="line"/>
      <point x="582" y="135"/>
      <point x="498" y="196"/>
      <point x="401" y="196" type="curve" smooth="yes"/>
      <point x="312" y="196"/>
      <point x="241" y="143"/>
      <point x="241" y="59" type="curve" smooth="yes"/>
      <point x="241" y="11"/>
      <point x="264" y="-33"/>
    </contour>
    <contour>
      <point x="317" y="66" type="curve"/>
      <point x="374" y="187" type="line"/>
      <point x="299" y="185"/>
      <point x="262" y="216"/>
      <point x="262" y="251" type="curve" smooth="yes"/>
      <point x="262" y="289"/>
      <point x="304" y="331"/>
      <point x="389" y="344" type="curve"/>
      <point x="370" y="291" type="line"/>
      <point x="284" y="467" type="line"/>
      <point x="358" y="463" type="line"/>
      <point x="193" y="438"/>
      <point x="122" y="337"/>
      <point x="122" y="239" type="curve" smooth="yes"/>
      <point x="122" y="138"/>
      <point x="189" y="66"/>
    </contour>
    <contour>
      <point x="501" y="-164" type="line"/>
      <point x="595" y="-164" type="line"/>
      <point x="595" y="658" type="line"/>
      <point x="448" y="658" type="line"/>
      <point x="456" y="584" type="line"/>
      <point x="448" y="517" type="line"/>
      <point x="448" y="120" type="line"/>
      <point x="501" y="105" type="line"/>
      <point x="501" y="-78" type="line"/>
      <point x="509" y="-130" type="line"/>
    </contour>
  </outline>
</glyph>
<glyph name="pa_sa-oriya" format="2">
  <advance width="629"/>
  <note>
pasaorya
</note>
  <anchor x="306" y="658" name="top"/>
  <anchor x="522" y="658" name="topright"/>
  <outline>
    <contour>
      <point x="135" y="255" type="curve"/>
      <point x="197" y="333" type="line"/>
      <point x="174" y="355"/>
      <point x="161" y="385"/>
      <point x="161" y="418" type="curve" smooth="yes"/>
      <point x="161" y="496"/>
      <point x="230" y="530"/>
      <point x="295" y="530" type="curve" smooth="yes"/>
      <point x="365" y="530"/>
      <point x="458" y="490"/>
      <point x="458" y="406" type="curve"/>
      <point x="566" y="406" type="line"/>
      <point x="566" y="581"/>
      <point x="422" y="666"/>
      <point x="281" y="666" type="curve" smooth="yes"/>
      <point x="147" y="666"/>
      <point x="16" y="593"/>
      <point x="16" y="451" type="curve" smooth="yes"/>
      <point x="16" y="377"/>
      <point x="53" y="296"/>
    </contour>
    <contour>
      <point x="122" y="239" type="curve" smooth="yes"/>
      <point x="122" y="138"/>
      <point x="189" y="66"/>
      <point x="317" y="66" type="curve"/>
      <point x="374" y="187" type="line"/>
      <point x="299" y="185"/>
      <point x="262" y="216"/>
      <point x="262" y="251" type="curve" smooth="yes"/>
      <point x="262" y="289"/>
      <point x="304" y="331"/>
      <point x="389" y="344" type="curve"/>
      <point x="370" y="291" type="line"/>
      <point x="284" y="467" type="line"/>
      <point x="358" y="463" type="line"/>
      <point x="193" y="438"/>
      <point x="122" y="337"/>
    </contour>
    <contour>
      <point x="333" y="-55" type="curve"/>
      <point x="378" y="2" type="line"/>
      <point x="361" y="17"/>
      <point x="353" y="35"/>
      <point x="353" y="54" type="curve" smooth="yes"/>
      <point x="353" y="91"/>
      <point x="386" y="110"/>
      <point x="424" y="110" type="curve" smooth="yes"/>
      <point x="476" y="110"/>
      <point x="516" y="76"/>
      <point x="516" y="21" type="curve"/>
      <point x="582" y="21" type="line"/>
      <point x="582" y="156"/>
      <point x="485" y="200"/>
      <point x="408" y="200" type="curve" smooth="yes"/>
      <point x="321" y="200"/>
      <point x="262" y="144"/>
      <point x="262" y="66" type="curve" smooth="yes"/>
      <point x="262" y="19"/>
      <point x="286" y="-28"/>
    </contour>
    <contour>
      <point x="533" y="-164" type="line"/>
      <point x="595" y="-164" type="line"/>
      <point x="595" y="658" type="line"/>
      <point x="448" y="658" type="line"/>
      <point x="456" y="584" type="line"/>
      <point x="448" y="517" type="line"/>
      <point x="448" y="120" type="line"/>
      <point x="501" y="109" type="line"/>
      <point x="501" y="-120" type="line"/>
      <point x="557" y="-92" type="line"/>
      <point x="343" y="-42" type="line"/>
      <point x="352" y="-106" type="line"/>
      <point x="476" y="31" type="line"/>
      <point x="470" y="-2" type="line"/>
      <point x="386" y="68" type="line"/>
      <point x="408" y="72" type="line"/>
      <point x="282" y="-71" type="line"/>
      <point x="297" y="-115" type="line"/>
    </contour>
  </outline>
</glyph>
<glyph name="pa_ta-oriya" format="2">
  <advance width="676"/>
  <note>
pataorya
</note>
  <guideline x="611" y="269" angle="90"/>
  <guideline x="670" y="270" angle="90"/>
  <anchor x="291" y="658" name="top"/>
  <anchor x="538" y="658" name="topright"/>
  <outline>
    <contour>
      <point x="140" y="195" type="curve"/>
      <point x="211" y="278" type="line"/>
      <point x="179" y="305"/>
      <point x="163" y="340"/>
      <point x="163" y="384" type="curve" smooth="yes"/>
      <point x="163" y="474"/>
      <point x="230" y="520"/>
      <point x="308" y="520" type="curve" smooth="yes"/>
      <point x="370" y="520"/>
      <point x="476" y="495"/>
      <point x="476" y="371" type="curve"/>
      <point x="589" y="370" type="line"/>
      <point x="589" y="569"/>
      <point x="438" y="666"/>
      <point x="291" y="666" type="curve" smooth="yes"/>
      <point x="136" y="666"/>
      <point x="16" y="564"/>
      <point x="16" y="413" type="curve" smooth="yes"/>
      <point x="16" y="324"/>
      <point x="58" y="240"/>
    </contour>
    <contour>
      <point x="314" y="-8" type="curve" smooth="yes"/>
      <point x="399" y="-8"/>
      <point x="496" y="40"/>
      <point x="554" y="130" type="curve"/>
      <point x="563" y="320" type="line"/>
      <point x="507" y="207"/>
      <point x="396" y="139"/>
      <point x="331" y="139" type="curve" smooth="yes"/>
      <point x="296" y="139"/>
      <point x="279" y="160"/>
      <point x="279" y="186" type="curve" smooth="yes"/>
      <point x="279" y="228"/>
      <point x="323" y="286"/>
      <point x="403" y="296" type="curve"/>
      <point x="385" y="246" type="line"/>
      <point x="296" y="446" type="line"/>
      <point x="373" y="439" type="line"/>
      <point x="203" y="419"/>
      <point x="128" y="301"/>
      <point x="128" y="185" type="curve" smooth="yes"/>
      <point x="128" y="62"/>
      <point x="212" y="-8"/>
    </contour>
    <contour>
      <point x="464" y="116" type="line"/>
      <point x="611" y="116" type="line"/>
      <point x="611" y="658" type="line"/>
      <point x="464" y="658" type="line"/>
      <point x="472" y="574" type="line"/>
      <point x="464" y="498" type="line"/>
    </contour>
    <contour>
      <point x="414" y="-204" type="curve" smooth="yes"/>
      <point x="567" y="-204"/>
      <point x="670" y="-117"/>
      <point x="670" y="26" type="curve" smooth="yes"/>
      <point x="670" y="121"/>
      <point x="625" y="177"/>
      <point x="548" y="177" type="curve" smooth="yes"/>
      <point x="479" y="177"/>
      <point x="432" y="131"/>
      <point x="432" y="58" type="curve" smooth="yes"/>
      <point x="432" y="-22"/>
      <point x="488" y="-62"/>
      <point x="545" y="-62" type="curve" smooth="yes"/>
      <point x="603" y="-62"/>
      <point x="662" y="-22"/>
      <point x="662" y="58" type="curve"/>
      <point x="570" y="-5" type="line"/>
      <point x="555" y="-63"/>
      <point x="503" y="-87"/>
      <point x="423" y="-87" type="curve" smooth="yes"/>
      <point x="357" y="-87"/>
      <point x="274" y="-68"/>
      <point x="212" y="-26" type="curve"/>
      <point x="270" y="-11" type="line"/>
      <point x="191" y="-198" type="line"/>
      <point x="156" y="-122" type="line"/>
      <point x="236" y="-180"/>
      <point x="331" y="-204"/>
    </contour>
    <contour>
      <point x="574" y="57" type="curve" smooth="yes"/>
      <point x="574" y="35"/>
      <point x="565" y="23"/>
      <point x="551" y="23" type="curve" smooth="yes"/>
      <point x="537" y="23"/>
      <point x="528" y="35"/>
      <point x="528" y="57" type="curve" smooth="yes"/>
      <point x="528" y="79"/>
      <point x="537" y="91"/>
      <point x="551" y="91" type="curve" smooth="yes"/>
      <point x="565" y="91"/>
      <point x="574" y="79"/>
    </contour>
  </outline>
</glyph>
<glyph name="pha-oriya.base" format="2">
  <advance width="777"/>
  <guideline x="776" y="612" angle="90"/>
  <anchor x="522" y="110" name="bottom"/>
  <anchor x="306" y="658" name="top"/>
  <anchor x="636" y="658" name="topright"/>
  <outline>
    <contour>
      <point x="652" y="344" type="curve" smooth="yes"/>
      <point x="727" y="344"/>
      <point x="777" y="398"/>
      <point x="777" y="483" type="curve" smooth="yes"/>
      <point x="777" y="568"/>
      <point x="727" y="620"/>
      <point x="654" y="620" type="curve" smooth="yes"/>
      <point x="567" y="620"/>
      <point x="527" y="548"/>
      <point x="527" y="481" type="curve" smooth="yes"/>
      <point x="527" y="416"/>
      <point x="565" y="344"/>
    </contour>
    <contour>
      <point x="632" y="432" type="curve" smooth="yes"/>
      <point x="609" y="432"/>
      <point x="595" y="450"/>
      <point x="595" y="482" type="curve" smooth="yes"/>
      <point x="595" y="513"/>
      <point x="609" y="533"/>
      <point x="632" y="533" type="curve" smooth="yes"/>
      <point x="654" y="533"/>
      <point x="667" y="513"/>
      <point x="667" y="482" type="curve" smooth="yes"/>
      <point x="667" y="451"/>
      <point x="654" y="432"/>
    </contour>
    <contour>
      <point x="135" y="255" type="curve"/>
      <point x="197" y="333" type="line"/>
      <point x="174" y="355"/>
      <point x="161" y="385"/>
      <point x="161" y="418" type="curve" smooth="yes"/>
      <point x="161" y="496"/>
      <point x="230" y="530"/>
      <point x="295" y="530" type="curve" smooth="yes"/>
      <point x="365" y="530"/>
      <point x="458" y="490"/>
      <point x="458" y="406" type="curve"/>
      <point x="566" y="406" type="line"/>
      <point x="566" y="581"/>
      <point x="422" y="666"/>
      <point x="281" y="666" type="curve" smooth="yes"/>
      <point x="147" y="666"/>
      <point x="16" y="593"/>
      <point x="16" y="451" type="curve" smooth="yes"/>
      <point x="16" y="377"/>
      <point x="53" y="296"/>
    </contour>
    <contour>
      <point x="298" y="71" type="curve" smooth="yes"/>
      <point x="375" y="71"/>
      <point x="461" y="113"/>
      <point x="515" y="199" type="curve"/>
      <point x="455" y="290" type="line"/>
      <point x="421" y="237"/>
      <point x="361" y="205"/>
      <point x="317" y="205" type="curve" smooth="yes"/>
      <point x="282" y="205"/>
      <point x="262" y="226"/>
      <point x="262" y="253" type="curve" smooth="yes"/>
      <point x="262" y="288"/>
      <point x="299" y="336"/>
      <point x="388" y="350" type="curve"/>
      <point x="370" y="296" type="line"/>
      <point x="284" y="472" type="line"/>
      <point x="358" y="468" type="line"/>
      <point x="193" y="443"/>
      <point x="122" y="342"/>
      <point x="122" y="244" type="curve" smooth="yes"/>
      <point x="122" y="143"/>
      <point x="197" y="71"/>
    </contour>
    <contour>
      <point x="448" y="76" type="line"/>
      <point x="595" y="76" type="line"/>
      <point x="595" y="658" type="line"/>
      <point x="448" y="658" type="line"/>
      <point x="456" y="584" type="line"/>
      <point x="448" y="517" type="line"/>
      <point x="448" y="220" type="line"/>
      <point x="462" y="159" type="line"/>
    </contour>
  </outline>
</glyph>
<glyph name="reph-oriya" format="2">
  <anchor x="319" y="658" name="_topright"/>
  <outline>
    <contour>
      <point x="319" y="648" type="line"/>
      <point x="395" y="721" type="line"/>
      <point x="273" y="849" type="line"/>
      <point x="256" y="723" type="line"/>
      <point x="422" y="906" type="line"/>
      <point x="344" y="977" type="line"/>
      <point x="190" y="807" type="line"/>
      <point x="200" y="772" type="line"/>
    </contour>
  </outline>
</glyph>
